<svg width="295" height="295" viewBox="0 0 295 295" fill="none" xmlns="http://www.w3.org/2000/svg">
<path d="M159.984 223.461H98.5352V270.856H159.984V223.461Z" fill="#EBEBEB"/>
<path d="M144.591 270.524C144.508 270.524 144.438 259.957 144.438 246.93C144.438 233.897 144.508 223.336 144.591 223.336C144.674 223.336 144.744 233.897 144.744 246.93C144.744 259.957 144.674 270.524 144.591 270.524Z" fill="#E0E0E0"/>
<path d="M154.775 260.07H150.066V265.398H154.775V260.07Z" fill="#FAFAFA"/>
<path d="M124.265 223.582H117.285V233.695H124.265V223.582Z" fill="#E0E0E0"/>
<path d="M124.265 260.602H117.285V270.714H124.265V260.602Z" fill="#E0E0E0"/>
<path d="M271.489 211.578H194.004V271.339H271.489V211.578Z" fill="#EBEBEB"/>
<path d="M252.071 270.916C251.989 270.916 251.918 257.593 251.918 241.168C251.918 224.736 251.989 211.414 252.071 211.414C252.154 211.414 252.225 224.73 252.225 241.168C252.225 257.599 252.16 270.916 252.071 270.916Z" fill="#E0E0E0"/>
<path d="M264.918 257.734H258.977V264.449H264.918V257.734Z" fill="#FAFAFA"/>
<path d="M226.443 211.734H217.641V224.484H226.443V211.734Z" fill="#E0E0E0"/>
<path d="M226.443 258.406H217.641V271.156H226.443V258.406Z" fill="#E0E0E0"/>
<path d="M48.0613 213.336C51.2001 211.719 54.8876 211.507 58.3686 212.085C60.2389 212.392 62.1918 212.952 63.4603 214.357C64.7347 215.761 64.9766 218.233 63.5134 219.442C62.6461 220.162 61.4307 220.268 60.3038 220.257C57.578 220.227 54.5572 219.743 52.3742 221.384C51.1293 222.322 50.3033 223.873 48.8224 224.334C47.371 224.782 45.7308 223.926 44.9579 222.617C44.185 221.307 44.1614 219.667 44.5213 218.186C44.5272 218.186 44.9048 214.964 48.0613 213.336Z" fill="#EBEBEB"/>
<path d="M40.8758 199.467C42.7933 202.204 46.5221 201.296 48.2508 199.626C49.9795 197.956 50.7111 195.531 51.3719 193.219C52.8882 187.938 54.4222 182.404 53.2953 177.023C52.959 175.418 52.3572 173.814 51.2244 172.622C50.0975 171.43 48.357 170.722 46.7699 171.141C44.8878 171.636 43.7255 173.477 42.8759 175.23C40.392 180.374 39.0822 186.08 39.0586 191.797C39.0586 194.469 39.3713 197.266 40.8758 199.467Z" fill="#EBEBEB"/>
<path d="M35.6133 203.395C37.696 200.922 38.0913 197.318 37.165 194.226C36.2387 191.128 34.1442 188.497 31.7311 186.349C28.905 183.83 25.5774 181.865 22.002 180.609C20.5978 180.113 19.111 179.724 17.6301 179.865C16.1433 180.007 14.6506 180.768 13.9603 182.084C12.9337 184.037 13.919 186.403 14.981 188.338C16.8513 191.742 18.9871 194.999 21.3707 198.067C23.2882 200.533 25.4771 202.97 28.3976 204.085C31.3181 205.2 34.3448 205.07 35.8965 203.046" fill="#EBEBEB"/>
<path d="M40.7444 240.783C40.7798 240.783 40.8388 240.341 40.9155 239.538C41.004 238.63 41.1161 237.497 41.2459 236.14C41.4052 234.712 41.6117 233.013 42.007 231.16C42.4023 229.314 43.0218 227.314 43.8183 225.278C44.6443 223.26 45.6473 221.425 46.8214 219.956C47.9896 218.481 49.3407 217.413 50.6151 216.8C51.8836 216.174 53.0223 215.915 53.8129 215.803C54.6094 215.72 55.0519 215.661 55.0519 215.626C55.0519 215.59 54.6094 215.584 53.7893 215.608C52.981 215.661 51.7951 215.868 50.4558 216.475C49.1106 217.071 47.6769 218.157 46.4497 219.661C45.2166 221.16 44.1782 223.036 43.3404 225.089C42.5321 227.154 41.9185 229.178 41.5409 231.066C41.1633 232.948 40.9922 234.671 40.8801 236.11C40.7739 237.55 40.7326 238.718 40.709 239.527C40.7031 240.329 40.709 240.777 40.7444 240.783Z" fill="#E0E0E0"/>
<path d="M40.9828 238.172C41.0005 238.172 41.0123 237.971 41.0182 237.594C41.0182 237.157 41.0182 236.614 41.0123 235.942C41.0064 234.508 41.0064 232.437 41.0831 229.876C41.207 224.755 41.6495 219.245 42.505 211.468C43.3133 204.158 44.393 195.656 45.5376 190.128C45.7854 188.871 46.0273 187.739 46.2633 186.747C46.4875 185.756 46.6763 184.901 46.8592 184.205C47.0185 183.55 47.1424 183.019 47.2427 182.6C47.3253 182.234 47.3607 182.033 47.343 182.027C47.3253 182.022 47.2545 182.21 47.1424 182.57C47.0185 182.983 46.8592 183.508 46.6645 184.151C46.4521 184.836 46.2338 185.691 45.986 186.677C45.7264 187.662 45.455 188.795 45.1836 190.046C44.0508 195.055 42.859 202.058 41.9976 209.846C41.1421 217.634 40.7586 224.726 40.7232 229.859C40.6937 232.425 40.7468 234.502 40.8117 235.936C40.853 236.608 40.8884 237.151 40.912 237.588C40.9415 237.971 40.9651 238.172 40.9828 238.172Z" fill="#E0E0E0"/>
<path d="M41.0189 224.494C41.0543 224.494 41.0484 223.88 41.0071 222.771C40.9422 221.662 40.7888 220.063 40.4761 218.098C40.1457 216.14 39.6796 213.815 38.9539 211.29C38.6412 210.133 37.8978 207.366 36.1042 203.23C33.7442 197.625 30.5346 193.047 27.7439 190.209C27.089 189.454 26.3574 188.911 25.7792 188.38C25.4783 188.126 25.2128 187.873 24.9414 187.666C24.67 187.477 24.4163 187.3 24.1803 187.141C23.2599 186.516 22.7466 186.179 22.7289 186.209C22.6463 186.321 24.788 187.578 27.4902 190.457C30.1806 193.324 33.3017 197.873 35.644 203.431C36.9479 206.446 37.8624 209.13 38.5055 211.414C39.2548 213.915 39.7504 216.216 40.1221 218.157C40.4761 220.098 40.6826 221.686 40.8065 222.783C40.9068 223.88 40.9835 224.494 41.0189 224.494Z" fill="#E0E0E0"/>
<path d="M26.8828 246.535L28.2575 265.309H52.3708L53.7455 246.535H26.8828Z" fill="#EBEBEB"/>
<path d="M56.6173 239.137H24.5508V246.535H56.6173V239.137Z" fill="#EBEBEB"/>
<path d="M24.5508 264.598V266.645H26.0612H56.0922V264.598H24.5508Z" fill="#E0E0E0"/>
<path d="M27.5375 270.029L26.0625 266.418H54.943L53.2202 270.029H27.5375Z" fill="#E0E0E0"/>
<path d="M53.2965 252.674C53.3024 252.68 53.2611 252.739 53.1844 252.845C53.09 252.975 52.972 253.128 52.8245 253.323C52.4823 253.76 52.0103 254.362 51.4203 255.123L51.3554 255.205L51.2964 255.123C50.4114 253.901 49.2314 252.267 47.8449 250.35H48.0455C47.0189 251.801 45.8743 253.424 44.6471 255.164L44.5409 255.317L44.4229 255.176C43.1662 253.683 41.8092 252.061 40.3932 250.379L40.6233 250.373C40.5525 250.462 40.4758 250.556 40.3991 250.651C39.1483 252.22 37.9388 253.736 36.7942 255.17L36.6762 255.323L36.5641 255.164C35.3428 253.435 34.1982 251.813 33.1657 250.356L33.3663 250.367C31.6907 252.279 30.2688 253.896 29.1773 255.14L29.1006 255.223L29.0416 255.129C28.487 254.202 28.0504 253.459 27.7318 252.928C27.5961 252.686 27.484 252.497 27.3955 252.344C27.3188 252.208 27.2834 252.137 27.2952 252.137C27.3011 252.131 27.3483 252.196 27.4368 252.326C27.5371 252.474 27.6551 252.662 27.8085 252.893C28.1448 253.418 28.605 254.143 29.1832 255.058L29.0534 255.046C30.1272 253.789 31.5255 252.149 33.1716 250.22L33.2778 250.096L33.3722 250.226C34.4165 251.683 35.567 253.294 36.8001 255.017L36.57 255.011C37.7087 253.577 38.9182 252.055 40.1631 250.485C40.2398 250.391 40.3165 250.297 40.3873 250.208L40.4994 250.066L40.6174 250.208C42.0275 251.895 43.3845 253.518 44.6353 255.011L44.4111 255.022C45.6501 253.294 46.8065 251.683 47.8449 250.232L47.9452 250.09L48.0455 250.232C49.4025 252.173 50.5589 253.825 51.4262 255.058L51.3023 255.052C51.9159 254.314 52.4056 253.724 52.7655 253.3C52.9248 253.117 53.0546 252.969 53.1549 252.845C53.2434 252.721 53.2906 252.674 53.2965 252.674Z" fill="#F5F5F5"/>
<path d="M54.0804 246.413C54.0804 246.496 48.0388 246.561 40.5812 246.561C33.1236 246.561 27.082 246.496 27.082 246.413C27.082 246.331 33.1236 246.266 40.5812 246.266C48.0329 246.266 54.0804 246.331 54.0804 246.413Z" fill="#F5F5F5"/>
<path d="M223.272 33.5243L218.328 33.5508L218.46 58.1538L223.404 58.1273L223.272 33.5243Z" fill="#E0E0E0"/>
<path d="M188.295 33.5916L175.492 33.6602L175.565 47.242L188.368 47.1734L188.295 33.5916Z" fill="#EBEBEB"/>
<path d="M201.041 33.5213L188.238 33.5898L188.311 47.1716L201.114 47.1031L201.041 33.5213Z" fill="#F5F5F5"/>
<path d="M175.509 37.4078C184.017 37.4786 192.548 37.4314 201.056 37.2898C201.233 37.2898 201.227 37.0184 201.056 37.0184C192.548 36.9712 184.017 37.0125 175.509 37.1718C175.362 37.1777 175.362 37.4078 175.509 37.4078Z" fill="#E0E0E0"/>
<path d="M190.775 46.9456L167.512 47.0703L167.571 58.1387L190.835 58.014L190.775 46.9456Z" fill="#EBEBEB"/>
<path d="M213.924 46.8207L190.66 46.9453L190.719 58.0137L213.983 57.8891L213.924 46.8207Z" fill="#F5F5F5"/>
<path d="M167.525 50.1497C182.977 50.3267 198.488 50.1674 213.94 49.9196C214.118 49.9137 214.112 49.6482 213.94 49.6482C198.488 49.5656 182.977 49.5774 167.525 49.9137C167.372 49.9196 167.372 50.1438 167.525 50.1497Z" fill="#E0E0E0"/>
<path d="M248.953 58.1367H158.824V62.1015H248.953V58.1367Z" fill="#E0E0E0"/>
<path d="M177.24 60.043H173.582V73.5717H177.24V60.043Z" fill="#E0E0E0"/>
<path d="M231.853 60.043H228.195V73.5717H231.853V60.043Z" fill="#E0E0E0"/>
<path d="M228.097 24.3485L223.152 24.375L223.334 58.2115L228.278 58.185L228.097 24.3485Z" fill="#EBEBEB"/>
<path d="M235.822 30.6502L228.141 30.6914L228.288 58.1146L235.969 58.0734L235.822 30.6502Z" fill="#F5F5F5"/>
<path d="M235.768 35.9326C235.768 36.0034 234.045 36.0683 231.927 36.0683C229.803 36.0683 228.086 36.0093 228.086 35.9326C228.086 35.8618 229.803 35.7969 231.927 35.7969C234.051 35.8028 235.768 35.8618 235.768 35.9326Z" fill="#E0E0E0"/>
<path d="M235.768 34.7802C235.768 34.851 234.045 34.9159 231.927 34.9159C229.803 34.9159 228.086 34.8569 228.086 34.7802C228.086 34.7094 229.803 34.6445 231.927 34.6445C234.051 34.6445 235.768 34.7035 235.768 34.7802Z" fill="#E0E0E0"/>
<path d="M235.768 53.9443C235.768 54.0151 234.045 54.08 231.927 54.08C229.803 54.08 228.086 54.021 228.086 53.9443C228.086 53.8735 229.803 53.8086 231.927 53.8086C234.051 53.8145 235.768 53.8735 235.768 53.9443Z" fill="#E0E0E0"/>
<path d="M235.768 52.792C235.768 52.8628 234.045 52.9276 231.927 52.9276C229.803 52.9276 228.086 52.8687 228.086 52.792C228.086 52.7212 229.803 52.6562 231.927 52.6562C234.051 52.6562 235.768 52.7153 235.768 52.792Z" fill="#E0E0E0"/>
<path d="M232.05 50.2804C231.979 50.2804 231.914 47.5133 231.914 44.1031C231.914 40.6929 231.973 37.9258 232.05 37.9258C232.126 37.9258 232.185 40.6929 232.185 44.1031C232.185 47.5133 232.126 50.2804 232.05 50.2804Z" fill="#E0E0E0"/>
<path d="M244.216 37.3828H235.855V58.08H244.216V37.3828Z" fill="#EBEBEB"/>
<path d="M225.547 31.5469C226.332 31.5469 226.969 30.9103 226.969 30.125C226.969 29.3397 226.332 28.7031 225.547 28.7031C224.762 28.7031 224.125 29.3397 224.125 30.125C224.125 30.9103 224.762 31.5469 225.547 31.5469Z" fill="#E0E0E0"/>
<path d="M225.988 34.0352H225.109V54.166H225.988V34.0352Z" fill="#E0E0E0"/>
<path d="M274.15 271.017C274.15 271.099 217.445 271.17 147.507 271.17C77.5506 271.17 20.8516 271.099 20.8516 271.017C20.8516 270.934 77.5447 270.863 147.507 270.863C217.44 270.863 274.15 270.934 274.15 271.017Z" fill="#263238"/>
<path d="M88.0333 54.4844C90.8004 57.8474 92.3403 62.2016 92.2931 66.5558C92.2636 69.0456 91.8093 71.7891 93.2548 73.8128C94.3522 75.3468 96.3582 76.1197 97.2491 77.7835C98.3229 79.7836 97.4084 82.3147 98.0692 84.4859C99.0073 87.5657 102.612 88.8578 104.754 91.2591C106.612 93.3477 107.297 96.398 106.548 99.0884C105.798 101.779 103.657 104.033 101.013 104.941C99.5973 105.431 97.9748 105.537 96.6355 104.87C95.19 104.151 94.2932 102.67 93.5675 101.224C92.1397 98.3804 79.6494 83.0109 78.9414 79.9134" fill="#263238"/>
<path d="M78.9489 50.861C73.8395 50.0409 68.9307 53.4275 66.7772 58.1357C64.6237 62.838 64.5647 68.1893 64.4054 73.3636C64.2461 78.532 63.8862 83.9305 61.243 88.385C59.5674 91.2111 56.9714 93.6832 56.5643 96.9459C56.1985 99.8605 57.7089 102.799 57.2074 105.696C56.7708 108.215 54.8474 110.41 54.9241 112.97C55.0185 116.05 58.1809 118.369 61.2607 118.451C64.3405 118.534 67.2138 116.923 69.6269 115.006C73.5445 111.902 76.7187 107.867 78.8132 103.336" fill="#263238"/>
<path d="M70.5404 63.0386C69.8678 57.6519 73.7618 52.7313 79.2311 52.2062C84.3877 51.7165 88.9661 55.5515 89.739 60.6727C90.4175 65.1626 90.9957 69.6938 90.978 71.3399C90.9131 76.3018 88.0103 78.237 86.8362 78.8152C86.5648 78.945 85.8273 79.0984 85.5323 79.1397C85.5146 79.1397 85.5028 79.1574 85.5028 79.181L86.6061 84.8804C87.1076 88.6151 85.0249 91.9427 81.2961 92.4855C77.5555 93.0283 74.635 90.1609 74.0627 86.4262L70.5404 63.0386Z" fill="#FFBE9D"/>
<path d="M88.7312 62.8488C88.6486 62.9668 87.9937 62.6128 87.1559 62.7367C86.3181 62.8488 85.7635 63.3739 85.6573 63.2795C85.6042 63.2382 85.675 63.0435 85.9169 62.8075C86.1529 62.5715 86.5777 62.3178 87.0969 62.247C87.622 62.1762 88.0881 62.3001 88.3713 62.4594C88.6604 62.6246 88.7725 62.8016 88.7312 62.8488Z" fill="#263238"/>
<path d="M81.2624 64.6651C81.1798 64.7831 80.5249 64.4291 79.6871 64.553C78.8493 64.6651 78.2947 65.1902 78.1885 65.0958C78.1354 65.0545 78.2062 64.8598 78.4481 64.6238C78.6841 64.3878 79.1089 64.1341 79.6281 64.0633C80.1532 63.9925 80.6193 64.1164 80.9025 64.2816C81.1857 64.4409 81.3037 64.612 81.2624 64.6651Z" fill="#263238"/>
<path d="M84.3242 69.1698C84.3124 69.1226 84.8198 68.9574 85.6517 68.7273C85.8641 68.6742 86.0588 68.6034 86.0765 68.45C86.106 68.2848 85.9821 68.0724 85.8405 67.8364C85.5632 67.3467 85.2741 66.8334 84.9673 66.2965C83.746 64.1017 82.8315 62.2786 82.92 62.2314C83.0085 62.1842 84.0705 63.9247 85.2918 66.1195C85.5868 66.6623 85.87 67.1815 86.1414 67.6771C86.2594 67.9072 86.4364 68.1668 86.3774 68.5031C86.342 68.6742 86.2004 68.8099 86.0706 68.8689C85.9408 68.9338 85.8169 68.9515 85.7166 68.9751C84.8611 69.1403 84.336 69.217 84.3242 69.1698Z" fill="#263238"/>
<path d="M85.4958 79.1522C85.4958 79.1522 82.2921 79.8897 77.8789 78.043C77.8789 78.043 79.7846 82.1435 85.7908 80.6862L85.4958 79.1522Z" fill="#EB996E"/>
<path d="M80.8342 62.4655C80.787 62.7074 79.9315 62.7193 78.9639 62.9848C77.9904 63.2267 77.2352 63.6338 77.0759 63.445C77.0051 63.3565 77.1113 63.1205 77.4004 62.855C77.6895 62.5895 78.1615 62.3062 78.7456 62.1528C79.3297 61.9994 79.8843 62.0171 80.2619 62.1115C80.6454 62.2 80.8519 62.3534 80.8342 62.4655Z" fill="#263238"/>
<path d="M88.041 60.9906C87.923 61.203 87.3153 61.0909 86.6132 61.1794C85.9111 61.2443 85.3447 61.4921 85.1795 61.3151C85.1087 61.2266 85.1736 61.0201 85.4037 60.8018C85.6338 60.5835 86.0351 60.377 86.513 60.318C86.9909 60.2649 87.4333 60.377 87.7047 60.5363C87.982 60.7015 88.0941 60.8903 88.041 60.9906Z" fill="#263238"/>
<path d="M79.4379 65.7544C79.4969 66.1202 79.8509 66.3739 80.2344 66.3208C80.6179 66.2677 80.8775 65.9314 80.8185 65.5656C80.7595 65.1998 80.4055 64.9461 80.022 64.9992C79.6444 65.0523 79.3789 65.3886 79.4379 65.7544Z" fill="#263238"/>
<path d="M86.8793 64.145C86.9383 64.5108 87.2923 64.7645 87.6758 64.7114C88.0593 64.6583 88.3189 64.322 88.2599 63.9562C88.2009 63.5904 87.8469 63.3367 87.4634 63.3898C87.0858 63.4429 86.8203 63.7792 86.8793 64.145Z" fill="#263238"/>
<path d="M85.6448 70.8114C85.102 70.6521 84.6418 70.9294 84.4176 71.3188C84.1993 71.7082 84.2524 72.2451 84.5651 72.5637C84.8837 72.8823 85.4442 72.9354 85.7923 72.6522C86.0283 72.4575 86.1463 72.1507 86.1758 71.8498C86.2053 71.5725 86.1581 71.2716 85.987 71.0474C85.8159 70.8232 85.4914 70.7052 85.2377 70.8173" fill="#EB996E"/>
<path d="M89.089 56.6623C88.7055 54.7979 87.4193 53.2049 85.8558 52.1134C84.5283 51.1871 82.953 50.5794 81.3364 50.5263C79.7198 50.4791 78.0619 51.0219 76.8878 52.1429C76.0205 52.9689 75.578 54.143 75.5426 55.3407L75.637 54.5147C75.3951 55.1932 75.3951 55.9248 75.6488 56.5915C75.6488 56.5915 75.6488 56.5915 75.6488 56.5974V56.5915C75.7845 56.9514 75.9497 57.3172 76.0972 57.6771C76.5102 58.7096 77.3126 59.5769 78.3038 60.0784C78.764 60.3085 79.2655 60.4619 79.7788 60.4383C80.2921 60.4147 80.8054 60.1964 81.1181 59.7893C81.5606 59.2052 81.5075 58.4028 81.4367 57.6771C81.8733 58.3615 82.3394 59.0754 83.0474 59.4825C83.7554 59.8896 84.7702 59.8719 85.2658 59.2288C85.7437 58.6034 85.5549 57.7066 85.2776 56.9691C85.726 57.6594 86.375 58.214 87.1184 58.5621C87.5314 58.7509 88.0152 58.8807 88.4341 58.6978C88.7881 58.5444 89.0241 58.1904 89.1185 57.8128C89.207 57.4352 89.1657 57.0399 89.089 56.6623Z" fill="#263238"/>
<path d="M84.8227 58.2073C84.7696 58.2073 84.7755 57.5052 84.5513 56.4196C84.3212 55.3517 83.7843 53.8354 82.5158 52.7203C81.8904 52.1716 81.1706 51.7881 80.4744 51.617C79.7782 51.4459 79.1115 51.4636 78.5746 51.5698C77.489 51.7881 76.9639 52.3073 76.9344 52.2483C76.9226 52.2365 77.0347 52.1008 77.2943 51.912C77.5539 51.7232 77.9669 51.499 78.5274 51.3574C79.0879 51.2217 79.79 51.1745 80.5393 51.3397C81.2886 51.5049 82.0615 51.9061 82.7164 52.4843C84.0557 53.6643 84.5867 55.2691 84.7637 56.3724C84.8522 56.9329 84.8758 57.3931 84.8699 57.7117C84.8699 58.0303 84.8463 58.2073 84.8227 58.2073Z" fill="#455A64"/>
<path d="M139.164 126.997L116.478 118C116.478 118 104.855 102.76 105.097 102.465L96.9375 111.397L108.796 127.445L136.273 133.876L149.282 133.983C148.279 128.979 139.164 126.997 139.164 126.997Z" fill="#FFBE9D"/>
<path d="M89.7195 83.518L86.6279 82.3203L73.2821 84.0136V86.3736L72.8986 86.4208C72.8986 86.4208 68.7509 87.176 64.7212 89.595C59.8419 92.5273 57.3049 98.1736 58.2076 103.796C58.7504 107.171 59.8006 111.272 61.8302 113.643C65.7065 118.175 69.2465 112.576 69.2465 112.576C69.2465 112.576 71.6773 118.127 71.5416 120.747C71.4236 122.948 70.4501 127.526 70.1374 128.954C70.0843 129.196 70.2436 129.426 70.4855 129.473L98.6403 134.677L98.776 127.798L97.8792 99.4952L96.6402 88.4976C96.6402 88.4976 96.6815 83.2466 89.7195 83.518Z" fill="#6088F0"/>
<path d="M96.2109 86.668L106.949 102.179L98.3054 112.705L96.2109 86.668Z" fill="#6088F0"/>
<path d="M98.5129 119.308C98.4893 119.308 98.4775 118.948 98.4716 118.305C98.4657 117.609 98.4539 116.688 98.4362 115.579C98.3831 113.278 98.2533 110.104 97.7931 106.623C97.3506 103.142 96.6721 100.033 96.1529 97.7907C95.8992 96.711 95.6868 95.8142 95.5275 95.1357C95.38 94.5103 95.3092 94.1622 95.3269 94.1563C95.3446 94.1504 95.4567 94.4926 95.6396 95.1062C95.8225 95.7257 96.0703 96.6225 96.3594 97.7376C96.9317 99.9678 97.6456 103.083 98.094 106.582C98.5542 110.075 98.6486 113.266 98.6486 115.573C98.6368 116.724 98.6191 117.656 98.5837 118.305C98.5601 118.954 98.5365 119.308 98.5129 119.308Z" fill="#263238"/>
<path d="M72.0975 95.7249C72.0975 95.7721 71.2833 95.7662 69.9735 95.837C68.6696 95.9078 66.8642 96.0848 64.9113 96.486C62.9584 96.8931 61.2356 97.4418 60.0084 97.902C58.7812 98.3563 58.0378 98.6867 58.0201 98.6454C58.0083 98.6277 58.1853 98.5215 58.5157 98.3504C58.8402 98.1793 59.324 97.9551 59.9317 97.6955C61.1471 97.1822 62.8817 96.5922 64.8523 96.1851C66.8288 95.778 68.6519 95.6305 69.9676 95.6187C70.6284 95.6128 71.1594 95.6246 71.5252 95.6541C71.8969 95.6777 72.0975 95.7013 72.0975 95.7249Z" fill="#FAFAFA"/>
<path d="M96.9663 102.824C96.9722 102.865 96.4648 102.989 95.627 103.113C94.7892 103.243 93.6269 103.367 92.3407 103.408C91.0486 103.45 89.8804 103.408 89.0367 103.337C88.193 103.267 87.6797 103.178 87.6797 103.137C87.6856 103.09 88.2048 103.101 89.0426 103.119C89.8804 103.137 91.0427 103.143 92.323 103.101C93.6033 103.054 94.7597 102.966 95.5975 102.895C96.4412 102.83 96.9604 102.783 96.9663 102.824Z" fill="#FAFAFA"/>
<path d="M101.893 95.8089C101.946 95.8679 100.996 96.8178 99.5917 97.6733C98.1875 98.5347 96.9072 98.9477 96.8836 98.8769C96.8482 98.7943 98.0518 98.2574 99.4324 97.4137C100.813 96.57 101.834 95.7381 101.893 95.8089Z" fill="#FAFAFA"/>
<path d="M97.5563 88.6174C97.6094 88.6705 96.3409 89.8092 94.4293 90.6116C92.5236 91.4258 90.8244 91.5438 90.8244 91.473C90.8067 91.3786 92.4528 91.1308 94.3113 90.3343C96.1757 89.5437 97.4973 88.5407 97.5563 88.6174Z" fill="#FAFAFA"/>
<path d="M98.1407 114.836C98.1466 114.854 97.9519 114.96 97.5802 115.131C97.2144 115.303 96.6716 115.527 95.9931 115.775C94.6361 116.276 92.7009 116.831 90.512 117.173C88.3231 117.509 86.3112 117.556 84.8657 117.486C84.14 117.45 83.5559 117.403 83.1547 117.35C82.7535 117.297 82.5352 117.261 82.5352 117.238C82.5411 117.185 83.432 117.261 84.8716 117.273C86.3112 117.285 88.2995 117.202 90.4648 116.872C92.6301 116.536 94.5535 116.016 95.9223 115.574C97.2911 115.126 98.123 114.789 98.1407 114.836Z" fill="#FAFAFA"/>
<path d="M98.3586 122.829C98.3645 122.841 98.276 122.888 98.1049 122.97C97.9043 123.065 97.6565 123.183 97.3556 123.324C96.7066 123.631 95.7449 124.032 94.5413 124.481C93.3377 124.935 91.8804 125.407 90.2402 125.856C88.5941 126.292 86.771 126.693 84.8299 127C82.8888 127.295 81.0244 127.46 79.3252 127.549C77.626 127.614 76.092 127.608 74.8117 127.543C73.5255 127.478 72.493 127.39 71.7791 127.295C71.4546 127.248 71.1832 127.213 70.959 127.183C70.7702 127.154 70.6758 127.136 70.6758 127.124C70.6758 127.112 70.7761 127.112 70.9649 127.124C71.1891 127.136 71.4605 127.159 71.7909 127.177C72.5048 127.236 73.5432 127.295 74.8176 127.331C76.0979 127.372 77.6201 127.354 79.3134 127.272C81.0008 127.171 82.8534 127 84.7827 126.705C86.712 126.398 88.5292 126.003 90.1694 125.59C91.8037 125.159 93.261 124.711 94.4705 124.286C95.68 123.867 96.6476 123.496 97.3084 123.224C97.6152 123.106 97.8689 123.006 98.0754 122.923C98.2583 122.852 98.3527 122.823 98.3586 122.829Z" fill="#FAFAFA"/>
<path d="M46.5926 248.258L43.4065 262.672L37.5951 273.345C37.1762 274.112 37.4948 275.079 38.2913 275.445C38.7397 275.652 39.247 275.628 39.6718 275.38C42.374 273.817 52.2919 268.023 52.463 266.955C52.6636 265.716 56.835 251.975 56.835 251.975L46.5926 248.258Z" fill="#6088F0"/>
<g opacity="0.6">
<path opacity="0.6" d="M38.293 275.444L52.7067 265.992L52.5592 266.6C52.4294 267.125 52.1226 267.591 51.686 267.904C50.5119 268.747 47.2256 271.019 39.7267 275.397C39.2842 275.645 38.7473 275.668 38.293 275.444Z" fill="white"/>
</g>
<g opacity="0.6">
<g opacity="0.6">
<path opacity="0.6" d="M50.8955 260.641C50.4766 260.801 50.2229 261.314 50.3704 261.745C50.512 262.17 51.0371 262.429 51.456 262.276C51.8808 262.122 52.1994 261.515 52.0106 261.107C51.8218 260.7 51.1905 260.429 50.8188 260.677" fill="white"/>
</g>
</g>
<path d="M43.1076 269.98C43.0191 269.998 42.8775 269.172 42.1223 268.558C41.3848 267.921 40.547 267.933 40.547 267.838C40.5411 267.803 40.7535 267.732 41.1016 267.767C41.4438 267.797 41.9217 267.968 42.3288 268.31C42.7418 268.658 42.9837 269.095 43.0781 269.425C43.1725 269.762 43.143 269.98 43.1076 269.98Z" fill="#263238"/>
<path d="M41.6113 271.653C41.5287 271.7 41.1806 271.122 40.4903 270.727C39.8118 270.32 39.1333 270.296 39.1333 270.202C39.1097 270.119 39.8767 269.984 40.6555 270.444C41.4402 270.898 41.6939 271.636 41.6113 271.653Z" fill="#263238"/>
<path d="M45.6073 267.988C45.5247 268.042 44.9937 267.145 43.9789 266.437C42.97 265.711 41.9552 265.516 41.9729 265.422C41.967 265.339 43.0821 265.404 44.1677 266.177C45.2592 266.938 45.6899 267.965 45.6073 267.988Z" fill="#263238"/>
<path d="M46.9458 263.685C46.8868 263.762 46.1729 263.237 45.1522 262.948C44.1315 262.641 43.2524 262.706 43.2465 262.606C43.2229 262.523 44.1492 262.311 45.2466 262.635C46.3381 262.948 47.0048 263.632 46.9458 263.685Z" fill="#263238"/>
<path d="M47.9906 259.48C47.9257 259.55 47.2472 258.878 46.1439 258.659C45.0465 258.418 44.1556 258.76 44.1261 258.671C44.1084 258.636 44.309 258.494 44.6866 258.382C45.0642 258.27 45.6188 258.217 46.2088 258.341C46.7988 258.465 47.2885 258.736 47.5894 258.99C47.8903 259.244 48.0142 259.456 47.9906 259.48Z" fill="#263238"/>
<path d="M46.3635 257.863C46.3458 257.858 46.3576 257.657 46.4756 257.315C46.5936 256.973 46.8178 256.489 47.2544 255.999C47.4727 255.769 47.7205 255.468 48.1689 255.38C48.3931 255.332 48.6763 255.444 48.8002 255.675C48.9241 255.899 48.9182 256.147 48.871 256.377C48.635 257.285 47.6379 257.97 46.5818 257.852C45.5257 257.71 44.741 256.896 44.5227 256.011C44.4814 255.787 44.4814 255.521 44.6525 255.309C44.8236 255.09 45.1363 255.067 45.331 255.149C45.744 255.315 45.9505 255.627 46.157 255.869C46.5523 256.388 46.7588 256.878 46.865 257.22C46.9712 257.563 46.983 257.763 46.9653 257.769C46.9063 257.793 46.7765 256.978 45.98 256.011C45.7735 255.781 45.5434 255.503 45.2484 255.397C45.1009 255.344 44.9593 255.374 44.8767 255.48C44.7941 255.58 44.7823 255.769 44.8177 255.946C45.0065 256.672 45.7263 257.415 46.6172 257.521C47.5081 257.633 48.3813 257.026 48.5819 256.3C48.6291 256.123 48.6232 255.934 48.5524 255.804C48.4875 255.68 48.3518 255.616 48.2043 255.639C47.8975 255.68 47.6379 255.94 47.4196 256.152C46.5641 257.067 46.4284 257.899 46.3635 257.863Z" fill="#263238"/>
<g opacity="0.3">
<path opacity="0.3" d="M46.2215 249.821L45.5312 253.125L55.9684 254.86L56.8415 251.975L46.5933 248.258L46.2215 249.821Z" fill="black"/>
</g>
<path d="M93.2335 253.593L92.3721 265.11C92.3721 265.11 103.789 269.853 103.842 272.001L81.4453 271.134L82.053 253.133L93.2335 253.593Z" fill="#6088F0"/>
<g opacity="0.6">
<g opacity="0.6">
<path opacity="0.6" d="M85.4865 263.871C85.0499 263.971 84.7313 264.449 84.8139 264.892C84.8965 265.334 85.3803 265.659 85.8169 265.57C86.2594 265.476 86.6547 264.915 86.5249 264.485C86.3951 264.054 85.8051 263.7 85.4039 263.895" fill="white"/>
</g>
</g>
<g opacity="0.6">
<path opacity="0.6" d="M81.4453 271.136L81.5751 269.324L102.998 270.835C102.998 270.835 103.977 271.307 103.836 272.003L81.4453 271.136Z" fill="white"/>
</g>
<path d="M92.7386 265.01C92.7327 265.122 92.184 265.146 91.6294 265.476C91.0689 265.795 90.7739 266.255 90.6736 266.208C90.5733 266.184 90.7621 265.535 91.4347 265.146C92.1132 264.757 92.7681 264.91 92.7386 265.01Z" fill="#263238"/>
<path d="M95.052 266.071C95.0756 266.177 94.5918 266.348 94.2024 266.796C93.8012 267.233 93.6891 267.729 93.577 267.723C93.4708 267.735 93.4236 267.091 93.9192 266.543C94.4089 265.988 95.052 265.97 95.052 266.071Z" fill="#263238"/>
<path d="M96.276 268.938C96.1757 268.956 96.0459 268.407 96.3468 267.817C96.6477 267.227 97.1728 267.009 97.2141 267.103C97.2731 267.198 96.925 267.504 96.6831 267.988C96.4353 268.472 96.3822 268.932 96.276 268.938Z" fill="#263238"/>
<path d="M92.644 262.365C92.5968 262.466 92.1011 262.295 91.4757 262.312C90.8562 262.318 90.3666 262.507 90.3135 262.413C90.2545 262.33 90.7382 261.946 91.4698 261.935C92.2014 261.911 92.703 262.283 92.644 262.365Z" fill="#263238"/>
<g opacity="0.3">
<path opacity="0.3" d="M93.0631 255.877L92.9097 257.93L81.9062 257.399L81.9829 255.027L93.0631 255.877Z" fill="black"/>
</g>
<path d="M92.78 260.037C92.78 260.084 92.3434 260.131 91.659 259.99C91.3168 259.919 90.9156 259.789 90.4967 259.583C90.2902 259.482 90.0778 259.358 89.8654 259.217C89.7651 259.146 89.6471 259.075 89.535 258.94C89.417 258.822 89.358 258.527 89.5055 258.355C89.6294 258.19 89.83 258.119 89.9952 258.125C90.1604 258.125 90.2902 258.167 90.4141 258.202C90.6619 258.273 90.892 258.361 91.1044 258.468C91.5233 258.68 91.8655 258.94 92.1133 259.187C92.6148 259.689 92.7741 260.102 92.7387 260.125C92.6856 260.161 92.4496 259.807 91.9363 259.388C91.6826 259.181 91.3522 258.963 90.9569 258.786C90.7622 258.698 90.5439 258.621 90.3197 258.562C90.0837 258.491 89.8831 258.479 89.8182 258.586C89.7946 258.627 89.7887 258.639 89.8359 258.709C89.8831 258.774 89.9775 258.839 90.0778 258.91C90.2725 259.046 90.4672 259.17 90.656 259.27C91.0395 259.476 91.4053 259.624 91.7239 259.73C92.3611 259.931 92.78 259.978 92.78 260.037Z" fill="#263238"/>
<path d="M92.6252 260.188C92.5839 260.206 92.3833 259.805 92.3715 259.091C92.3656 258.737 92.4187 258.312 92.5721 257.87C92.6488 257.645 92.755 257.421 92.8848 257.197C93.0264 256.979 93.1975 256.69 93.6223 256.66C93.8465 256.66 94.0235 256.843 94.0766 256.991C94.1474 257.144 94.1533 257.274 94.1769 257.404C94.2064 257.669 94.1946 257.923 94.1474 258.159C94.0589 258.631 93.8465 259.02 93.6223 259.297C93.1621 259.858 92.7019 259.976 92.6901 259.935C92.6547 259.876 93.0441 259.681 93.404 259.138C93.581 258.867 93.7403 258.513 93.7993 258.1C93.8288 257.893 93.8347 257.675 93.8052 257.451C93.7816 257.209 93.699 257.014 93.6046 257.038C93.4925 257.032 93.2978 257.203 93.1975 257.392C93.0736 257.586 92.9733 257.787 92.8966 257.988C92.7432 258.389 92.6665 258.772 92.637 259.097C92.5898 259.758 92.6901 260.171 92.6252 260.188Z" fill="#263238"/>
<path d="M70.046 129.384C70.046 129.384 66.4883 129.537 64.146 141.65C61.8037 153.757 43.7969 251.856 43.7969 251.856L56.8418 251.974L81.4448 158.707L79.8105 254.853L93.0619 255.868C93.0619 255.868 103.003 149.497 103.098 143.308C103.216 135.591 98.7849 127.785 98.7849 127.785L70.046 129.384Z" fill="#263238"/>
<path d="M87.975 128.352C88.0576 128.369 86.7065 135.284 84.9542 143.798C83.2019 152.311 81.7151 159.203 81.6325 159.185C81.5499 159.167 82.901 152.252 84.6533 143.733C86.3997 135.225 87.8924 128.334 87.975 128.352Z" fill="#455A64"/>
<path d="M90.0073 130.079C89.9837 130.049 90.3613 129.937 90.7625 130.297C90.9513 130.474 91.1342 130.763 91.1165 131.129C91.1106 131.507 90.8274 131.867 90.4498 132.026C90.0781 132.185 89.6179 132.138 89.3406 131.878C89.0633 131.631 88.9866 131.294 88.9925 131.041C89.0161 130.498 89.3583 130.309 89.3642 130.344C89.4055 130.374 89.1695 130.598 89.2108 131.035C89.2285 131.241 89.3229 131.501 89.5235 131.66C89.7182 131.825 90.0427 131.861 90.3259 131.737C90.615 131.613 90.8156 131.365 90.8333 131.105C90.8569 130.846 90.7389 130.604 90.6032 130.445C90.3259 130.114 90.0014 130.126 90.0073 130.079Z" fill="#455A64"/>
<path d="M89.4438 134.869C89.4379 134.834 89.8096 134.881 90.0161 135.359C90.1046 135.583 90.1459 135.914 89.9807 136.226C89.8155 136.551 89.4143 136.74 89.0249 136.704C88.6355 136.681 88.2638 136.427 88.1517 136.085C88.0337 135.748 88.1281 135.43 88.252 135.223C88.5293 134.781 88.9069 134.793 88.8951 134.828C88.9128 134.875 88.6178 134.946 88.4467 135.324C88.3641 135.506 88.3228 135.76 88.4231 135.984C88.5116 136.209 88.7653 136.38 89.0544 136.403C89.3494 136.427 89.6208 136.297 89.7447 136.091C89.8745 135.884 89.8745 135.624 89.8214 135.436C89.6975 135.029 89.4143 134.911 89.4438 134.869Z" fill="#455A64"/>
<path d="M76.9437 130.199C76.9614 130.205 76.9142 130.424 76.7903 130.807C76.6664 131.191 76.4422 131.733 76.1 132.371C75.4274 133.639 74.1707 135.279 72.3122 136.501C70.4537 137.728 68.4536 138.229 67.0199 138.347C66.3001 138.412 65.716 138.4 65.3148 138.365C64.9136 138.33 64.6953 138.288 64.6953 138.271C64.6953 138.212 65.5862 138.312 66.9963 138.135C68.4005 137.964 70.3357 137.439 72.1411 136.247C73.9465 135.055 75.1973 133.486 75.9053 132.264C76.631 131.037 76.8906 130.182 76.9437 130.199Z" fill="#455A64"/>
<path d="M102.326 138.805C102.315 138.823 102.173 138.74 101.937 138.569C101.695 138.404 101.365 138.132 100.993 137.761C100.244 137.023 99.3528 135.825 98.7687 134.315C98.1905 132.805 98.043 131.318 98.1079 130.268C98.1374 129.742 98.1964 129.318 98.2672 129.034C98.3321 128.745 98.3793 128.592 98.397 128.598C98.4501 128.61 98.3262 129.241 98.3262 130.273C98.3203 131.3 98.4973 132.734 99.0578 134.203C99.6242 135.666 100.456 136.846 101.152 137.607C101.837 138.368 102.356 138.758 102.326 138.805Z" fill="#455A64"/>
<path d="M64.8578 106.056L70.6516 106.374C71.0174 108.251 72.2918 111.124 72.2918 111.124C76.9587 103.029 80.5754 92.1789 81.4722 87.8188C81.3424 87.3822 81.189 86.9043 80.9943 86.3615C80.7701 85.742 80.9648 84.562 81.0651 83.9071C81.2244 82.9336 81.4958 81.6297 81.5725 81.0279C81.8203 79.1871 82.1153 78.898 82.7584 79.1045C83.6316 79.3877 82.3985 84.2788 83.1183 84.385C83.5018 84.444 83.9738 82.7684 84.1095 81.3937C84.2452 80.019 84.8706 75.7887 85.3249 75.5114C85.9916 75.0984 86.5698 75.7533 86.4046 77.1221C86.2335 78.5086 86.0211 82.6386 86.7468 82.6976C87.4607 82.7507 88.0625 75.7415 88.0625 75.7415C88.0625 75.7415 87.9504 74.2134 88.7882 74.2547C90.3045 74.3196 89.1186 81.7123 88.9888 82.4144C88.9003 82.9041 89.685 82.9926 89.7558 82.4616C89.8266 81.9188 90.1924 75.4524 91.7382 75.5055C92.9241 75.5468 90.8178 81.5943 91.4845 82.9985C92.1512 84.4027 92.6114 78.2372 93.7442 78.3198C94.1631 78.3493 94.4758 78.4319 93.7029 81.9247C93.284 83.8009 92.0627 87.2465 90.9948 90.1021C89.2012 99.7781 81.3306 130.73 68.9819 125.066C62.073 121.897 58.8516 106.197 58.8516 106.197L64.8578 106.056Z" fill="#FFBE9D"/>
<path d="M91.002 90.0978C90.9961 90.0978 91.0138 90.0211 91.061 89.8854C91.1141 89.732 91.1849 89.5255 91.2675 89.2777C91.4622 88.7172 91.7336 87.9384 92.0758 86.9413C92.418 85.9265 92.8428 84.6816 93.2617 83.2184C93.4741 82.4868 93.6511 81.6962 93.8163 80.8525C93.893 80.4277 93.9756 79.9911 94.0228 79.5427C94.0464 79.3185 94.07 79.0884 94.0523 78.8701C94.0346 78.64 93.9992 78.4512 93.8163 78.4512C93.6275 78.3981 93.5036 78.5574 93.3738 78.7521C93.2558 78.9468 93.1614 79.1769 93.0788 79.407C92.9136 79.8731 92.7838 80.3687 92.654 80.8702C92.5242 81.3776 92.4062 81.8968 92.2528 82.4278C92.1584 82.6933 92.1171 82.9529 91.8988 83.242C91.8575 83.2774 91.8221 83.3246 91.7395 83.3423C91.651 83.3659 91.5802 83.3305 91.5153 83.2951C91.4327 83.2184 91.3914 83.1417 91.3501 83.0709C91.2852 82.9234 91.2439 82.77 91.2262 82.6225C91.12 81.4366 91.3914 80.292 91.5743 79.1061C91.6746 78.5161 91.7808 77.9143 91.8634 77.3066C91.8988 77.0057 91.9342 76.6989 91.9342 76.398C91.946 76.1207 91.8988 75.7431 91.7749 75.69C91.6215 75.631 91.3501 75.8021 91.2085 76.0558C91.0433 76.3036 90.9253 76.5927 90.825 76.8936C90.6185 77.4954 90.4887 78.1326 90.3707 78.7816C90.2586 79.4306 90.1701 80.0914 90.0993 80.764C90.0639 81.1003 90.0344 81.4366 89.999 81.7788L89.9518 82.2921C89.94 82.4337 89.94 82.7228 89.7158 82.888C89.5093 83.0414 89.2379 83.0591 89.0196 82.9175C88.9075 82.8467 88.8249 82.7169 88.8072 82.5812C88.7954 82.5163 88.8072 82.4514 88.8131 82.3924L88.8367 82.2685C88.8898 81.9263 88.9429 81.5841 88.996 81.236C89.0904 80.5457 89.1789 79.8436 89.2438 79.1356C89.3087 78.4276 89.3618 77.7137 89.3677 76.9998C89.3677 76.2918 89.3618 75.5484 89.1612 74.8994C89.0963 74.7047 88.9842 74.5218 88.8662 74.4746C88.7423 74.4274 88.5594 74.4746 88.465 74.6044C88.2585 74.8935 88.229 75.3655 88.2408 75.749V75.7667V75.7785C88.1169 77.165 87.9635 78.5279 87.7629 79.8672C87.6626 80.5339 87.5505 81.2006 87.3794 81.8555C87.3381 82.0207 87.285 82.1859 87.2319 82.3452C87.1552 82.5104 87.1316 82.6756 86.8956 82.8526C86.695 82.947 86.5416 82.8408 86.4649 82.7582C86.3764 82.6697 86.341 82.5812 86.3056 82.4927C86.2348 82.3216 86.2053 82.1505 86.1758 81.9853C85.987 80.6578 86.0637 79.3775 86.1404 78.1208C86.164 77.4895 86.3174 76.8641 86.2348 76.3095C86.1935 76.0381 86.0873 75.7608 85.9044 75.6369C85.8159 75.5779 85.7097 75.5661 85.6035 75.5897C85.5504 75.6074 85.4914 75.6251 85.4383 75.6605C85.3852 75.7077 85.397 75.69 85.3557 75.7608C85.1256 76.2446 85.0135 76.8523 84.8896 77.401C84.7716 77.9674 84.6772 78.5279 84.5828 79.0825C84.4943 79.6371 84.4117 80.1858 84.3409 80.7227C84.2701 81.2596 84.2288 81.8024 84.1285 82.3275C84.0282 82.8526 83.9043 83.3659 83.7155 83.8556C83.6683 83.9795 83.6093 84.0975 83.5444 84.2155C83.4618 84.3276 83.4146 84.4692 83.1904 84.54C83.0606 84.5754 82.9485 84.4869 82.8895 84.4161C82.8423 84.3394 82.8187 84.2686 82.7951 84.1978C82.7656 84.0621 82.7538 83.9323 82.7479 83.8025C82.7361 82.7995 82.8836 81.8732 82.9367 80.9823C82.9662 80.5398 82.9839 80.1032 82.9308 79.702C82.9072 79.5132 82.8423 79.289 82.7361 79.2477C82.5768 79.1828 82.3762 79.1533 82.2582 79.2359C81.9986 79.4247 81.9042 79.8554 81.8216 80.2035C81.739 80.5693 81.6977 80.9292 81.6328 81.2773C81.385 82.6756 81.1254 83.8733 81.0015 84.8527C80.9425 85.3424 80.9189 85.7849 80.9838 86.1507C81.0664 86.5106 81.1844 86.8233 81.2552 87.0711C81.326 87.3071 81.3791 87.4959 81.4263 87.6434C81.4617 87.7732 81.4794 87.8381 81.4735 87.8381C81.4676 87.8381 81.4381 87.7791 81.3909 87.6493C81.3378 87.5077 81.2729 87.3189 81.1903 87.0888C81.1077 86.8351 80.9838 86.5519 80.8835 86.1625C80.8068 85.779 80.8186 85.3247 80.8658 84.8291C80.972 83.832 81.2139 82.6402 81.4381 81.2419C81.503 80.8938 81.5325 80.5221 81.6151 80.1504C81.6564 79.9616 81.6977 79.7728 81.7685 79.5781C81.8452 79.3893 81.9219 79.1769 82.1402 79.0353C82.3703 78.8937 82.624 78.9468 82.8364 79.0235C83.1137 79.1828 83.1255 79.4483 83.1727 79.6548C83.2317 80.0973 83.214 80.5398 83.1904 80.9882C83.1491 81.885 83.0075 82.8231 83.0252 83.7789C83.0311 83.8969 83.0429 84.009 83.0665 84.1152C83.0901 84.2273 83.1491 84.2745 83.1373 84.2509C83.1609 84.2568 83.2494 84.1506 83.2966 84.0621C83.3497 83.9618 83.4028 83.8497 83.4441 83.7376C83.6211 83.2774 83.7391 82.7759 83.8335 82.2626C83.9338 81.7552 83.9633 81.2183 84.0341 80.6755C84.099 80.1327 84.1816 79.584 84.2642 79.0235C84.3527 78.463 84.4471 77.9025 84.5651 77.3302C84.6949 76.7579 84.7775 76.1856 85.0607 75.5897C85.0784 75.5307 85.2023 75.395 85.2672 75.3596C85.3439 75.3124 85.4265 75.2829 85.515 75.2534C85.6979 75.2062 85.9162 75.2298 86.0814 75.3419C86.4059 75.572 86.5062 75.926 86.5652 76.2446C86.6124 76.5691 86.6006 76.8936 86.5593 77.2063C86.5239 77.5072 86.5003 77.8199 86.4767 78.1267C86.4059 79.3598 86.3351 80.6519 86.518 81.9086C86.5475 82.062 86.577 82.2154 86.6301 82.3452C86.6596 82.4042 86.6891 82.4691 86.7186 82.4986C86.7363 82.5222 86.7422 82.5163 86.7481 82.5222C86.7363 82.6579 86.7481 82.5517 86.7422 82.5812C86.7422 82.5576 86.7363 82.5576 86.7186 82.5281C86.7481 82.5045 86.8425 82.3393 86.8897 82.2036C86.9428 82.0561 86.99 81.9027 87.0254 81.7434C87.1847 81.1121 87.2968 80.4572 87.3971 79.7905C87.5918 78.463 87.7452 77.1001 87.8691 75.7254V75.7549C87.8632 75.3006 87.8573 74.8286 88.17 74.3566C88.3529 74.1265 88.6833 73.9967 88.996 74.1147C89.3028 74.2563 89.4149 74.5336 89.5034 74.7578C89.7394 75.513 89.7276 76.2505 89.7335 76.9821C89.7217 77.7137 89.6745 78.4335 89.6037 79.1474C89.5329 79.8613 89.4503 80.5634 89.35 81.2655C89.2969 81.6136 89.2438 81.9617 89.1907 82.3098C89.1494 82.5281 89.1553 82.534 89.2202 82.5989C89.291 82.652 89.4267 82.6461 89.4975 82.5871C89.5742 82.534 89.5801 82.4337 89.5978 82.2449L89.645 81.7316C89.6804 81.3894 89.7158 81.0472 89.7453 80.7109C89.822 80.0324 89.9105 79.3657 90.0285 78.7049C90.1465 78.0441 90.2822 77.3951 90.5005 76.7638C90.6126 76.4511 90.7365 76.1384 90.9312 75.8493C91.0315 75.7077 91.1436 75.5661 91.3088 75.4599C91.4799 75.3596 91.6687 75.2711 91.9224 75.3714C92.1643 75.5012 92.2056 75.7254 92.2469 75.8906C92.2705 76.0617 92.2823 76.2328 92.2764 76.3921C92.2705 76.7166 92.2351 77.0293 92.1938 77.342C92.1112 77.9615 91.9991 78.5633 91.8988 79.1533C91.7041 80.3274 91.4386 81.4956 91.533 82.5753C91.5448 82.7051 91.5802 82.829 91.6274 82.9352C91.6569 82.9883 91.6864 83.0355 91.7041 83.0532C91.7041 83.0473 91.6982 83.0414 91.6923 83.0768C91.6864 83.124 91.6923 83.065 91.6864 83.0768C91.6628 83.0414 91.6805 83.0532 91.6923 83.0355C91.8162 82.8821 91.9047 82.5871 91.9814 82.3452C92.1348 81.8319 92.2587 81.3068 92.3885 80.7994C92.5183 80.292 92.654 79.7905 92.831 79.3126C92.9195 79.0707 93.0139 78.8347 93.1555 78.6105C93.2322 78.4984 93.303 78.3863 93.4269 78.2978C93.48 78.2506 93.5626 78.2152 93.6393 78.1916C93.7337 78.1798 93.8045 78.1798 93.8635 78.1916C94.0051 78.1975 94.188 78.3214 94.2352 78.463C94.2942 78.5987 94.306 78.7285 94.3119 78.8524C94.3237 79.1002 94.2942 79.3362 94.2706 79.5663C94.2175 80.0265 94.129 80.4631 94.0464 80.8879C93.8753 81.7375 93.6865 82.5399 93.4623 83.2656C93.0198 84.7288 92.5773 85.9678 92.2115 86.9767C91.8457 87.9856 91.5448 88.7644 91.3383 89.2895C91.238 89.5373 91.1613 89.732 91.0964 89.8854C91.0374 90.0329 91.0079 90.0978 91.002 90.0978Z" fill="#EB996E"/>
<path d="M58.793 106.723C59.914 110.676 62.1029 116.789 64.457 123.231C64.7992 124.164 66.0913 124.223 66.5161 123.326L72.2863 111.125C72.2863 111.125 70.8939 101.1 71.0119 101.454C71.1299 101.808 59.0998 102.752 59.0998 102.752L58.793 106.723Z" fill="#6088F0"/>
<path d="M71.7974 104.761C71.8092 104.808 71.0776 105.021 69.9389 105.457C68.7943 105.894 67.2485 106.584 65.6555 107.546C64.0625 108.514 62.735 109.564 61.8205 110.378C60.906 111.192 60.3809 111.741 60.3455 111.705C60.3278 111.694 60.4458 111.54 60.67 111.275C60.8883 111.009 61.2364 110.649 61.6789 110.219C62.5639 109.357 63.8855 108.266 65.5021 107.28C67.1187 106.301 68.6999 105.634 69.8681 105.251C70.4522 105.056 70.936 104.92 71.2723 104.85C71.6027 104.773 71.7915 104.738 71.7974 104.761Z" fill="#FAFAFA"/>
<path d="M74.0858 107.802C74.0563 107.826 73.661 107.36 73.1241 106.54C72.5872 105.72 71.9146 104.534 71.3423 103.153C70.77 101.767 70.4042 100.457 70.2036 99.4952C70.003 98.5335 69.9558 97.9317 69.9912 97.9258C70.0384 97.9199 70.1623 98.5099 70.416 99.448C70.6638 100.386 71.0591 101.672 71.6255 103.035C72.1919 104.404 72.8232 105.59 73.3129 106.428C73.7908 107.266 74.1212 107.773 74.0858 107.802Z" fill="#263238"/>
<path d="M77.9327 53.7466C75.9149 57.0093 75.4842 61.2337 76.8058 64.8445C77.3958 66.467 78.3398 68.0659 78.1687 69.7887C77.9917 71.5528 76.6583 73.2166 77.1303 74.9217C77.4076 75.9306 78.2749 76.6799 78.6053 77.6711C78.9947 78.8334 78.5876 80.096 78.4047 81.3055C77.9327 84.3971 78.918 87.5005 79.1658 90.6216C79.4077 93.7368 78.5699 97.3889 75.791 98.7459C74.9473 99.1589 73.844 99.2769 73.1419 98.6456C72.251 97.8432 72.4988 96.4095 72.7407 95.2295C75.1833 83.4177 67.6372 71.9127 69.36 59.9711C69.6373 58.0595 70.7052 54.8086 72.0858 53.4693C73.4664 52.13 77.2719 52.2952 78.5758 53.7053" fill="#263238"/>
<path d="M66.3096 87.9766C66.286 87.9589 66.6636 87.5518 67.1946 86.714C67.7256 85.8821 68.3864 84.5841 68.7345 82.8495C68.9056 81.9822 68.9764 81.0205 68.9174 79.9821C68.8702 78.9437 68.7286 77.8227 68.7935 76.6309C68.8171 76.035 68.9469 75.4214 69.1298 74.8255C69.3363 74.2296 69.6136 73.6514 69.9381 73.0909C70.5989 71.9758 71.4367 70.9374 72.1978 69.8223C72.9648 68.7131 73.5961 67.5449 73.8026 66.3059C74.0091 65.0669 73.7849 63.8397 73.5961 62.6833C73.3896 61.5269 73.248 60.3882 73.3365 59.3321C73.4014 58.276 73.6138 57.3025 73.9029 56.4529C74.4811 54.7478 75.3366 53.5324 75.9856 52.7831C76.3101 52.4055 76.5874 52.1282 76.788 51.9571C76.9827 51.7801 77.0889 51.6975 77.1007 51.7034C77.1243 51.727 76.7054 52.0869 76.08 52.8598C75.4664 53.6268 74.6522 54.8363 74.1094 56.5237C73.8439 57.3615 73.6492 58.3173 73.5902 59.3498C73.5194 60.3882 73.661 61.4856 73.8734 62.642C74.0681 63.7925 74.31 65.0492 74.0976 66.359C73.8852 67.6629 73.2244 68.8842 72.4515 69.9993C71.6786 71.1262 70.8408 72.1587 70.1977 73.2443C69.8732 73.7871 69.6077 74.3476 69.4071 74.9199C69.2301 75.4922 69.1003 76.0704 69.0708 76.6545C68.9941 77.8109 69.1298 78.926 69.1652 79.9762C69.2183 81.0264 69.1298 82.0235 68.941 82.9026C68.5575 84.6667 67.8495 85.9706 67.289 86.7907C67.0058 87.2037 66.758 87.5046 66.5869 87.6993C66.4158 87.8822 66.3214 87.9825 66.3096 87.9766Z" fill="#455A64"/>
<path d="M60.7162 88.8575C60.7044 88.8516 60.7693 88.7159 60.8991 88.4622C61.0466 88.1849 61.2354 87.8132 61.4714 87.353C61.967 86.3913 62.7045 85.0048 63.4302 83.2171C64.1441 81.4353 64.8521 79.2051 64.8698 76.6622C64.8757 76.0309 64.8285 75.3819 64.7282 74.727C64.6279 74.0721 64.4745 73.4054 64.3742 72.7033C64.2798 72.0071 64.2326 71.2637 64.4214 70.5321C64.6043 69.7946 65.0645 69.1456 65.625 68.6382C66.7401 67.6293 68.0794 66.9685 68.7697 65.7826C69.4777 64.6203 69.637 63.2515 69.814 62.0007C69.9674 60.7322 70.2093 59.5109 70.6282 58.4371C71.0294 57.3574 71.5663 56.4193 72.1268 55.6228C73.2537 54.018 74.5045 53.0091 75.4072 52.4073C75.8615 52.1064 76.2273 51.8999 76.4869 51.776C76.7406 51.6521 76.8822 51.5872 76.8822 51.599C76.8999 51.6285 76.3512 51.8881 75.4721 52.5076C74.5989 53.133 73.3894 54.1537 72.3038 55.7467C71.7669 56.5373 71.2477 57.4636 70.8701 58.5256C70.4748 59.5817 70.2447 60.7676 70.0972 62.0361C69.9261 63.2928 69.7786 64.6911 69.0293 65.9419C68.28 67.2163 66.8876 67.8948 65.8374 68.8624C65.3064 69.3462 64.8934 69.9362 64.7223 70.6088C64.5512 71.2814 64.5866 71.9835 64.681 72.662C64.7754 73.3464 64.9229 74.0131 65.0232 74.6798C65.1235 75.3524 65.1707 76.0132 65.1589 76.6622C65.1176 79.2641 64.3801 81.512 63.6367 83.2997C62.8756 85.0933 62.1086 86.4621 61.5835 87.4061C61.3239 87.8545 61.1174 88.2144 60.9581 88.4858C60.8047 88.7395 60.728 88.8634 60.7162 88.8575Z" fill="#455A64"/>
<path d="M255.925 255.575C255.919 255.569 255.954 255.487 256.031 255.327C256.113 255.15 256.225 254.914 256.367 254.613C256.65 253.982 257.022 253.032 257.346 251.758C257.995 249.221 258.226 245.344 257.264 240.737C256.815 238.43 256.096 235.958 255.222 233.338C254.355 230.712 253.352 227.922 252.532 224.913C251.718 221.91 251.081 218.647 251.205 215.225C251.328 211.797 252.343 208.375 253.458 204.971C254.573 201.561 255.724 198.227 256.066 194.876C256.456 191.531 255.742 188.244 254.214 185.554C252.739 182.834 250.88 180.503 249.488 178.096C248.077 175.695 247.193 173.223 246.65 170.928C245.594 166.296 245.965 162.39 246.473 159.818C247.021 157.234 247.629 155.895 247.629 155.895C247.635 155.895 247.611 155.983 247.558 156.154C247.499 156.337 247.423 156.591 247.322 156.903C247.116 157.564 246.85 158.55 246.603 159.842C246.142 162.408 245.812 166.284 246.892 170.869C247.446 173.14 248.331 175.577 249.741 177.949C251.128 180.332 252.992 182.645 254.503 185.4C256.06 188.12 256.81 191.513 256.414 194.917C256.066 198.327 254.91 201.684 253.795 205.089C252.68 208.493 251.676 211.874 251.553 215.243C251.429 218.612 252.048 221.839 252.851 224.83C253.659 227.827 254.65 230.618 255.506 233.249C256.373 235.881 257.081 238.371 257.518 240.695C258.456 245.333 258.184 249.25 257.488 251.793C257.134 253.068 256.745 254.017 256.438 254.643C256.284 254.938 256.161 255.168 256.072 255.345C255.978 255.498 255.93 255.581 255.925 255.575Z" fill="#263238"/>
<path d="M251.375 180.475C251.375 180.475 248.549 171.448 253.617 166.161C253.794 165.978 254.107 166.061 254.154 166.315C254.426 167.801 254.762 172.344 251.375 180.475Z" fill="#6088F0"/>
<path d="M253.07 169.164C253.118 169.176 253.035 169.807 252.882 170.828C252.699 171.973 252.48 173.324 252.238 174.811C252.002 176.297 251.79 177.648 251.607 178.793C251.454 179.814 251.359 180.445 251.306 180.439C251.259 180.433 251.265 179.796 251.359 178.764C251.454 177.731 251.637 176.315 251.89 174.757C252.144 173.2 252.415 171.796 252.64 170.787C252.852 169.772 253.023 169.152 253.07 169.164Z" fill="#263238"/>
<path d="M254.691 201.767C254.691 201.767 256.42 192.463 263.37 190.162C263.612 190.079 263.848 190.304 263.772 190.551C263.311 191.997 261.488 196.168 254.691 201.767Z" fill="#6088F0"/>
<path d="M261.477 192.564C261.512 192.593 261.146 193.118 260.527 193.95C259.825 194.877 259.004 195.968 258.096 197.172C257.193 198.375 256.373 199.467 255.677 200.399C255.063 201.231 254.686 201.744 254.644 201.715C254.603 201.691 254.91 201.125 255.476 200.257C256.043 199.39 256.869 198.222 257.819 196.965C258.774 195.709 259.671 194.593 260.338 193.803C260.999 193 261.441 192.534 261.477 192.564Z" fill="#263238"/>
<path d="M252.813 225.1C252.813 225.1 251.763 215.695 257.745 211.477C257.958 211.329 258.247 211.477 258.241 211.73C258.223 213.247 257.687 217.766 252.813 225.1Z" fill="#6088F0"/>
<path d="M256.632 214.321C256.679 214.338 256.479 214.946 256.131 215.92C255.729 217.011 255.257 218.291 254.738 219.707C254.225 221.123 253.753 222.404 253.358 223.495C253.01 224.469 252.797 225.07 252.75 225.059C252.709 225.047 252.833 224.416 253.122 223.418C253.411 222.421 253.859 221.064 254.408 219.583C254.957 218.103 255.488 216.775 255.901 215.825C256.308 214.881 256.591 214.303 256.632 214.321Z" fill="#263238"/>
<path d="M258.049 248.571C258.049 248.571 257.335 239.137 263.465 235.131C263.678 234.99 263.967 235.149 263.955 235.403C263.884 236.919 263.188 241.421 258.049 248.571Z" fill="#6088F0"/>
<path d="M262.249 237.938C262.296 237.956 262.072 238.558 261.689 239.519C261.246 240.593 260.733 241.856 260.16 243.254C259.594 244.652 259.081 245.915 258.644 246.989C258.261 247.945 258.031 248.54 257.983 248.529C257.942 248.517 258.09 247.891 258.414 246.906C258.739 245.921 259.234 244.582 259.836 243.118C260.438 241.661 261.016 240.351 261.458 239.419C261.907 238.481 262.208 237.915 262.249 237.938Z" fill="#263238"/>
<path d="M247.315 172.539C247.315 172.539 238.931 168.161 238.766 160.84C238.76 160.58 239.043 160.421 239.255 160.568C240.5 161.43 243.958 164.403 247.315 172.539Z" fill="#6088F0"/>
<path d="M240.507 163.353C240.548 163.323 240.937 163.831 241.551 164.663C242.229 165.607 243.032 166.71 243.917 167.931C244.802 169.152 245.604 170.25 246.289 171.194C246.902 172.026 247.286 172.533 247.244 172.569C247.209 172.598 246.761 172.144 246.094 171.347C245.427 170.551 244.554 169.424 243.634 168.138C242.713 166.857 241.911 165.671 241.35 164.804C240.79 163.937 240.471 163.382 240.507 163.353Z" fill="#263238"/>
<path d="M256.325 191.931C256.325 191.931 247.687 188.067 247.08 180.774C247.056 180.521 247.333 180.344 247.552 180.473C248.844 181.258 252.472 184.007 256.325 191.931Z" fill="#6088F0"/>
<path d="M248.967 183.177C249.009 183.148 249.428 183.631 250.088 184.422C250.826 185.319 251.693 186.375 252.649 187.543C253.611 188.705 254.478 189.756 255.215 190.652C255.876 191.443 256.289 191.933 256.254 191.968C256.218 191.998 255.741 191.573 255.033 190.818C254.319 190.062 253.381 188.989 252.378 187.767C251.38 186.546 250.507 185.413 249.894 184.575C249.28 183.743 248.932 183.207 248.967 183.177Z" fill="#263238"/>
<path d="M251.349 213.56C251.349 213.56 245.419 206.19 248.198 199.417C248.299 199.181 248.617 199.146 248.753 199.364C249.555 200.65 251.532 204.757 251.349 213.56Z" fill="#6088F0"/>
<path d="M248.788 202.414C248.835 202.408 248.994 203.028 249.219 204.037C249.466 205.175 249.755 206.503 250.074 207.978C250.399 209.447 250.694 210.78 250.941 211.913C251.171 212.916 251.313 213.542 251.266 213.559C251.225 213.571 250.994 212.975 250.699 211.978C250.41 210.981 250.062 209.594 249.726 208.055C249.396 206.509 249.136 205.105 248.971 204.084C248.811 203.063 248.741 202.426 248.788 202.414Z" fill="#263238"/>
<path d="M257.225 239.013C257.225 239.013 248.653 235.007 248.169 227.703C248.151 227.449 248.428 227.272 248.647 227.414C249.927 228.216 253.508 231.03 257.225 239.013Z" fill="#6088F0"/>
<path d="M250.023 230.134C250.064 230.105 250.477 230.594 251.126 231.397C251.846 232.305 252.696 233.379 253.634 234.559C254.572 235.739 255.421 236.801 256.147 237.71C256.796 238.512 257.197 239.008 257.162 239.043C257.126 239.073 256.654 238.636 255.958 237.875C255.262 237.108 254.336 236.016 253.356 234.777C252.377 233.538 251.527 232.394 250.931 231.544C250.324 230.706 249.982 230.164 250.023 230.134Z" fill="#263238"/>
<path d="M274.296 201.821C274.302 201.821 274.308 201.891 274.308 202.027C274.302 202.192 274.296 202.393 274.29 202.635C274.266 203.201 274.231 203.968 274.19 204.93C274.078 206.948 273.924 209.756 273.741 213.119V213.125V213.137C273.128 216.559 271.387 220.353 269.045 224.04C267.328 226.754 265.528 229.22 263.971 231.515C262.407 233.805 261.086 235.923 260.171 237.799C259.245 239.675 258.708 241.286 258.395 242.413C258.242 242.979 258.13 243.416 258.065 243.722C257.994 244.023 257.953 244.183 257.941 244.177C257.929 244.177 257.947 244.012 257.994 243.705C258.035 243.398 258.13 242.95 258.26 242.377C258.537 241.233 259.044 239.598 259.947 237.693C260.844 235.787 262.154 233.639 263.705 231.332C265.245 229.02 267.039 226.553 268.75 223.851C271.08 220.187 272.815 216.447 273.446 213.078V213.096C273.682 209.733 273.877 206.924 274.019 204.912C274.095 203.956 274.16 203.189 274.201 202.623C274.225 202.381 274.243 202.186 274.26 202.021C274.278 201.886 274.29 201.815 274.296 201.821Z" fill="#263238"/>
<path d="M269.19 223.332C269.19 223.332 272.818 214.594 268.252 208.871C268.092 208.67 267.774 208.729 267.703 208.977C267.302 210.44 266.552 214.93 269.19 223.332Z" fill="#6088F0"/>
<path d="M268.529 211.922C268.576 211.916 268.688 212.547 268.818 213.574C268.948 214.601 269.09 216.022 269.202 217.598C269.314 219.173 269.367 220.601 269.367 221.639C269.367 222.678 269.314 223.315 269.267 223.315C269.213 223.315 269.178 222.678 269.119 221.645C269.042 220.489 268.948 219.126 268.848 217.621C268.741 216.117 268.647 214.754 268.564 213.598C268.505 212.565 268.482 211.928 268.529 211.922Z" fill="#263238"/>
<g opacity="0.3">
<g opacity="0.3">
<path opacity="0.3" d="M269.19 223.332C269.19 223.332 272.818 214.594 268.252 208.871C268.092 208.67 267.774 208.729 267.703 208.977C267.302 210.44 266.552 214.93 269.19 223.332Z" fill="black"/>
</g>
</g>
<path d="M257.952 244.392C257.952 244.392 260.86 235.388 255.845 230.055C255.668 229.866 255.356 229.954 255.308 230.202C255.025 231.689 254.642 236.232 257.952 244.392Z" fill="#6088F0"/>
<path d="M256.365 233.063C256.413 233.051 256.578 233.676 256.784 234.685C256.997 235.7 257.256 237.104 257.492 238.662C257.734 240.219 257.899 241.641 257.988 242.674C258.071 243.706 258.071 244.349 258.023 244.355C257.97 244.361 257.888 243.724 257.74 242.703C257.569 241.553 257.368 240.208 257.144 238.715C256.92 237.222 256.714 235.877 256.537 234.726C256.395 233.712 256.318 233.074 256.365 233.063Z" fill="#263238"/>
<g opacity="0.3">
<g opacity="0.3">
<path opacity="0.3" d="M257.952 244.392C257.952 244.392 260.86 235.388 255.845 230.055C255.668 229.866 255.356 229.954 255.308 230.202C255.025 231.689 254.642 236.232 257.952 244.392Z" fill="black"/>
</g>
</g>
<path d="M273.816 212.66C273.816 212.66 281.569 207.232 280.784 199.957C280.755 199.704 280.454 199.58 280.265 199.751C279.138 200.766 276.1 204.152 273.816 212.66Z" fill="#6088F0"/>
<g opacity="0.3">
<g opacity="0.3">
<path opacity="0.3" d="M273.816 212.66C273.816 212.66 281.569 207.232 280.784 199.957C280.755 199.704 280.454 199.58 280.265 199.751C279.138 200.766 276.1 204.152 273.816 212.66Z" fill="black"/>
</g>
</g>
<path d="M279.379 202.673C279.421 202.696 279.179 203.286 278.736 204.224C278.294 205.157 277.651 206.437 276.901 207.823C276.152 209.216 275.432 210.449 274.872 211.322C274.311 212.195 273.928 212.708 273.886 212.679C273.845 212.649 274.158 212.095 274.653 211.192C275.208 210.172 275.863 208.974 276.583 207.652C277.303 206.325 277.952 205.127 278.506 204.106C279.014 203.204 279.338 202.649 279.379 202.673Z" fill="#263238"/>
<path d="M261.078 235.465C261.078 235.465 270.424 234.008 272.931 227.129C273.02 226.887 272.801 226.645 272.554 226.716C271.096 227.129 266.872 228.834 261.078 235.465Z" fill="#6088F0"/>
<g opacity="0.3">
<g opacity="0.3">
<path opacity="0.3" d="M261.078 235.465C261.078 235.465 270.424 234.008 272.931 227.129C273.02 226.887 272.801 226.645 272.554 226.716C271.096 227.129 266.872 228.834 261.078 235.465Z" fill="black"/>
</g>
</g>
<path d="M270.469 228.952C270.499 228.994 270.015 229.413 269.207 230.062C268.398 230.705 267.26 231.572 265.974 232.487C264.687 233.407 263.496 234.198 262.611 234.734C261.726 235.271 261.153 235.56 261.13 235.519C261.106 235.472 261.631 235.112 262.475 234.522C263.425 233.849 264.54 233.065 265.767 232.197C266.994 231.324 268.109 230.534 269.053 229.861C269.903 229.265 270.44 228.911 270.469 228.952Z" fill="#263238"/>
<path d="M252.159 252.668L249.434 271.017H266.426L264.225 252.668H252.159Z" fill="#455A64"/>
<path d="M264.903 258.349C264.903 258.449 261.835 258.526 258.053 258.526C254.265 258.526 251.203 258.449 251.203 258.349C251.203 258.249 254.271 258.172 258.053 258.172C261.835 258.172 264.903 258.254 264.903 258.349Z" fill="#263238"/>
<path d="M265.238 259.81C265.238 259.91 262.07 259.987 258.164 259.987C254.252 259.987 251.09 259.91 251.09 259.81C251.09 259.71 254.258 259.633 258.164 259.633C262.07 259.633 265.238 259.71 265.238 259.81Z" fill="#263238"/>
<path d="M199.168 74.6594C199.168 74.6594 199.009 74.6653 198.708 74.6535C198.401 74.6417 197.953 74.6181 197.357 74.6594C196.177 74.7243 194.413 74.9485 192.33 75.8158C190.271 76.6831 187.864 78.223 185.946 80.7895C184.996 82.0698 184.2 83.6038 183.716 85.3502C183.25 87.0966 183.091 89.0318 183.315 91.026C183.569 93.0143 184.176 95.0675 185.291 96.9555C185.846 97.8995 186.501 98.814 187.297 99.6164C188.07 100.448 188.985 101.18 190.011 101.74C191.038 102.295 192.212 102.649 193.416 102.596C194.608 102.555 195.841 102.136 196.714 101.268C197.593 100.401 198.03 99.1326 198.03 97.87C198.035 96.5956 197.593 95.3271 196.832 94.2533C195.298 92.0998 192.826 90.6543 190.188 89.8696C187.528 89.0967 184.607 89.0731 181.81 89.7516C180.418 90.1115 179.055 90.6484 177.775 91.3564C176.495 92.0703 175.332 93.0025 174.312 94.0763C174.07 94.3595 173.792 94.6132 173.58 94.9141L172.913 95.8109C172.524 96.4481 172.129 97.0853 171.828 97.7815C171.202 99.1503 170.766 100.619 170.547 102.13C170.152 105.151 170.518 108.266 171.739 110.98C172.919 113.7 174.931 116.036 177.439 117.44C178.689 118.136 180.07 118.591 181.474 118.667C182.872 118.756 184.271 118.396 185.457 117.712C186.643 117.033 187.634 116.007 188.153 114.779C188.666 113.546 188.66 112.142 188.212 110.921C187.775 109.688 186.949 108.632 185.994 107.782C185.032 106.938 183.905 106.301 182.731 105.888C180.353 105.109 177.816 105.151 175.551 105.764C173.279 106.384 171.249 107.552 169.656 109.05C168.069 110.555 166.954 112.402 166.282 114.284C164.919 118.083 165.267 121.936 166.435 124.886C167.639 127.86 169.55 129.972 171.297 131.37C173.061 132.78 174.66 133.541 175.763 133.972C176.318 134.184 176.742 134.332 177.037 134.415C177.326 134.503 177.474 134.562 177.474 134.562C177.474 134.562 177.321 134.527 177.026 134.444C176.731 134.373 176.3 134.232 175.733 134.031C174.624 133.618 173.002 132.869 171.214 131.465C169.444 130.072 167.503 127.948 166.27 124.951C165.072 121.971 164.7 118.072 166.069 114.213C166.748 112.295 167.875 110.419 169.491 108.879C171.108 107.351 173.167 106.154 175.48 105.522C177.787 104.897 180.371 104.844 182.819 105.634C184.029 106.059 185.185 106.708 186.176 107.575C187.162 108.443 188.017 109.534 188.477 110.826C188.944 112.107 188.961 113.588 188.418 114.891C187.87 116.195 186.837 117.257 185.604 117.971C184.371 118.679 182.914 119.057 181.462 118.968C180.011 118.892 178.583 118.426 177.297 117.706C174.725 116.266 172.671 113.877 171.468 111.104C170.223 108.331 169.851 105.162 170.252 102.088C170.477 100.549 170.919 99.05 171.562 97.6576C171.869 96.9496 172.276 96.3006 172.671 95.6457L173.35 94.7253C173.568 94.4126 173.851 94.153 174.099 93.8698C175.143 92.7724 176.335 91.8225 177.639 91.0968C178.943 90.3711 180.33 89.8342 181.751 89.4625C184.601 88.7722 187.575 88.7958 190.289 89.5864C192.979 90.3888 195.498 91.8579 197.086 94.0881C197.87 95.1973 198.336 96.5307 198.325 97.8641C198.325 99.1916 197.864 100.531 196.92 101.457C195.982 102.383 194.684 102.82 193.439 102.855C192.183 102.903 190.955 102.531 189.905 101.959C188.849 101.38 187.917 100.625 187.132 99.7816C186.318 98.9556 185.657 98.0234 185.097 97.0676C183.97 95.1442 183.362 93.0556 183.114 91.0437C182.896 89.02 183.061 87.0612 183.545 85.2912C184.041 83.5271 184.855 81.9695 185.822 80.6774C187.775 78.0873 190.218 76.5533 192.301 75.6919C194.407 74.8305 196.189 74.6299 197.369 74.5827C197.965 74.5532 198.419 74.5827 198.726 74.6063C199.009 74.6417 199.168 74.6594 199.168 74.6594Z" fill="#263238"/>
<path d="M218.868 133.695H136.145V197.498H218.868V133.695Z" fill="#6088F0"/>
<path d="M136.145 133.695L151.426 147.95H232.745L218.868 133.695H136.145Z" fill="#6088F0"/>
<path d="M136.145 133.696C137.637 133.696 171.804 133.631 218.868 133.543H218.933L218.981 133.59C223.411 138.139 228.013 142.865 232.716 147.691C232.763 147.738 232.81 147.791 232.857 147.839L233.111 148.098H232.745C199.398 148.075 169.804 148.051 151.426 148.039H151.39L151.367 148.016C141.803 139.018 136.646 134.168 136.145 133.696C136.652 134.162 141.844 138.971 151.485 147.88L151.42 147.856C169.798 147.845 199.393 147.821 232.739 147.797L232.627 148.057C232.58 148.01 232.533 147.963 232.486 147.909C227.783 143.077 223.187 138.351 218.756 133.803L218.863 133.85C171.804 133.761 137.637 133.702 136.145 133.696Z" fill="#263238"/>
<path d="M160.996 163.117C160.123 163.117 159.321 163.908 159.309 164.781C159.291 165.654 160.064 166.468 160.937 166.504C161.81 166.533 162.642 165.778 162.69 164.905C162.737 164.032 161.999 163.188 161.126 163.123" fill="#263238"/>
<path d="M180.524 163.117C179.65 163.117 178.848 163.908 178.836 164.781C178.819 165.654 179.591 166.468 180.465 166.504C181.338 166.533 182.17 165.778 182.217 164.905C182.264 164.032 181.527 163.188 180.653 163.123" fill="#263238"/>
<path d="M180.651 178.385C180.563 178.421 180.433 176.786 179.011 174.716C178.315 173.689 177.27 172.597 175.884 171.718C174.509 170.833 172.757 170.202 170.869 170.131C168.981 170.096 167.199 170.633 165.777 171.441C164.343 172.243 163.246 173.276 162.491 174.261C160.963 176.25 160.739 177.872 160.656 177.831C160.644 177.831 160.662 177.73 160.703 177.553C160.756 177.376 160.792 177.099 160.921 176.769C161.134 176.096 161.57 175.152 162.32 174.126C163.063 173.099 164.178 172.025 165.636 171.187C167.087 170.344 168.922 169.777 170.875 169.819C172.828 169.889 174.627 170.556 176.031 171.476C177.441 172.397 178.498 173.53 179.182 174.592C179.878 175.654 180.256 176.621 180.433 177.306C180.545 177.642 180.568 177.919 180.604 178.102C180.651 178.291 180.663 178.385 180.651 178.385Z" fill="#263238"/>
<path opacity="0.5" d="M136.332 134.398L150.964 152.948H218.867V147.951H151.424L136.332 134.398Z" fill="black"/>
<path d="M202.556 197.357C202.473 197.357 202.402 186.259 202.402 172.571C202.402 158.877 202.473 147.785 202.556 147.785C202.638 147.785 202.709 158.883 202.709 172.571C202.715 186.259 202.644 197.357 202.556 197.357Z" fill="#263238"/>
<path d="M215.546 182.891H208.254V191.133H215.546V182.891Z" fill="#F5F5F5"/>
<path d="M136.144 133.695L119.164 147.95H136.144V133.695Z" fill="#6088F0"/>
<g opacity="0.4">
<path opacity="0.4" d="M136.144 133.695L119.164 147.95H136.144V133.695Z" fill="black"/>
</g>
<path d="M221.309 197.496H126.195V270.857H221.309V197.496Z" fill="#6088F0"/>
<path opacity="0.3" d="M221.309 197.496H126.195V270.857H221.309V197.496Z" fill="black"/>
<path d="M197.478 270.339C197.395 270.339 197.324 253.99 197.324 233.818C197.324 213.646 197.395 197.297 197.478 197.297C197.56 197.297 197.631 213.646 197.631 233.818C197.631 253.99 197.56 270.339 197.478 270.339Z" fill="#263238"/>
<path d="M213.246 254.16H205.953V262.402H213.246V254.16Z" fill="#F5F5F5"/>
<path d="M166.014 197.691H155.211V213.344H166.014V197.691Z" fill="#263238"/>
<path d="M166.014 254.988H155.211V270.641H166.014V254.988Z" fill="#263238"/>
<path d="M220.483 197.497C220.483 197.503 220.401 197.509 220.241 197.515C220.064 197.521 219.828 197.521 219.527 197.533C218.884 197.539 217.958 197.55 216.778 197.562C214.377 197.574 210.931 197.592 206.677 197.609C198.134 197.621 186.352 197.639 173.348 197.651C160.333 197.633 148.556 197.615 140.013 197.603C135.759 197.586 132.314 197.568 129.912 197.556C128.732 197.544 127.812 197.533 127.163 197.527C126.862 197.521 126.626 197.515 126.449 197.509C126.29 197.503 126.207 197.497 126.207 197.491C126.207 197.485 126.29 197.48 126.449 197.474C126.626 197.468 126.862 197.468 127.163 197.456C127.806 197.45 128.732 197.438 129.912 197.426C132.314 197.415 135.759 197.397 140.013 197.379C148.556 197.367 160.339 197.35 173.348 197.332C186.358 197.35 198.134 197.367 206.677 197.379C210.931 197.403 214.377 197.415 216.778 197.426C217.958 197.438 218.878 197.45 219.527 197.456C219.828 197.462 220.064 197.468 220.241 197.474C220.401 197.491 220.483 197.497 220.483 197.497Z" fill="#263238"/>
<path d="M57.4783 70.489C56.7939 70.3238 53.4958 69.5096 47.1238 67.9461L47.2005 67.9343C44.9231 69.3857 41.8374 70.5598 38.262 70.6129C36.4802 70.607 34.5981 70.3946 32.7219 69.8046C30.8457 69.2205 28.999 68.2529 27.3234 66.9431C23.9663 64.3471 21.3585 60.1876 20.7921 55.4027C20.503 53.025 20.6977 50.5234 21.4352 48.128C22.1904 45.7385 23.4884 43.4788 25.2407 41.5731C26.1257 40.5642 27.1759 39.7323 28.2379 38.9594C28.7984 38.6113 29.3471 38.2573 29.9253 37.9505L30.8044 37.5257L31.241 37.3133L31.6953 37.1481C34.1084 36.21 36.6749 35.8501 39.1411 36.0153C41.6073 36.1746 43.9732 36.8649 46.0382 37.9505C48.1091 39.0361 49.885 40.5111 51.2774 42.1808C52.6757 43.8564 53.6905 45.7267 54.3336 47.6147C54.9767 49.5086 55.2717 51.4084 55.2894 53.2079C55.313 56.8187 54.1802 59.9162 52.8055 62.1818V62.0874C55.7024 67.2853 57.1538 69.9108 57.4783 70.489C57.1479 69.9167 55.6434 67.3207 52.658 62.1818L52.6285 62.1346L52.658 62.0874C53.9973 59.8395 55.0888 56.7715 55.0475 53.2138C55.0239 51.4438 54.723 49.5676 54.0799 47.7091C53.4368 45.8506 52.4338 44.0157 51.0532 42.3755C49.6785 40.7353 47.9321 39.2957 45.8966 38.2337C43.867 37.1717 41.5483 36.4991 39.1234 36.3457C36.7044 36.1864 34.1851 36.5463 31.8251 37.4667L31.3767 37.6319L30.946 37.8384L30.0846 38.2573C29.5182 38.5582 28.9813 38.9063 28.4267 39.2485C27.3824 40.0037 26.3558 40.8238 25.4885 41.8091C23.7716 43.6735 22.4972 45.8919 21.7538 48.2342C21.0281 50.5824 20.8334 53.0309 21.1166 55.3673C21.6653 60.0637 24.2141 64.1524 27.5063 66.713C29.1524 68.0051 30.9578 68.9609 32.8045 69.545C34.6512 70.1291 36.5038 70.3474 38.2561 70.3651C41.7784 70.3297 44.8287 69.191 47.0943 67.775L47.1297 67.7514L47.171 67.7632C53.5135 69.4388 56.7939 70.3061 57.4783 70.489Z" fill="#263238"/>
<path d="M36.5571 45.61L37.1058 54.2594C37.153 54.9674 37.7135 55.5279 38.4215 55.5692C39.1649 55.6164 39.8198 55.0677 39.9024 54.3243L40.8641 45.6277C40.9349 44.9669 40.4157 44.3946 39.7549 44.4064L37.6427 44.4359C37.0114 44.4477 36.5158 44.9846 36.5571 45.61Z" fill="#6088F0"/>
<path d="M40.7153 60.4424C40.3495 61.5516 39.1518 62.1475 38.0485 61.7817C36.9393 61.4159 36.3434 60.2182 36.7092 59.1149C37.075 58.0057 38.2727 57.4098 39.376 57.7756C40.4852 58.1355 41.0811 59.3332 40.7153 60.4424Z" fill="#6088F0"/>
</svg>
