<svg width="320" height="321" viewBox="0 0 320 321" fill="none" xmlns="http://www.w3.org/2000/svg">
<path d="M46.2582 124.904C45.0806 120.725 39.6406 121.128 39.6406 121.128L39.7878 124.033C42.9302 123.489 44.8822 127.176 44.8822 127.176L46.2582 124.904Z" fill="#E0E0E0"/>
<path d="M126.068 76.6223C132.372 78.5295 136.295 71.2591 136.295 71.2591L132.462 69.0703C130.587 73.5247 124.289 73.0063 124.289 73.0063L126.068 76.6223Z" fill="#E0E0E0"/>
<path d="M178.392 115.658C177.17 112.183 172.594 112.81 172.594 112.81L172.875 115.261C175.506 114.634 177.349 117.648 177.349 117.648L178.392 115.658Z" fill="#E0E0E0"/>
<path d="M106.087 34.2163C104.865 30.7411 100.289 31.3683 100.289 31.3683L100.571 33.8195C103.201 33.1923 105.044 36.2067 105.044 36.2067L106.087 34.2163Z" fill="#E0E0E0"/>
<path d="M51.4703 78.7046C50.2479 75.2294 45.6719 75.8566 45.6719 75.8566L45.9535 78.3078C48.5839 77.6806 50.4271 80.695 50.4271 80.695L51.4703 78.7046Z" fill="#EBEBEB"/>
<path d="M39.9955 46.2031C36.3603 46.7983 36.1875 51.4191 36.1875 51.4191L38.6515 51.5727C38.4915 48.8719 41.7811 47.5791 41.7811 47.5791L39.9955 46.2031Z" fill="#EBEBEB"/>
<path d="M13.8183 154.35C20.1223 156.257 24.0455 148.987 24.0455 148.987L20.2119 146.805C18.3367 151.259 12.0391 150.741 12.0391 150.741L13.8183 154.35Z" fill="#EBEBEB"/>
<path d="M193.412 77.0244C193.84 74.106 190.359 72.8516 190.359 72.8516L189.648 74.6948C191.748 75.226 191.94 78.0548 191.94 78.0548L193.412 77.0244Z" fill="#E0E0E0"/>
<path d="M172.452 44.9609C169.994 46.5929 171.383 50.0233 171.383 50.0233L173.233 49.3257C172.228 47.4057 174.206 45.3833 174.206 45.3833L172.452 44.9609Z" fill="#EBEBEB"/>
<path d="M294.41 117.231C294.442 117.244 294.365 117.513 294.128 117.948C293.891 118.383 293.494 118.998 292.861 119.631C292.227 120.265 291.338 120.911 290.192 121.295C289.053 121.686 287.696 121.756 286.352 121.487C285.008 121.231 283.76 120.688 282.838 119.907C281.904 119.139 281.354 118.166 281.034 117.327C280.72 116.483 280.624 115.759 280.598 115.26C280.579 114.761 280.624 114.486 280.656 114.492C280.739 114.479 280.675 115.606 281.341 117.199C281.68 117.98 282.23 118.87 283.114 119.567C283.984 120.278 285.149 120.771 286.435 121.014C287.715 121.27 288.989 121.212 290.058 120.867C291.133 120.534 291.997 119.951 292.63 119.375C293.898 118.217 294.346 117.193 294.41 117.231Z" fill="white"/>
<path d="M303.405 291.17C303.405 291.26 237.76 291.337 156.807 291.337C75.8209 291.337 10.1953 291.26 10.1953 291.17C10.1953 291.081 75.8273 291.004 156.807 291.004C237.767 291.004 303.405 291.074 303.405 291.17Z" fill="#263238"/>
<path d="M177.025 93.8359H20.9609V216.012H177.025V93.8359Z" fill="#FAFAFA"/>
<path d="M177.027 216.006C177.027 214.861 176.97 167.539 176.886 93.8305L177.027 93.9713C132.554 93.9777 78.8257 93.9905 20.9761 93.9969H20.9633L21.1297 93.8305C21.1233 137.888 21.1169 179.546 21.1105 216.006L20.9633 215.859C113.61 215.949 175.715 216.006 177.027 216.006C175.715 216.006 113.61 216.07 20.9633 216.154H20.8161V216.006C20.8097 179.552 20.8033 137.888 20.7969 93.8305V93.6641H20.9633H20.9761C78.8257 93.6769 132.554 93.6833 177.027 93.6897H177.168V93.8305C177.085 167.539 177.027 214.861 177.027 216.006Z" fill="#263238"/>
<path d="M60.416 157.936C61.711 157.936 62.677 157.173 62.859 156.018H61.683C61.543 156.529 61.074 156.844 60.437 156.844C59.604 156.844 59.086 156.235 59.086 155.262C59.086 154.275 59.597 153.68 60.437 153.68C61.06 153.68 61.501 153.974 61.655 154.492H62.852C62.691 153.33 61.76 152.588 60.465 152.588C58.918 152.588 57.889 153.652 57.889 155.269C57.889 156.907 58.862 157.936 60.416 157.936ZM63.2954 156.095C63.2954 157.201 64.1074 157.936 65.2274 157.936C66.3404 157.936 67.1524 157.201 67.1524 156.095C67.1524 154.989 66.3404 154.247 65.2274 154.247C64.1074 154.247 63.2954 154.989 63.2954 156.095ZM64.3804 156.088C64.3804 155.563 64.7234 155.213 65.2274 155.213C65.7244 155.213 66.0674 155.563 66.0674 156.088C66.0674 156.62 65.7244 156.97 65.2274 156.97C64.7234 156.97 64.3804 156.62 64.3804 156.088ZM68.8553 157.852V155.934C68.8553 155.5 69.1283 155.22 69.5553 155.22C69.9263 155.22 70.1713 155.507 70.1713 155.948V157.852H71.2493V155.689C71.2493 154.772 70.7663 154.24 69.9333 154.24C69.4783 154.24 69.0793 154.415 68.8623 154.716L68.7923 154.352H67.7773V157.852H68.8553ZM71.8475 156.039C71.8475 157.089 72.5265 157.81 73.5065 157.81C73.9615 157.81 74.3535 157.649 74.5635 157.397V157.852C74.5635 158.349 74.2345 158.657 73.7165 158.657C73.2405 158.657 72.9465 158.426 72.9255 158.034H71.8335C71.9315 159.028 72.6525 159.637 73.7235 159.637C74.9205 159.637 75.6415 158.881 75.6415 157.628V154.352H74.6265L74.5705 154.702C74.3815 154.415 74.0035 154.233 73.5275 154.233C72.5405 154.233 71.8475 154.975 71.8475 156.039ZM72.9325 156.011C72.9325 155.514 73.2615 155.171 73.7375 155.171C74.2345 155.171 74.5635 155.5 74.5635 156.011C74.5635 156.529 74.2345 156.872 73.7445 156.872C73.2685 156.872 72.9325 156.515 72.9325 156.011ZM78.8601 154.352C78.7131 154.317 78.5731 154.303 78.4471 154.303C77.9781 154.303 77.6701 154.534 77.5231 154.877L77.4671 154.359H76.4521V157.852H77.5301V156.333C77.5301 155.64 77.9011 155.367 78.5171 155.367H78.8601V154.352ZM80.3255 157.943C80.8505 157.943 81.3125 157.712 81.4245 157.39L81.4945 157.852H82.4465V155.808C82.4465 154.807 81.8725 154.24 80.8575 154.24C79.8565 154.24 79.2055 154.758 79.2055 155.549H80.1015C80.1015 155.234 80.3465 155.059 80.8015 155.059C81.1865 155.059 81.3965 155.241 81.3965 155.584V155.64L80.4165 155.717C79.5765 155.78 79.1215 156.179 79.1215 156.823C79.1215 157.509 79.5835 157.943 80.3255 157.943ZM80.7035 157.145C80.3745 157.145 80.2205 157.026 80.2205 156.774C80.2205 156.55 80.3885 156.445 80.8575 156.403L81.4035 156.354V156.543C81.4035 156.942 81.1165 157.145 80.7035 157.145ZM84.5995 157.852V155.248H85.2645V154.352H84.5995V153.267H83.5215V154.352H82.8565V155.248H83.5215V157.852H84.5995ZM88.073 154.352V156.172C88.073 156.746 87.884 156.984 87.422 156.984C86.981 156.984 86.785 156.732 86.785 156.158V154.352H85.707V156.55C85.707 157.411 86.197 157.943 86.995 157.943C87.415 157.943 87.849 157.747 88.066 157.46L88.136 157.852H89.151V154.352H88.073ZM91.038 157.852V152.574H89.96V157.852H91.038ZM92.9037 157.943C93.4287 157.943 93.8907 157.712 94.0027 157.39L94.0727 157.852H95.0247V155.808C95.0247 154.807 94.4507 154.24 93.4357 154.24C92.4347 154.24 91.7837 154.758 91.7837 155.549H92.6797C92.6797 155.234 92.9247 155.059 93.3797 155.059C93.7647 155.059 93.9747 155.241 93.9747 155.584V155.64L92.9947 155.717C92.1547 155.78 91.6997 156.179 91.6997 156.823C91.6997 157.509 92.1617 157.943 92.9037 157.943ZM93.2817 157.145C92.9527 157.145 92.7987 157.026 92.7987 156.774C92.7987 156.55 92.9667 156.445 93.4357 156.403L93.9817 156.354V156.543C93.9817 156.942 93.6947 157.145 93.2817 157.145ZM97.1777 157.852V155.248H97.8427V154.352H97.1777V153.267H96.0997V154.352H95.4347V155.248H96.0997V157.852H97.1777ZM98.8591 153.806C99.1951 153.806 99.4681 153.533 99.4681 153.19C99.4681 152.847 99.1951 152.581 98.8591 152.581C98.5161 152.581 98.2431 152.847 98.2431 153.19C98.2431 153.533 98.5161 153.806 98.8591 153.806ZM98.3271 157.852H99.4051V154.352H98.3271V157.852ZM100.025 156.095C100.025 157.201 100.837 157.936 101.957 157.936C103.07 157.936 103.882 157.201 103.882 156.095C103.882 154.989 103.07 154.247 101.957 154.247C100.837 154.247 100.025 154.989 100.025 156.095ZM101.11 156.088C101.11 155.563 101.453 155.213 101.957 155.213C102.454 155.213 102.797 155.563 102.797 156.088C102.797 156.62 102.454 156.97 101.957 156.97C101.453 156.97 101.11 156.62 101.11 156.088ZM105.585 157.852V155.934C105.585 155.5 105.858 155.22 106.285 155.22C106.656 155.22 106.901 155.507 106.901 155.948V157.852H107.979V155.689C107.979 154.772 107.496 154.24 106.663 154.24C106.208 154.24 105.809 154.415 105.592 154.716L105.522 154.352H104.507V157.852H105.585ZM108.459 156.746C108.459 157.453 109.04 157.943 109.964 157.943C110.874 157.943 111.511 157.488 111.511 156.739C111.511 156.179 111.196 155.913 110.622 155.787L109.971 155.647C109.726 155.591 109.593 155.5 109.593 155.339C109.593 155.15 109.747 155.024 109.992 155.024C110.251 155.024 110.398 155.185 110.398 155.423H111.42C111.42 154.716 110.853 154.24 110.041 154.24C109.201 154.24 108.578 154.66 108.578 155.388C108.578 156.004 108.893 156.284 109.537 156.424L110.181 156.564C110.44 156.62 110.496 156.732 110.496 156.837C110.496 157.019 110.342 157.138 110.006 157.138C109.677 157.138 109.495 156.991 109.481 156.746H108.459ZM114.767 157.852L115.138 156.76H116.811L117.175 157.852H118.379L116.538 152.672H115.432L113.584 157.852H114.767ZM115.838 154.702C115.901 154.513 115.957 154.317 115.978 154.198C115.999 154.324 116.062 154.527 116.118 154.702L116.489 155.808H115.467L115.838 154.702ZM118.482 156.088C118.482 157.208 119.196 157.943 120.302 157.943C121.282 157.943 121.996 157.341 122.066 156.459H120.981C120.911 156.802 120.68 156.977 120.302 156.977C119.84 156.977 119.567 156.648 119.567 156.088C119.567 155.549 119.861 155.206 120.316 155.206C120.687 155.206 120.904 155.374 120.981 155.724H122.066C121.996 154.807 121.31 154.24 120.274 154.24C119.224 154.24 118.482 155.01 118.482 156.088ZM122.467 156.088C122.467 157.208 123.181 157.943 124.287 157.943C125.267 157.943 125.981 157.341 126.051 156.459H124.966C124.896 156.802 124.665 156.977 124.287 156.977C123.825 156.977 123.552 156.648 123.552 156.088C123.552 155.549 123.846 155.206 124.301 155.206C124.672 155.206 124.889 155.374 124.966 155.724H126.051C125.981 154.807 125.295 154.24 124.259 154.24C123.209 154.24 122.467 155.01 122.467 156.088ZM126.453 156.095C126.453 157.201 127.265 157.936 128.385 157.936C129.498 157.936 130.31 157.201 130.31 156.095C130.31 154.989 129.498 154.247 128.385 154.247C127.265 154.247 126.453 154.989 126.453 156.095ZM127.538 156.088C127.538 155.563 127.881 155.213 128.385 155.213C128.882 155.213 129.225 155.563 129.225 156.088C129.225 156.62 128.882 156.97 128.385 156.97C127.881 156.97 127.538 156.62 127.538 156.088ZM133.177 154.352V156.172C133.177 156.746 132.988 156.984 132.526 156.984C132.085 156.984 131.889 156.732 131.889 156.158V154.352H130.811V156.55C130.811 157.411 131.301 157.943 132.099 157.943C132.519 157.943 132.953 157.747 133.17 157.46L133.24 157.852H134.255V154.352H133.177ZM136.141 157.852V155.934C136.141 155.5 136.414 155.22 136.841 155.22C137.212 155.22 137.457 155.507 137.457 155.948V157.852H138.535V155.689C138.535 154.772 138.052 154.24 137.219 154.24C136.764 154.24 136.365 154.415 136.148 154.716L136.078 154.352H135.063V157.852H136.141ZM140.723 157.852V155.248H141.388V154.352H140.723V153.267H139.645V154.352H138.98V155.248H139.645V157.852H140.723ZM64.4446 163.177C64.4446 164.024 64.9206 164.549 65.8446 164.738L66.6356 164.899C66.9786 164.969 67.1116 165.116 67.1116 165.403C67.1116 165.732 66.7896 165.935 66.2786 165.935C65.7746 165.935 65.4946 165.725 65.4946 165.347H64.3676C64.3676 166.32 65.1166 166.943 66.2716 166.943C67.4616 166.943 68.2456 166.292 68.2456 165.291C68.2456 164.472 67.8046 164.031 66.8806 163.842L66.1036 163.681C65.7396 163.604 65.5786 163.45 65.5786 163.135C65.5786 162.792 65.8726 162.582 66.3346 162.582C66.7616 162.582 67.0346 162.806 67.0346 163.17H68.1616C68.1616 162.19 67.4616 161.574 66.3486 161.574C65.2356 161.574 64.4446 162.239 64.4446 163.177ZM71.1882 163.352V165.172C71.1882 165.746 70.9992 165.984 70.5372 165.984C70.0962 165.984 69.9002 165.732 69.9002 165.158V163.352H68.8222V165.55C68.8222 166.411 69.3122 166.943 70.1102 166.943C70.5302 166.943 70.9642 166.747 71.1812 166.46L71.2512 166.852H72.2662V163.352H71.1882ZM72.8178 165.088C72.8178 166.208 73.5318 166.943 74.6378 166.943C75.6178 166.943 76.3318 166.341 76.4018 165.459H75.3168C75.2468 165.802 75.0158 165.977 74.6378 165.977C74.1758 165.977 73.9028 165.648 73.9028 165.088C73.9028 164.549 74.1968 164.206 74.6518 164.206C75.0228 164.206 75.2398 164.374 75.3168 164.724H76.4018C76.3318 163.807 75.6458 163.24 74.6098 163.24C73.5598 163.24 72.8178 164.01 72.8178 165.088ZM76.8032 165.088C76.8032 166.208 77.5172 166.943 78.6232 166.943C79.6032 166.943 80.3172 166.341 80.3872 165.459H79.3022C79.2322 165.802 79.0012 165.977 78.6232 165.977C78.1612 165.977 77.8882 165.648 77.8882 165.088C77.8882 164.549 78.1822 164.206 78.6372 164.206C79.0082 164.206 79.2252 164.374 79.3022 164.724H80.3872C80.3172 163.807 79.6312 163.24 78.5952 163.24C77.5452 163.24 76.8032 164.01 76.8032 165.088ZM82.6015 166.943C83.5605 166.943 84.2535 166.446 84.3795 165.669H83.3925C83.3155 165.921 83.0285 166.068 82.6225 166.068C82.1465 166.068 81.8875 165.851 81.8245 165.389L84.3655 165.375V165.102C84.3655 163.961 83.6795 163.24 82.5805 163.24C81.5235 163.24 80.7885 164.003 80.7885 165.095C80.7885 166.173 81.5445 166.943 82.6015 166.943ZM82.5875 164.115C83.0215 164.115 83.2945 164.353 83.2945 164.724H81.8385C81.9225 164.304 82.1605 164.115 82.5875 164.115ZM84.7519 165.746C84.7519 166.453 85.3329 166.943 86.2569 166.943C87.1669 166.943 87.8039 166.488 87.8039 165.739C87.8039 165.179 87.4889 164.913 86.9149 164.787L86.2639 164.647C86.0189 164.591 85.8859 164.5 85.8859 164.339C85.8859 164.15 86.0399 164.024 86.2849 164.024C86.5439 164.024 86.6909 164.185 86.6909 164.423H87.7129C87.7129 163.716 87.1459 163.24 86.3339 163.24C85.4939 163.24 84.8709 163.66 84.8709 164.388C84.8709 165.004 85.1859 165.284 85.8299 165.424L86.4739 165.564C86.7329 165.62 86.7889 165.732 86.7889 165.837C86.7889 166.019 86.6349 166.138 86.2989 166.138C85.9699 166.138 85.7879 165.991 85.7739 165.746H84.7519ZM88.1152 165.746C88.1152 166.453 88.6962 166.943 89.6202 166.943C90.5302 166.943 91.1672 166.488 91.1672 165.739C91.1672 165.179 90.8522 164.913 90.2782 164.787L89.6272 164.647C89.3822 164.591 89.2492 164.5 89.2492 164.339C89.2492 164.15 89.4032 164.024 89.6482 164.024C89.9072 164.024 90.0542 164.185 90.0542 164.423H91.0762C91.0762 163.716 90.5092 163.24 89.6972 163.24C88.8572 163.24 88.2342 163.66 88.2342 164.388C88.2342 165.004 88.5492 165.284 89.1932 165.424L89.8372 165.564C90.0962 165.62 90.1522 165.732 90.1522 165.837C90.1522 166.019 89.9982 166.138 89.6622 166.138C89.3332 166.138 89.1512 165.991 89.1372 165.746H88.1152ZM91.4015 163.352V164.248H91.8845V166.852H92.9625V164.248H93.8025V163.352H92.9625V163.072C92.9625 162.771 93.0605 162.54 93.5015 162.54H93.8025V161.616C93.6345 161.588 93.4665 161.574 93.3195 161.574C92.4305 161.574 91.8845 162.029 91.8845 163.072V163.352H91.4015ZM96.6111 163.352V165.172C96.6111 165.746 96.4221 165.984 95.9601 165.984C95.5191 165.984 95.3231 165.732 95.3231 165.158V163.352H94.2451V165.55C94.2451 166.411 94.7351 166.943 95.5331 166.943C95.9531 166.943 96.3871 166.747 96.6041 166.46L96.6741 166.852H97.6891V163.352H96.6111ZM99.576 166.852V161.574H98.498V166.852H99.576ZM101.463 166.852V161.574H100.385V166.852H101.463ZM101.991 168.532C102.201 168.595 102.446 168.63 102.705 168.63C103.321 168.63 103.713 168.329 104.007 167.615L105.785 163.352H104.665L103.818 165.599L103.055 163.352H101.9L103.307 166.971L103.244 167.139C103.104 167.517 102.95 167.629 102.586 167.629H101.991V168.532ZM110.455 166.936C111.75 166.936 112.716 166.173 112.898 165.018H111.722C111.582 165.529 111.113 165.844 110.476 165.844C109.643 165.844 109.125 165.235 109.125 164.262C109.125 163.275 109.636 162.68 110.476 162.68C111.099 162.68 111.54 162.974 111.694 163.492H112.891C112.73 162.33 111.799 161.588 110.504 161.588C108.957 161.588 107.928 162.652 107.928 164.269C107.928 165.907 108.901 166.936 110.455 166.936ZM115.931 163.352C115.784 163.317 115.644 163.303 115.518 163.303C115.049 163.303 114.741 163.534 114.594 163.877L114.538 163.359H113.523V166.852H114.601V165.333C114.601 164.64 114.972 164.367 115.588 164.367H115.931V163.352ZM117.998 166.943C118.957 166.943 119.65 166.446 119.776 165.669H118.789C118.712 165.921 118.425 166.068 118.019 166.068C117.543 166.068 117.284 165.851 117.221 165.389L119.762 165.375V165.102C119.762 163.961 119.076 163.24 117.977 163.24C116.92 163.24 116.185 164.003 116.185 165.095C116.185 166.173 116.941 166.943 117.998 166.943ZM117.984 164.115C118.418 164.115 118.691 164.353 118.691 164.724H117.235C117.319 164.304 117.557 164.115 117.984 164.115ZM121.423 166.943C121.948 166.943 122.41 166.712 122.522 166.39L122.592 166.852H123.544V164.808C123.544 163.807 122.97 163.24 121.955 163.24C120.954 163.24 120.303 163.758 120.303 164.549H121.199C121.199 164.234 121.444 164.059 121.899 164.059C122.284 164.059 122.494 164.241 122.494 164.584V164.64L121.514 164.717C120.674 164.78 120.219 165.179 120.219 165.823C120.219 166.509 120.681 166.943 121.423 166.943ZM121.801 166.145C121.472 166.145 121.318 166.026 121.318 165.774C121.318 165.55 121.486 165.445 121.955 165.403L122.501 165.354V165.543C122.501 165.942 122.214 166.145 121.801 166.145ZM125.697 166.852V164.248H126.362V163.352H125.697V162.267H124.619V163.352H123.954V164.248H124.619V166.852H125.697ZM128.436 166.943C129.395 166.943 130.088 166.446 130.214 165.669H129.227C129.15 165.921 128.863 166.068 128.457 166.068C127.981 166.068 127.722 165.851 127.659 165.389L130.2 165.375V165.102C130.2 163.961 129.514 163.24 128.415 163.24C127.358 163.24 126.623 164.003 126.623 165.095C126.623 166.173 127.379 166.943 128.436 166.943ZM128.422 164.115C128.856 164.115 129.129 164.353 129.129 164.724H127.673C127.757 164.304 127.995 164.115 128.422 164.115ZM132.309 166.943C132.813 166.943 133.247 166.726 133.436 166.404L133.492 166.852H134.507V161.574H133.429V163.674C133.226 163.415 132.813 163.24 132.379 163.24C131.315 163.24 130.65 164.01 130.65 165.123C130.65 166.229 131.301 166.943 132.309 166.943ZM132.568 165.956C132.057 165.956 131.735 165.599 131.735 165.081C131.735 164.563 132.057 164.206 132.568 164.206C133.072 164.206 133.422 164.556 133.422 165.081C133.422 165.606 133.072 165.956 132.568 165.956Z" fill="#263238"/>
<path d="M122.191 199.38H75.7975C70.4791 199.38 66.1719 195.073 66.1719 189.754C66.1719 184.436 70.4791 180.129 75.7975 180.129H122.191C127.509 180.129 131.817 184.436 131.817 189.754C131.817 195.066 127.509 199.38 122.191 199.38Z" fill="#6088F0"/>
<path d="M91.0547 187.559H92.6995C93.9219 187.559 94.7539 188.314 94.7539 189.44C94.7539 190.567 93.9219 191.322 92.6995 191.322H91.0547V187.559ZM92.6611 190.727C93.4995 190.727 94.0435 190.215 94.0435 189.44C94.0435 188.666 93.4995 188.154 92.6611 188.154H91.7459V190.733H92.6611V190.727Z" fill="white"/>
<path d="M95.2109 189.441C95.2109 188.327 96.0685 187.508 97.2333 187.508C98.3981 187.508 99.2557 188.327 99.2557 189.441C99.2557 190.561 98.3981 191.373 97.2333 191.373C96.0685 191.373 95.2109 190.554 95.2109 189.441ZM98.5581 189.441C98.5581 188.673 97.9949 188.122 97.2397 188.122C96.4845 188.122 95.9213 188.673 95.9213 189.441C95.9213 190.209 96.4845 190.759 97.2397 190.759C97.9949 190.759 98.5581 190.209 98.5581 189.441Z" fill="white"/>
<path d="M103.341 187.559V191.322H102.765L100.691 188.775V191.322H100V187.559H100.576L102.65 190.106V187.559H103.341Z" fill="white"/>
<path d="M107.166 190.733V191.322H104.344V187.559H107.089V188.147H105.041V189.127H106.859V189.703H105.041V190.739H107.166V190.733Z" fill="white"/>
<path d="M100.286 140.654C93.4444 140.654 87.8828 135.092 87.8828 128.251C87.8828 121.409 93.4444 115.848 100.286 115.848C107.128 115.848 112.689 121.409 112.689 128.251C112.696 135.086 107.128 140.654 100.286 140.654ZM100.286 117.121C94.1548 117.121 89.1628 122.113 89.1628 128.244C89.1628 134.376 94.1548 139.368 100.286 139.368C106.417 139.368 111.409 134.376 111.409 128.244C111.416 122.113 106.424 117.121 100.286 117.121Z" fill="#6088F0"/>
<path d="M99.391 132.073C99.2374 132.073 99.0902 132.022 98.9686 131.913C97.8806 130.96 96.031 129.302 95.7878 128.944C95.5894 128.649 95.6726 128.252 95.967 128.054C96.255 127.862 96.6454 127.939 96.8502 128.22C97.023 128.438 98.2006 129.513 99.3782 130.563L105.657 124.604C105.913 124.361 106.316 124.374 106.559 124.63C106.802 124.886 106.789 125.289 106.533 125.532L99.8262 131.9C99.7046 132.009 99.551 132.073 99.391 132.073Z" fill="#6088F0"/>
<path d="M177.024 105.768C177.024 105.858 142.169 105.934 99.187 105.934C56.1918 105.934 21.3438 105.858 21.3438 105.768C21.3438 105.678 56.1854 105.602 99.187 105.602C142.169 105.602 177.024 105.678 177.024 105.768Z" fill="#263238"/>
<path d="M26.4869 100.544C26.9888 100.544 27.3957 100.137 27.3957 99.6354C27.3957 99.1334 26.9888 98.7266 26.4869 98.7266C25.985 98.7266 25.5781 99.1334 25.5781 99.6354C25.5781 100.137 25.985 100.544 26.4869 100.544Z" fill="#263238"/>
<path d="M29.8697 100.544C30.3717 100.544 30.7785 100.137 30.7785 99.6354C30.7785 99.1334 30.3717 98.7266 29.8697 98.7266C29.3678 98.7266 28.9609 99.1334 28.9609 99.6354C28.9609 100.137 29.3678 100.544 29.8697 100.544Z" fill="#263238"/>
<path d="M34.0989 99.6354C34.0989 100.135 33.6957 100.544 33.1901 100.544C32.6909 100.544 32.2812 100.141 32.2812 99.6354C32.2812 99.1362 32.6845 98.7266 33.1901 98.7266C33.6957 98.7266 34.0989 99.1362 34.0989 99.6354Z" fill="#263238"/>
<path d="M279.627 175.913C279.627 175.913 287.397 171.19 289.144 172.579C291.672 174.582 292.51 177.968 292.51 177.968C292.51 177.968 296.613 162.32 300.529 162.915C302.776 163.254 301.675 165.008 300.664 167.203C299.729 169.245 298.136 176.726 298.136 176.726C298.136 176.726 305.56 167.92 307.742 168.08C309.432 168.201 309.675 169.686 307.243 172.067C304.817 174.448 300.785 181.949 300.785 181.949C300.785 181.949 305.989 177.104 308.133 177.072C309.848 177.053 310.955 178.243 308.734 180.163C306.52 182.089 303.16 183.529 301.374 187.017C299.166 191.312 294.462 202.006 294.462 202.006L277.995 196.176C277.995 196.176 275.313 185.251 275.211 182.601C275.211 182.601 275.435 176.995 275.403 175.997C275.371 174.998 278.021 174.742 278.821 176.662C279.627 178.576 279.262 180.592 279.589 181.865C279.915 183.139 280.497 184.323 281.425 184.893C282.36 185.462 284.728 185.501 285.336 184.797C285.944 184.093 286.673 182.038 286.833 180.777C286.993 179.517 286.789 177.52 286.789 177.52C286.789 177.52 279.96 180.297 279.627 175.913Z" fill="#FFBE9D"/>
<path d="M94.6417 226.875L83.1985 222.587C83.1985 222.587 71.5505 215.764 69.3937 218.19C69.3937 218.19 67.0897 217.089 66.0657 219.547C65.4705 220.967 67.4289 223.035 67.4289 223.035C67.4289 223.035 66.8209 223.649 67.7873 225.742C68.7537 227.835 79.8065 234.427 79.8065 234.427C79.8065 234.427 94.1809 242.267 99.9921 246.017L110.021 232.379L108.626 231.86C108.626 231.86 107.8 225.063 105.016 223.252C101.989 221.281 98.3345 215.943 97.5345 213.851C96.7281 211.758 92.8689 212.724 93.5153 217.063C94.1553 221.403 97.5345 222.529 97.2145 225.422C96.8881 228.321 94.6417 226.875 94.6417 226.875Z" fill="#FFBE9D"/>
<path d="M77.0974 228.462C77.0526 228.545 74.8254 227.38 72.1182 225.863C69.411 224.346 67.2606 223.054 67.3054 222.977C67.3502 222.894 69.5774 224.058 72.2846 225.575C74.9854 227.086 77.1422 228.378 77.0974 228.462Z" fill="#EB996E"/>
<path d="M82.6841 225.242C82.6649 225.28 81.8841 224.967 80.6297 224.423C79.3817 223.879 77.6601 223.098 75.8041 222.151C73.9481 221.203 72.3161 220.25 71.1705 219.501C70.6009 219.123 70.1465 218.81 69.8457 218.573C69.5385 218.343 69.3785 218.202 69.3913 218.183C69.4233 218.138 70.1273 218.605 71.2921 219.296C72.4633 219.987 74.1081 220.903 75.9513 221.85C77.8009 222.797 79.4969 223.61 80.7193 224.205C81.9545 224.807 82.7033 225.203 82.6841 225.242Z" fill="#EB996E"/>
<path d="M85.0892 231.545C85.0764 231.564 84.718 231.366 84.078 230.995C83.3932 230.585 82.4844 230.041 81.3836 229.388L81.3516 229.369L81.3324 229.331C80.8268 228.236 80.1996 226.956 79.3932 225.612C78.9836 224.953 78.5356 224.243 77.9404 223.686C77.3452 223.136 76.398 223.04 75.6876 223.52C75.534 223.603 75.3484 223.788 75.3292 223.846C75.3484 223.872 75.342 223.878 75.3548 223.923L75.3996 224.064C75.4252 224.16 75.4636 224.256 75.502 224.352C75.6428 224.736 75.79 225.107 75.9372 225.478C76.238 226.214 76.5324 226.931 76.814 227.616C77.3836 228.972 77.902 230.22 78.3628 231.308L78.3436 231.276C79.2844 232.377 80.0588 233.286 80.6412 233.971C80.8844 234.265 81.0892 234.515 81.2556 234.72C81.39 234.892 81.4604 234.988 81.454 234.995C81.4476 235.001 81.358 234.924 81.2044 234.764C81.0252 234.572 80.8012 234.342 80.5388 234.06C79.9372 233.395 79.1308 232.512 78.1516 231.436L78.1388 231.424L78.1324 231.404C77.6588 230.336 77.1148 229.1 76.5324 227.731C76.2444 227.046 75.95 226.329 75.6428 225.593C75.4956 225.222 75.342 224.844 75.2012 224.454C75.1628 224.358 75.1308 224.262 75.0988 224.16L75.0476 224.006C75.0284 223.948 75.0156 223.852 75.0156 223.776C75.0732 223.571 75.1692 223.532 75.246 223.436C75.3356 223.36 75.4252 223.289 75.5212 223.232C75.9308 222.969 76.4172 222.835 76.8972 222.88C77.3836 222.912 77.8188 223.142 78.1644 223.436C78.8236 224.057 79.2588 224.768 79.6748 225.446C80.4812 226.816 81.0892 228.115 81.5756 229.228L81.5308 229.171C82.606 229.868 83.4956 230.438 84.1676 230.873C84.7628 231.289 85.102 231.526 85.0892 231.545Z" fill="#EB996E"/>
<path d="M96.5621 231.654C96.5493 231.699 96.0117 231.552 95.1541 231.309C94.2965 231.078 93.1061 230.745 91.7749 230.713C90.4437 230.681 89.2533 231.059 88.5109 231.513C87.7621 231.961 87.4293 232.422 87.3845 232.377C87.3589 232.365 87.6277 231.84 88.3829 231.315C89.1253 230.784 90.3797 230.349 91.7749 230.381C93.1701 230.419 94.3797 230.797 95.2181 231.085C96.0693 231.385 96.5749 231.616 96.5621 231.654Z" fill="#EB996E"/>
<path d="M95.7071 228.634C95.7839 228.692 95.4959 229.184 95.2207 229.824C94.9391 230.458 94.7663 231.002 94.6767 230.983C94.5871 230.97 94.6191 230.362 94.9199 229.69C95.2079 229.012 95.6367 228.576 95.7071 228.634Z" fill="#EB996E"/>
<path d="M161.636 174.248C162.423 168.86 168.701 161.122 174.263 161.116C171.076 156.501 171.031 150.005 174.141 145.34C176.285 142.133 179.741 139.772 181.207 136.213C182.864 132.188 181.591 127.644 181.751 123.304C181.981 116.956 185.284 111.157 188.503 105.64C191.447 100.591 195.044 95.0547 200.836 93.8131C204.503 93.0259 208.304 94.1843 211.748 95.6499C228.228 102.671 241.04 117.461 245.437 134.536C246.487 138.626 247.197 143.048 250.045 146.204C253.06 149.551 258.346 151.362 259.255 155.74C259.901 158.876 257.892 162.031 258.192 165.224C258.448 167.893 263.447 175.682 264.605 178.114C266.589 182.306 265.872 186.831 263.85 191.01C261.828 195.183 256.676 199.253 252.106 200.386L201.034 183.368C196.228 186.101 191.44 196.687 185.924 197.333C180.407 197.986 173.674 200.386 168.368 194.575C162.807 188.508 160.848 179.637 161.636 174.248Z" fill="#263238"/>
<path d="M246.324 123.453C245.754 127.728 246.926 134.794 249.262 138.442C250.83 140.893 253.447 142.487 256.026 143.888C258.606 145.29 261.313 146.634 263.265 148.804C265.223 150.967 266.273 154.218 264.961 156.81C269.562 158.525 271.623 164.388 269.94 168.919C268.25 173.45 263.623 176.503 258.791 177.405L237.729 171.069L233.102 144.189L245.262 123.453" fill="#263238"/>
<path d="M248.914 150.856C248.921 150.85 249.061 150.907 249.324 151.035C249.586 151.176 249.996 151.33 250.476 151.63C251.455 152.194 252.799 153.173 254.169 154.709C254.866 155.464 255.506 156.398 256.133 157.442C256.709 158.51 257.298 159.688 257.669 161.026C258.489 163.656 258.668 166.856 257.727 169.998L257.65 169.806C258.86 170.485 260.031 171.362 261.081 172.411C263.769 175.08 265.305 178.549 265.676 181.787C266.034 185.058 265.253 188.021 264.165 190.216C263.071 192.437 261.714 193.941 260.703 194.869C260.191 195.323 259.775 195.662 259.474 195.867C259.18 196.078 259.02 196.181 259.013 196.174C259.007 196.168 259.148 196.04 259.429 195.816C259.717 195.598 260.114 195.246 260.607 194.779C261.58 193.832 262.892 192.315 263.941 190.114C264.985 187.931 265.727 185.019 265.356 181.819C264.978 178.645 263.468 175.253 260.831 172.642C259.807 171.618 258.661 170.754 257.477 170.088L257.362 170.024L257.401 169.896C258.329 166.83 258.169 163.701 257.381 161.109C257.023 159.797 256.46 158.626 255.903 157.57C255.295 156.539 254.674 155.611 253.996 154.85C252.671 153.314 251.359 152.322 250.405 151.726C249.945 151.413 249.541 151.24 249.292 151.08C249.042 150.946 248.908 150.862 248.914 150.856Z" fill="#455A64"/>
<path d="M186.598 178.688C186.598 178.688 177.184 181.548 173.888 186.348C171.552 189.74 147.654 241.497 147.654 241.497L111.379 230.591L98.4062 247.724L138.771 270.099C146.253 274.246 155.353 274.207 162.803 269.99C166.931 267.654 170.297 264.172 172.493 259.967L182.758 240.307L186.598 178.688Z" fill="#6088F0"/>
<path d="M176.967 291.413L182.631 266.997L178.336 249.269C175.578 240.142 173.204 225.269 176.212 213.294L186.247 178.856L197.28 173.781L222.522 169.441C223.495 169.768 248.916 176.949 248.916 176.949C252.436 177.768 253.85 178.325 253.85 178.325L256.768 197.179L248 228.251L244.186 259.214L252.57 291.419H176.967V291.413Z" fill="#6088F0"/>
<path d="M191.553 176.41L198.875 173.133L231.867 173.594L239.668 178.125C239.668 178.125 212.411 208.205 205.569 209.203C188.366 211.699 191.553 176.41 191.553 176.41Z" fill="#FFBE9D"/>
<path d="M253.125 178.062C253.125 178.062 258.065 179.176 262.302 188.213C266.539 197.25 273.387 222.402 273.387 222.402L276.312 195.746L300.165 198.37L295.55 262.069C295.55 262.069 287.108 274.312 272.99 273.179C258.872 272.046 240.945 227.419 240.945 227.419L253.125 178.062Z" fill="#6088F0"/>
<path d="M269.67 254.946C269.664 254.946 269.664 254.895 269.664 254.792C269.67 254.671 269.677 254.524 269.683 254.338C269.709 253.916 269.741 253.333 269.786 252.604C269.875 251.1 270.054 248.924 270.304 246.236C270.803 240.866 271.712 233.468 272.826 225.32C273.939 217.167 274.886 209.781 275.443 204.424C275.725 201.743 275.936 199.573 276.07 198.076C276.141 197.346 276.198 196.77 276.237 196.348C276.256 196.168 276.275 196.021 276.288 195.9C276.301 195.797 276.314 195.746 276.32 195.746C276.326 195.746 276.326 195.797 276.326 195.9C276.32 196.021 276.314 196.168 276.307 196.354C276.282 196.776 276.25 197.359 276.205 198.088C276.115 199.592 275.936 201.768 275.686 204.456C275.187 209.826 274.278 217.224 273.165 225.378C272.051 233.525 271.104 240.911 270.547 246.274C270.266 248.956 270.054 251.125 269.92 252.629C269.85 253.359 269.792 253.935 269.754 254.357C269.734 254.536 269.715 254.684 269.702 254.805C269.683 254.895 269.677 254.946 269.67 254.946Z" fill="#263238"/>
<path d="M148.065 255.248C148.046 255.254 147.95 255.088 147.803 254.774C147.649 254.461 147.457 253.994 147.246 253.398C146.824 252.221 146.388 250.531 146.203 248.624C146.023 246.717 146.126 244.976 146.311 243.741C146.401 243.12 146.503 242.627 146.593 242.288C146.683 241.949 146.74 241.763 146.759 241.77C146.811 241.782 146.67 242.538 146.548 243.773C146.427 245.002 146.356 246.717 146.536 248.598C146.721 250.474 147.111 252.144 147.47 253.328C147.828 254.512 148.116 255.229 148.065 255.248Z" fill="#263238"/>
<path d="M152.08 255.835C152.061 255.847 151.913 255.681 151.657 255.361C151.401 255.041 151.056 254.561 150.659 253.947C149.865 252.724 148.912 250.926 148.176 248.82C147.446 246.708 147.075 244.705 146.941 243.252C146.87 242.523 146.838 241.934 146.845 241.524C146.845 241.115 146.857 240.891 146.877 240.891C146.934 240.891 146.973 241.787 147.171 243.22C147.369 244.654 147.766 246.619 148.489 248.705C149.219 250.785 150.128 252.577 150.864 253.819C151.6 255.073 152.125 255.803 152.08 255.835Z" fill="#263238"/>
<path d="M180.318 198.926C180.331 198.932 180.286 199.105 180.197 199.444C180.094 199.809 179.96 200.296 179.787 200.91C179.416 202.209 178.904 204.04 178.264 206.28C177.022 210.817 175.301 217.121 174.475 224.257C174.065 227.822 173.982 231.252 174.334 234.337C174.661 237.428 175.345 240.155 176.017 242.408C176.689 244.66 177.329 246.459 177.771 247.7C177.982 248.302 178.149 248.776 178.277 249.134C178.392 249.46 178.443 249.64 178.43 249.64C178.417 249.646 178.347 249.48 178.213 249.153C178.072 248.801 177.886 248.334 177.649 247.745C177.176 246.516 176.504 244.731 175.793 242.472C175.089 240.219 174.379 237.48 174.033 234.369C173.656 231.259 173.733 227.796 174.149 224.219C174.981 217.051 176.747 210.74 178.046 206.216C178.705 203.95 179.275 202.132 179.672 200.872C179.87 200.27 180.024 199.784 180.139 199.425C180.241 199.092 180.305 198.92 180.318 198.926Z" fill="#263238"/>
<path d="M247.019 240.897C247.013 240.897 246.987 240.846 246.93 240.744C246.872 240.622 246.795 240.462 246.706 240.27C246.507 239.828 246.226 239.214 245.874 238.44C245.522 237.64 245.067 236.667 244.587 235.528C244.126 234.369 243.602 233.057 243.019 231.611C242.456 230.152 241.912 228.526 241.291 226.798C241.022 225.921 240.741 225.012 240.446 224.078C240.306 223.611 240.158 223.137 240.011 222.651C239.877 222.164 239.755 221.672 239.621 221.172C238.546 217.179 237.637 212.699 237.368 207.918C237.074 203.15 237.528 198.536 238.744 194.568C239.883 190.568 241.886 187.284 244.03 184.993C246.168 182.676 248.389 181.339 249.982 180.628C250.789 180.276 251.429 180.046 251.87 179.931C252.075 179.873 252.242 179.828 252.376 179.79C252.491 179.758 252.549 179.745 252.549 179.752C252.549 179.758 252.491 179.784 252.382 179.822C252.254 179.867 252.088 179.924 251.89 179.995C251.454 180.129 250.821 180.385 250.034 180.75C248.472 181.492 246.29 182.849 244.197 185.16C242.104 187.451 240.146 190.696 239.032 194.664C237.842 198.606 237.4 203.169 237.694 207.912C237.963 212.66 238.859 217.128 239.915 221.108C240.043 221.608 240.171 222.1 240.299 222.587C240.446 223.067 240.587 223.54 240.728 224.008C241.01 224.942 241.285 225.851 241.554 226.728C242.162 228.456 242.686 230.081 243.237 231.547C243.8 233 244.306 234.318 244.754 235.476C245.214 236.628 245.65 237.601 245.982 238.408C246.309 239.195 246.571 239.816 246.757 240.264C246.834 240.462 246.898 240.622 246.949 240.75C247.006 240.833 247.026 240.891 247.019 240.897Z" fill="#263238"/>
<g opacity="0.3">
<g opacity="0.3">
<path opacity="0.3" d="M237.928 212.039C234.811 226.791 234.766 241.965 240.136 256.052C240.449 256.871 241.678 259.777 242.555 259.815C243.662 259.873 244.187 258.49 244.379 257.396C244.776 255.149 245.012 251.457 245.409 249.21C245.902 246.401 246.574 239.892 246.574 239.892C246.574 239.892 243.995 233.991 242.862 230.823C240.756 224.948 238.977 219.341 237.998 212.5" fill="black"/>
</g>
</g>
<path d="M235.377 269.192C235.383 269.198 235.3 269.332 235.127 269.576C234.935 269.844 234.679 270.203 234.359 270.644C234.187 270.881 234.001 271.137 233.796 271.412C233.579 271.688 233.323 271.963 233.06 272.27C232.523 272.878 231.947 273.608 231.191 274.299C230.827 274.657 230.443 275.035 230.046 275.419C229.643 275.803 229.182 276.161 228.727 276.552C227.831 277.358 226.769 278.081 225.668 278.875C223.415 280.366 220.798 281.806 217.892 282.958C214.974 284.072 212.068 284.788 209.399 285.211C208.055 285.371 206.782 285.556 205.579 285.569C204.977 285.588 204.401 285.64 203.838 285.627C203.281 285.608 202.743 285.595 202.231 285.576C201.207 285.576 200.292 285.428 199.486 285.345C199.083 285.294 198.705 285.262 198.366 285.211C198.027 285.14 197.719 285.083 197.431 285.025C196.9 284.916 196.471 284.827 196.145 284.756C195.851 284.692 195.697 284.654 195.703 284.641C195.703 284.628 195.863 284.648 196.158 284.692C196.484 284.744 196.919 284.814 197.451 284.897C197.732 284.942 198.046 285 198.385 285.051C198.731 285.096 199.102 285.121 199.505 285.16C200.311 285.224 201.22 285.358 202.238 285.339C202.743 285.345 203.281 285.358 203.831 285.371C204.388 285.377 204.958 285.32 205.559 285.294C206.756 285.268 208.017 285.07 209.348 284.904C211.998 284.462 214.871 283.745 217.764 282.638C220.644 281.492 223.243 280.078 225.489 278.606C226.583 277.825 227.646 277.115 228.542 276.328C228.996 275.944 229.463 275.598 229.867 275.214C230.27 274.83 230.654 274.465 231.019 274.113C231.78 273.435 232.363 272.718 232.907 272.129C233.175 271.828 233.438 271.56 233.655 271.291C233.867 271.022 234.059 270.772 234.238 270.542C234.577 270.12 234.846 269.774 235.051 269.512C235.268 269.307 235.371 269.185 235.377 269.192Z" fill="#263238"/>
<path d="M230.177 259.434C230.203 259.44 230.171 259.683 230.094 260.131C230.024 260.579 229.877 261.219 229.646 262C229.198 263.555 228.347 265.655 226.997 267.741C225.64 269.827 224.072 271.459 222.837 272.509C222.216 273.034 221.697 273.431 221.313 273.68C220.936 273.93 220.725 274.064 220.712 274.045C220.68 273.994 221.493 273.418 222.677 272.336C223.861 271.255 225.377 269.616 226.715 267.568C228.046 265.514 228.917 263.459 229.422 261.936C229.928 260.4 230.12 259.421 230.177 259.434Z" fill="#263238"/>
<path d="M218.563 89.7422C227.491 89.8062 236.227 94.843 240.751 102.549C245.27 110.254 245.411 120.334 241.11 128.161C239.644 130.83 237.532 133.358 234.633 134.286C235.619 118.984 229.519 103.361 218.422 92.7758" fill="#6088F0"/>
<path d="M229.016 92.0579C227.691 89.2995 229.112 85.8499 231.474 83.9107C233.835 81.9715 236.92 81.1843 239.896 80.4739C242.872 79.7635 245.957 79.0275 248.37 77.1523C248.024 81.9459 246.827 86.8803 243.73 90.5475C240.626 94.2211 235.25 96.2627 230.821 94.4003" fill="#6088F0"/>
<path d="M232.089 95.2149C230.054 96.0725 227.622 95.5349 225.804 94.2869C223.98 93.0389 222.675 91.1701 221.606 89.2373C220.294 86.8629 219.257 84.2965 218.912 81.6021C218.566 78.9077 218.931 76.0789 220.262 73.7109C223.763 77.4421 227.622 80.5781 229.625 85.2885C230.803 88.0533 230.662 92.4949 229.395 95.2213" fill="#6088F0"/>
<path d="M242.011 110.734C242.036 110.728 242.094 111.048 242.184 111.624C242.235 111.912 242.286 112.264 242.318 112.68C242.356 113.096 242.414 113.563 242.42 114.088C242.478 115.131 242.459 116.379 242.356 117.762C242.235 119.138 242.011 120.648 241.652 122.203C241.275 123.758 240.795 125.205 240.283 126.491C239.752 127.771 239.208 128.891 238.689 129.8C238.446 130.261 238.184 130.658 237.966 131.01C237.748 131.362 237.544 131.656 237.371 131.893C237.032 132.366 236.833 132.622 236.814 132.61C236.795 132.597 236.955 132.315 237.262 131.822C237.416 131.579 237.608 131.278 237.806 130.914C238.004 130.555 238.254 130.152 238.484 129.691C238.977 128.776 239.496 127.656 240.001 126.382C240.494 125.102 240.961 123.669 241.332 122.133C241.691 120.597 241.921 119.106 242.056 117.742C242.177 116.379 242.216 115.144 242.19 114.107C242.196 113.589 242.152 113.122 242.139 112.706C242.126 112.296 242.094 111.938 242.062 111.65C242.004 111.061 241.985 110.741 242.011 110.734Z" fill="#263238"/>
<path d="M240.009 93.5685C240.022 93.5877 239.772 93.7861 239.299 94.1317C238.787 94.4133 238.025 94.8229 236.988 95.0277C234.928 95.4949 231.958 95.3989 228.816 94.5605L228.72 94.5349L228.7 94.4389C228.656 94.2469 228.611 94.0421 228.566 93.8373C228.227 92.1733 228.15 90.5413 228.355 89.0757C228.54 87.6101 229.046 86.3365 229.699 85.4213C230.326 84.4805 231.094 83.9621 231.6 83.6101C232.15 83.3157 232.451 83.1621 232.464 83.1813C232.476 83.2005 232.188 83.3925 231.676 83.7189C231.203 84.0965 230.48 84.6341 229.904 85.5557C229.302 86.4517 228.835 87.6869 228.668 89.1141C228.483 90.5349 228.572 92.1413 228.899 93.7669C228.944 93.9717 228.988 94.1701 229.033 94.3621L228.918 94.2405C231.996 95.0661 234.934 95.2005 236.95 94.8037C237.974 94.6309 238.723 94.2661 239.248 94.0229C239.721 93.7157 239.996 93.5493 240.009 93.5685Z" fill="#263238"/>
<path d="M242.632 85.2768C242.638 85.3408 241.697 85.4688 240.225 85.904C239.489 86.1152 238.638 86.4288 237.71 86.8384C236.795 87.2608 235.809 87.7792 234.83 88.4128C233.857 89.0592 232.993 89.7504 232.238 90.4224C231.496 91.1072 230.868 91.7664 230.382 92.3552C229.396 93.5264 228.897 94.3392 228.846 94.3072C228.827 94.2944 228.936 94.0832 229.16 93.712C229.371 93.3344 229.729 92.816 230.203 92.208C230.676 91.5936 231.297 90.9088 232.033 90.1984C232.782 89.5008 233.659 88.784 234.651 88.1312C235.643 87.4848 236.648 86.9664 237.588 86.5568C238.536 86.16 239.412 85.8656 240.161 85.68C240.91 85.488 241.524 85.3728 241.96 85.328C242.388 85.2768 242.625 85.2576 242.632 85.2768Z" fill="#263238"/>
<path d="M231.955 95.1373C231.968 95.1373 231.955 95.2077 231.929 95.3293C231.91 95.4573 231.853 95.6301 231.757 95.8605C231.571 96.3085 231.181 96.9165 230.489 97.4605C229.805 97.9853 228.793 98.4461 227.616 98.3885C226.432 98.3501 225.209 97.6333 224.448 96.5261C223.686 95.4125 223.462 94.0173 223.853 92.8973C224.224 91.7773 225.017 90.9965 225.76 90.5485C226.515 90.1005 227.225 89.9597 227.712 89.9469C227.955 89.9405 228.141 89.9533 228.269 89.9789C228.397 89.9981 228.461 90.0109 228.454 90.0237C228.448 90.0557 228.185 90.0238 227.718 90.075C227.257 90.1262 226.585 90.2989 225.881 90.7469C225.197 91.1949 224.467 91.9501 224.147 92.9869C223.808 94.0173 224.019 95.2974 224.723 96.3342C225.433 97.3646 226.553 98.0301 227.635 98.0813C228.723 98.1517 229.683 97.7485 230.349 97.2685C231.021 96.7757 231.424 96.2125 231.641 95.8029C231.859 95.3869 231.917 95.1309 231.955 95.1373Z" fill="#263238"/>
<path d="M224.19 95.298C224.158 95.33 223.966 94.9524 224.273 94.4532C224.414 94.2164 224.683 93.9796 225.035 93.858C225.381 93.73 225.784 93.7108 226.181 93.7364C227.781 93.8516 228.939 94.4724 228.894 94.5428C228.856 94.6324 227.678 94.1716 226.155 94.0628C225.4 93.986 224.747 94.1844 224.465 94.5812C224.171 94.9588 224.241 95.298 224.19 95.298Z" fill="#263238"/>
<path d="M220.262 73.7154C220.326 73.741 219.558 74.6498 219.283 76.4546C219.136 77.3442 219.117 78.4258 219.129 79.629C219.142 80.8322 219.2 82.157 219.469 83.501C220.077 86.189 221.177 88.4994 222.201 89.9778C222.72 90.7202 223.181 91.3026 223.507 91.693C223.833 92.0834 224.032 92.2818 224.019 92.301C223.981 92.3458 223.11 91.597 222.016 90.1186C220.915 88.6402 219.769 86.3234 219.149 83.565C218.867 82.1826 218.822 80.8322 218.829 79.6226C218.829 78.413 218.873 77.3122 219.053 76.4034C219.225 75.4946 219.52 74.7906 219.782 74.349C220.045 73.9074 220.249 73.7026 220.262 73.7154Z" fill="#263238"/>
<path d="M223.575 81.3058C223.607 81.2802 223.972 81.6834 224.477 82.4002C224.983 83.117 225.616 84.1474 226.18 85.3634C226.736 86.5794 227.101 87.7442 227.306 88.5954C227.511 89.4466 227.568 89.9842 227.524 89.997C227.421 90.0226 226.986 87.9042 225.879 85.5042C224.772 83.1042 223.485 81.3698 223.575 81.3058Z" fill="#263238"/>
<path d="M222.489 85.2952C222.553 85.2376 223.634 86.3256 225.049 87.5928C226.457 88.8664 227.583 89.9224 227.519 89.9928C227.461 90.0568 226.239 89.116 224.825 87.836C223.397 86.5688 222.412 85.3592 222.489 85.2952Z" fill="#263238"/>
<path d="M239.238 100.309C239.238 100.315 239.206 100.341 239.149 100.398C239.059 100.475 238.963 100.552 238.867 100.635C238.624 100.846 238.253 101.121 237.773 101.448C236.826 102.094 235.418 102.862 233.741 103.413C232.07 103.957 230.477 104.174 229.331 104.219C228.755 104.245 228.288 104.238 227.968 104.213C227.84 104.206 227.718 104.193 227.597 104.187C227.514 104.181 227.469 104.174 227.469 104.168C227.469 104.161 227.514 104.161 227.597 104.161C227.712 104.161 227.834 104.161 227.968 104.161C228.288 104.168 228.749 104.161 229.325 104.123C230.464 104.059 232.038 103.829 233.696 103.285C235.354 102.734 236.755 101.992 237.715 101.365C238.195 101.051 238.573 100.789 238.829 100.59C238.931 100.513 239.034 100.443 239.123 100.373C239.194 100.328 239.232 100.309 239.238 100.309Z" fill="#FAFAFA"/>
<path d="M243.007 108.055C243.007 108.061 242.975 108.087 242.911 108.144C242.822 108.221 242.726 108.298 242.63 108.381C242.38 108.586 242.009 108.867 241.535 109.187C240.582 109.834 239.187 110.615 237.529 111.216C235.871 111.811 234.297 112.106 233.151 112.215C232.582 112.272 232.115 112.298 231.788 112.291C231.66 112.291 231.539 112.291 231.417 112.291C231.334 112.291 231.289 112.285 231.289 112.285C231.289 112.279 231.334 112.272 231.417 112.266C231.532 112.259 231.654 112.253 231.788 112.24C232.108 112.227 232.569 112.189 233.139 112.119C234.278 111.984 235.839 111.683 237.484 111.095C239.129 110.499 240.524 109.738 241.484 109.111C241.964 108.797 242.348 108.535 242.604 108.343C242.707 108.266 242.809 108.195 242.905 108.125C242.969 108.08 243.001 108.055 243.007 108.055Z" fill="#FAFAFA"/>
<path d="M241.958 119.357C241.964 119.364 241.868 119.434 241.689 119.556C241.51 119.677 241.241 119.844 240.902 120.029C240.223 120.4 239.231 120.836 238.086 121.143C236.934 121.444 235.858 121.546 235.084 121.552C234.694 121.559 234.38 121.546 234.169 121.527C233.951 121.508 233.836 121.495 233.836 121.488C233.836 121.482 233.958 121.476 234.175 121.476C234.393 121.482 234.7 121.476 235.09 121.456C235.858 121.424 236.921 121.309 238.06 121.008C239.199 120.708 240.178 120.292 240.863 119.946C241.209 119.773 241.484 119.62 241.67 119.511C241.849 119.402 241.951 119.344 241.958 119.357Z" fill="#FAFAFA"/>
<path d="M244.136 117.627C244.143 117.665 243.759 117.768 243.272 117.864C242.786 117.96 242.389 118.005 242.383 117.966C242.376 117.928 242.76 117.825 243.247 117.729C243.727 117.633 244.13 117.589 244.136 117.627Z" fill="#FAFAFA"/>
<path d="M237.784 130.908C237.79 130.94 237.131 131.042 236.324 130.978C235.512 130.921 234.878 130.729 234.891 130.69C234.897 130.652 235.537 130.786 236.337 130.844C237.131 130.908 237.784 130.87 237.784 130.908Z" fill="#FAFAFA"/>
<path d="M225.642 97.441C225.661 97.473 225.277 97.7162 224.791 97.985C224.304 98.2538 223.888 98.4458 223.875 98.4138C223.863 98.3818 224.24 98.1386 224.727 97.8698C225.213 97.601 225.623 97.409 225.642 97.441Z" fill="#FAFAFA"/>
<path d="M222.462 90.7206C222.481 90.759 221.54 91.0406 220.574 91.7382C219.601 92.423 219.031 93.2166 218.993 93.1846C218.98 93.1782 219.108 92.967 219.358 92.6662C219.614 92.3654 220.004 91.9814 220.491 91.6294C220.983 91.2838 221.476 91.0406 221.841 90.8998C222.219 90.759 222.455 90.7078 222.462 90.7206Z" fill="#FAFAFA"/>
<path d="M228.23 98.1636C228.186 98.1572 228.41 97.2932 228.262 96.2244C228.128 95.1556 227.693 94.3748 227.738 94.3556C227.75 94.3492 227.878 94.5284 228.026 94.8612C228.173 95.1876 228.326 95.6612 228.397 96.2116C228.467 96.7556 228.435 97.2548 228.378 97.6068C228.32 97.9588 228.243 98.1636 228.23 98.1636Z" fill="#FAFAFA"/>
<path d="M248.03 77.2891C248.03 77.2891 247.806 77.5771 247.326 78.0379C246.853 78.4987 246.11 79.1067 245.112 79.7403C244.114 80.3739 242.859 81.0139 241.432 81.6411C240.005 82.2747 238.411 82.8955 236.792 83.6699C235.179 84.4507 233.701 85.3403 232.549 86.3771C231.397 87.4139 230.565 88.5659 230.059 89.6219C229.554 90.6779 229.355 91.6251 229.298 92.2779C229.24 92.9307 229.285 93.2955 229.266 93.2955C229.266 93.2955 229.253 93.2059 229.246 93.0331C229.227 92.8603 229.234 92.6043 229.246 92.2715C229.285 91.6123 229.47 90.6587 229.976 89.5771C230.482 88.5083 231.307 87.3307 232.472 86.2811C233.63 85.2251 235.122 84.3291 236.741 83.5419C238.366 82.7611 239.966 82.1403 241.387 81.5195C242.814 80.8987 244.069 80.2715 245.067 79.6507C246.066 79.0299 246.815 78.4347 247.295 77.9867C247.538 77.7627 247.723 77.5835 247.838 77.4619C247.96 77.3531 248.03 77.2891 248.03 77.2891Z" fill="#FAFAFA"/>
<path d="M246.293 84.8867C246.299 84.8867 246.267 84.9379 246.21 85.0339C246.127 85.1555 246.043 85.2899 245.941 85.4371C245.711 85.7891 245.352 86.2755 244.885 86.8579C243.951 88.0291 242.523 89.5459 240.712 90.9475C238.901 92.3491 237.077 93.3603 235.714 93.9747C235.029 94.2819 234.472 94.5123 234.075 94.6467C233.909 94.7043 233.762 94.7555 233.621 94.8067C233.519 94.8387 233.461 94.8579 233.461 94.8515C233.461 94.8451 233.512 94.8195 233.615 94.7811C233.749 94.7235 233.896 94.6659 234.063 94.6019C234.453 94.4483 235.01 94.2115 235.682 93.8915C237.032 93.2579 238.837 92.2403 240.635 90.8451C242.434 89.4435 243.867 87.9523 244.815 86.8003C245.288 86.2243 245.659 85.7507 245.903 85.4051C246.005 85.2643 246.101 85.1363 246.191 85.0211C246.255 84.9315 246.293 84.8867 246.293 84.8867Z" fill="#FAFAFA"/>
<path d="M219.578 75.8945C219.578 75.8945 220.365 76.1953 221.517 76.9249C222.669 77.6481 224.148 78.8449 225.441 80.4705C226.733 82.1025 227.559 83.8177 228.001 85.1041C228.442 86.3905 228.557 87.2289 228.557 87.2289C228.551 87.2289 228.538 87.1777 228.506 87.0817C228.468 86.9473 228.436 86.8129 228.391 86.6593C228.301 86.2945 228.141 85.7697 227.905 85.1361C227.444 83.8689 226.612 82.1793 225.332 80.5537C224.045 78.9409 222.593 77.7377 221.46 77.0017C220.897 76.6305 220.423 76.3553 220.084 76.1825C219.943 76.1057 219.821 76.0417 219.7 75.9777C219.623 75.9265 219.578 75.9009 219.578 75.8945Z" fill="#FAFAFA"/>
<path d="M187.482 99.957C187.732 103.349 185.492 106.376 183.233 108.923C180.973 111.471 178.465 114.12 177.978 117.487C177.114 123.451 182.957 128.994 181.748 134.901C181.101 138.069 178.509 140.61 178.049 143.81C177.601 146.901 179.258 149.928 181.313 152.283C183.367 154.639 185.748 154.293 187.565 156.834C189.479 159.509 192.564 162.261 195.45 163.842C201.997 167.426 209.85 162.242 213.012 161.307" fill="#263238"/>
<path d="M236.985 113.865C239.999 112.553 240.236 101.737 232.671 100.489C229.638 99.9893 227.103 98.5045 224.55 96.7893C222.291 95.2661 221.619 91.4069 219.705 89.4677C215.014 84.7061 207.679 82.7349 201.235 84.4949C194.783 86.2549 189.471 91.6757 187.846 98.1589C186.745 102.543 187.494 107.721 190.95 110.633C194.956 114.012 200.902 113.263 206.035 112.207C211.167 111.157 216.985 110.121 221.273 113.135C223.859 114.953 225.343 117.916 226.924 120.649C228.505 123.388 230.489 126.185 233.478 127.209C233.478 127.209 235.756 132.559 233.894 136.284C232.031 140.009 236.076 133.66 236.076 133.66C236.076 133.66 243.449 120.553 236.985 113.865Z" fill="#263238"/>
<path d="M198.636 189.754C198.591 182.695 198.636 162.874 198.636 162.906C198.636 162.906 187.423 161.018 185.132 146.375C183.993 139.091 184.383 127.162 185.023 117.408C185.599 108.627 191.436 97.869 200.185 98.8162L227.487 105.779C230.143 106.067 232.14 108.339 232.082 111.008L230.418 178.816L198.636 189.754Z" fill="#FFBE9D"/>
<path d="M189.665 125.771C189.627 126.763 190.44 127.614 191.47 127.672C192.501 127.729 193.371 126.974 193.409 125.982C193.448 124.99 192.635 124.139 191.605 124.081C190.574 124.024 189.704 124.779 189.665 125.771Z" fill="#263238"/>
<path d="M187.593 123.621C187.823 123.864 189.25 122.815 191.266 122.828C193.282 122.808 194.767 123.852 194.985 123.602C195.093 123.493 194.857 123.052 194.21 122.578C193.577 122.111 192.495 121.65 191.234 121.656C189.973 121.663 188.917 122.124 188.309 122.597C187.689 123.064 187.477 123.506 187.593 123.621Z" fill="#263238"/>
<path d="M207.449 126.842C207.68 127.085 209.107 126.036 211.129 126.049C213.145 126.029 214.63 127.073 214.848 126.823C214.956 126.714 214.72 126.273 214.073 125.799C213.44 125.332 212.358 124.871 211.097 124.871C209.836 124.877 208.78 125.338 208.172 125.812C207.552 126.285 207.34 126.727 207.449 126.842Z" fill="#263238"/>
<path d="M200.085 139.001C200.098 138.886 198.837 138.668 196.808 138.4C196.29 138.342 195.804 138.24 195.721 137.888C195.599 137.516 195.816 136.96 196.066 136.358C196.552 135.11 197.065 133.804 197.602 132.435C199.733 126.848 201.276 122.252 201.052 122.169C200.828 122.086 198.914 126.547 196.783 132.134C196.271 133.51 195.778 134.828 195.311 136.083C195.113 136.672 194.78 137.331 195.042 138.105C195.183 138.489 195.56 138.771 195.887 138.86C196.22 138.963 196.508 138.969 196.764 138.982C198.805 139.104 200.079 139.116 200.085 139.001Z" fill="#263238"/>
<path d="M198.633 162.907C198.633 162.907 208.476 163.566 218.249 157.723C218.082 157.755 212.854 167.899 198.825 166.363L198.633 162.907Z" fill="#EB996E"/>
<path d="M200.667 144.838C200.424 143.597 201.89 143.193 202.965 142.521C204.04 141.856 204.661 140.966 205.666 141.734C206.242 142.169 206.651 142.803 206.907 143.475C207.08 143.929 207.189 144.422 207.106 144.902C207.003 145.485 206.639 145.99 206.203 146.4C205.595 146.976 204.834 147.411 204.008 147.545C203.183 147.686 202.293 147.507 201.634 146.989C200.975 146.47 200.591 145.6 200.731 144.774" fill="#EB996E"/>
<path d="M206.031 140.414C205.704 140.395 205.691 142.584 203.81 144.139C201.935 145.694 199.599 145.445 199.579 145.752C199.547 145.886 200.098 146.181 201.083 146.206C202.05 146.245 203.464 145.931 204.616 144.984C205.762 144.03 206.261 142.763 206.338 141.861C206.427 140.945 206.184 140.401 206.031 140.414Z" fill="#263238"/>
<path d="M207.151 122.324C207.349 122.875 209.365 122.619 211.733 122.907C214.107 123.15 216.015 123.847 216.335 123.355C216.475 123.118 216.143 122.599 215.375 122.068C214.613 121.537 213.391 121.031 211.97 120.865C210.549 120.705 209.243 120.929 208.379 121.281C207.509 121.633 207.067 122.068 207.151 122.324Z" fill="#263238"/>
<path d="M187.879 116.633C188.231 117.094 189.626 116.62 191.296 116.601C192.967 116.524 194.388 116.914 194.714 116.434C194.855 116.204 194.637 115.743 194.016 115.308C193.408 114.873 192.391 114.521 191.239 114.553C190.087 114.585 189.095 115.001 188.506 115.468C187.917 115.935 187.725 116.409 187.879 116.633Z" fill="#263238"/>
<path d="M233.687 154.743C229.661 155.556 229.303 153.508 226.295 150.711C223.287 147.914 221.732 143.633 222.25 139.562C222.704 135.966 224.644 132.311 223.396 128.906C221.751 124.407 215.44 123.025 213.77 118.532C212.797 115.921 213.668 112.868 212.567 110.314C211.53 107.908 209.002 106.526 206.538 105.636C204.074 104.746 201.437 104.132 199.37 102.526C197.303 100.919 196.016 97.8856 197.348 95.6328C208.266 96.9384 219.031 99.556 229.328 103.402C231.716 104.292 234.224 105.367 235.639 107.492C237.13 109.738 237.06 112.644 236.938 115.338C236.324 128.478 235.709 141.623 235.101 154.762" fill="#263238"/>
<path d="M243.009 149.833C243.016 149.84 243.073 149.776 243.169 149.654C243.259 149.52 243.425 149.34 243.572 149.072C243.905 148.54 244.302 147.689 244.539 146.512C244.776 145.347 244.795 143.83 244.302 142.192C243.848 140.553 242.702 138.8 240.897 137.609C239.163 136.387 236.897 135.529 235.464 133.584C234.747 132.63 234.446 131.395 234.67 130.147C234.868 128.892 235.438 127.657 235.944 126.352C237.064 123.728 237.076 120.451 235.758 117.616C235.092 116.201 234.107 114.889 232.788 113.929C231.476 112.937 229.876 112.425 228.302 112.067C226.715 111.702 225.134 111.497 223.668 111.056C222.203 110.62 220.808 109.961 219.79 108.931C218.747 107.913 218.305 106.505 218.107 105.091C217.908 103.676 217.8 102.204 217.416 100.835C216.699 98.0892 215.304 95.6572 213.467 93.91C211.63 92.15 209.377 91.1452 207.246 90.8252C205.108 90.4924 203.099 90.8892 201.588 91.6828C200.059 92.4636 198.996 93.5388 198.318 94.518C197.64 95.51 197.32 96.3932 197.172 97.0012C197.019 97.6092 197.032 97.942 197.032 97.942C197.128 97.9804 197.147 96.566 198.523 94.6652C199.214 93.7372 200.27 92.726 201.755 92.0092C203.22 91.2796 205.14 90.934 207.182 91.2796C209.211 91.6124 211.361 92.6044 213.102 94.3004C214.849 95.99 216.174 98.3324 216.846 100.988C217.211 102.313 217.3 103.715 217.499 105.187C217.691 106.633 218.177 108.24 219.342 109.379C220.468 110.524 221.966 111.216 223.489 111.67C225.025 112.137 226.612 112.342 228.168 112.7C229.71 113.052 231.214 113.539 232.424 114.448C233.646 115.337 234.574 116.56 235.201 117.884C236.449 120.566 236.462 123.625 235.406 126.147C234.92 127.433 234.337 128.7 234.126 130.07C233.883 131.433 234.248 132.88 235.048 133.904C236.648 136.003 238.971 136.822 240.654 137.993C242.408 139.113 243.489 140.739 243.976 142.307C244.481 143.868 244.5 145.334 244.308 146.48C243.892 148.777 242.913 149.788 243.009 149.833Z" fill="#455A64"/>
<path d="M223.962 135.285C220.647 142.914 220.033 151.682 222.254 159.695C222.919 162.088 223.828 164.572 223.265 166.991C222.65 169.608 220.462 171.503 218.868 173.666C216.116 177.391 215.047 182.306 215.994 186.837C216.948 191.368 219.905 195.439 223.918 197.743C224.34 195.336 226.58 193.698 228.788 192.648C230.996 191.599 233.434 190.824 235.124 189.058C236.807 187.285 237.287 184.04 235.329 182.581C240.961 181.109 244.154 174.415 242.97 168.712C241.786 163.01 237.146 158.504 231.873 156.034" fill="#263238"/>
<path d="M229.969 192.123C228.964 192.673 227.985 193.166 227.857 194.312C227.71 195.649 228.996 198.005 229.457 199.272C230.359 201.749 229.681 204.731 227.787 206.568C225.899 208.411 222.904 209.006 220.446 208.04C222.251 208.181 223.78 206.421 223.94 204.616C224.1 202.817 223.23 201.077 222.155 199.624C221.079 198.171 219.78 196.878 218.865 195.317C217.009 192.136 214.257 183.489 216.375 178.645" fill="#263238"/>
<path d="M235.098 182.803C235.092 182.797 235.213 182.695 235.444 182.509C235.68 182.33 236.02 182.055 236.448 181.696C237.3 180.973 238.509 179.879 239.738 178.291C240.954 176.717 242.202 174.631 242.855 172.071C243.495 169.53 243.54 166.503 242.439 163.667C241.888 162.253 241.076 160.999 240.122 159.93C239.181 158.848 238.157 157.901 237.191 156.986C236.224 156.071 235.316 155.181 234.567 154.253C233.812 153.325 233.242 152.359 232.845 151.424C232.026 149.549 231.994 147.815 232.282 146.72C232.429 146.17 232.608 145.767 232.762 145.511C232.916 145.255 232.999 145.127 233.012 145.133C233.056 145.152 232.666 145.671 232.41 146.752C232.167 147.834 232.237 149.511 233.063 151.335C233.46 152.243 234.036 153.184 234.784 154.087C235.533 154.989 236.442 155.866 237.408 156.775C238.375 157.683 239.412 158.631 240.372 159.731C241.344 160.819 242.189 162.112 242.752 163.565C243.885 166.483 243.821 169.581 243.149 172.167C242.464 174.778 241.178 176.883 239.917 178.458C238.65 180.039 237.408 181.12 236.525 181.818C236.084 182.163 235.725 182.419 235.476 182.586C235.239 182.733 235.104 182.816 235.098 182.803Z" fill="#455A64"/>
<path d="M51.1592 259.247C52.7784 261.276 55.62 260.393 56.8744 259.01C58.1288 257.634 58.5768 255.721 58.98 253.897C59.9016 249.737 60.8168 245.372 59.6776 241.263C59.3384 240.034 58.7944 238.825 57.86 237.954C56.9256 237.084 55.5496 236.623 54.34 237.026C52.9064 237.5 52.0936 238.985 51.524 240.38C49.8536 244.482 49.1176 248.969 49.38 253.391C49.508 255.465 49.8856 257.615 51.1592 259.247Z" fill="#6088F0"/>
<g opacity="0.2">
<g opacity="0.2">
<path opacity="0.2" d="M51.1592 259.247C52.7784 261.276 55.62 260.393 56.8744 259.01C58.1288 257.634 58.5768 255.721 58.98 253.897C59.9016 249.737 60.8168 245.372 59.6776 241.263C59.3384 240.034 58.7944 238.825 57.86 237.954C56.9256 237.084 55.5496 236.623 54.34 237.026C52.9064 237.5 52.0936 238.985 51.524 240.38C49.8536 244.482 49.1176 248.969 49.38 253.391C49.508 255.465 49.8856 257.615 51.1592 259.247Z" fill="black"/>
</g>
</g>
<path d="M57.4017 269.634C59.7505 268.226 62.5985 267.887 65.3249 268.162C66.7905 268.309 68.3265 268.649 69.3761 269.673C70.4321 270.697 70.7393 272.604 69.6641 273.609C69.0241 274.21 68.0897 274.351 67.2193 274.396C65.1073 274.505 62.7457 274.281 61.1393 275.657C60.2241 276.444 59.6609 277.685 58.5281 278.114C57.4273 278.537 56.1153 277.948 55.4561 276.969C54.7969 275.989 54.6945 274.722 54.8993 273.564C54.8993 273.564 55.0337 271.049 57.4017 269.634Z" fill="#6088F0"/>
<path d="M47.277 262.543C48.7682 260.527 48.8962 257.718 48.0322 255.369C47.1618 253.02 45.4146 251.081 43.4434 249.532C41.133 247.721 38.4642 246.364 35.6354 245.564C34.5218 245.251 33.357 245.02 32.2114 245.199C31.0722 245.379 29.9522 246.044 29.4786 247.1C28.781 248.662 29.6578 250.447 30.573 251.894C32.1858 254.441 34.0034 256.854 35.9938 259.113C37.5938 260.931 39.4114 262.71 41.7282 263.433C44.045 264.156 46.381 263.907 47.4818 262.262" fill="#6088F0"/>
<path d="M53.0717 291.24C53.0973 291.24 53.1229 290.894 53.1485 290.267C53.1741 289.563 53.1997 288.674 53.2381 287.624C53.2893 286.51 53.3725 285.186 53.5901 283.726C53.8077 282.28 54.1853 280.699 54.7037 279.086C55.2413 277.486 55.9325 276.014 56.7709 274.824C57.6029 273.627 58.6013 272.731 59.5549 272.194C60.5085 271.643 61.3789 271.394 61.9805 271.266C62.5885 271.163 62.9341 271.093 62.9341 271.067C62.9341 271.042 62.5885 271.054 61.9549 271.112C61.3341 271.195 60.4253 271.406 59.4141 271.944C58.4029 272.469 57.3405 273.378 56.4701 274.606C55.5869 275.829 54.8765 277.326 54.3261 278.958C53.8013 280.597 53.4237 282.19 53.2253 283.675C53.0269 285.154 52.9757 286.491 52.9565 287.611C52.9437 288.731 52.9693 289.64 52.9949 290.267C53.0141 290.894 53.0461 291.24 53.0717 291.24Z" fill="#263238"/>
<path d="M53.1328 289.206C53.1456 289.206 53.1456 289.052 53.1328 288.758C53.1136 288.425 53.0816 287.996 53.0496 287.478C52.9792 286.37 52.8768 284.764 52.8128 282.774C52.6592 278.799 52.6592 273.308 52.9408 267.247C53.2288 261.186 53.7664 255.714 54.3232 251.785C54.4512 250.799 54.5856 249.91 54.72 249.135C54.8416 248.354 54.9504 247.682 55.0528 247.138C55.1424 246.626 55.2128 246.21 55.2704 245.878C55.3152 245.59 55.3344 245.436 55.3216 245.43C55.3088 245.43 55.264 245.577 55.1936 245.858C55.1168 246.185 55.0208 246.601 54.8992 247.106C54.7712 247.65 54.6432 248.316 54.496 249.097C54.3424 249.871 54.1888 250.761 54.0416 251.746C53.408 255.682 52.8256 261.161 52.5376 267.234C52.256 273.308 52.3072 278.812 52.5248 282.793C52.6272 284.783 52.768 286.39 52.8896 287.497C52.9536 288.015 53.0048 288.438 53.0496 288.77C53.088 289.058 53.1136 289.206 53.1328 289.206Z" fill="#263238"/>
<path d="M52.4943 278.615C52.5199 278.615 52.4879 278.135 52.3983 277.278C52.2959 276.42 52.0975 275.191 51.7647 273.687C51.4127 272.19 50.9391 270.411 50.2543 268.491C49.5951 266.564 48.7247 264.491 47.6559 262.391C45.5567 258.167 42.8495 254.782 40.5455 252.721C40.0015 252.171 39.4127 251.787 38.9327 251.403C38.6895 251.217 38.4655 251.038 38.2479 250.891C38.0239 250.756 37.8191 250.635 37.6335 250.519C36.8911 250.078 36.4751 249.847 36.4623 249.873C36.4047 249.963 38.1199 250.833 40.3535 252.926C42.5743 255.019 45.2111 258.385 47.2975 262.571C48.3599 264.651 49.2303 266.705 49.9023 268.612C50.5999 270.513 51.0991 272.273 51.4831 273.751C51.8543 275.236 52.0911 276.459 52.2383 277.303C52.3791 278.148 52.4623 278.622 52.4943 278.615Z" fill="#263238"/>
<path d="M150.141 132.185C148.963 128.006 143.523 128.409 143.523 128.409L143.671 131.315C146.813 130.771 148.765 134.457 148.765 134.457L150.141 132.185Z" fill="#6088F0"/>
<path d="M96.666 83.5352C93.7348 83.8488 93.3828 87.5288 93.3828 87.5288L95.3476 87.7592C95.3476 85.596 98.0292 84.7064 98.0292 84.7064L96.666 83.5352Z" fill="#6088F0"/>
<path d="M123.984 44.5133C125.776 49.0701 131.824 48.0141 131.824 48.0141L131.332 44.7693C127.869 45.7293 125.264 41.8125 125.264 41.8125L123.984 44.5133Z" fill="#6088F0"/>
<path d="M55.7285 121.543C52.7973 121.857 52.4453 125.537 52.4453 125.537L54.4101 125.767C54.4101 123.604 57.0917 122.714 57.0917 122.714L55.7285 121.543Z" fill="#6088F0"/>
<path d="M67.8257 59.079C68.2545 56.1606 64.7729 54.9062 64.7729 54.9062L64.0625 56.7494C66.1617 57.2806 66.3537 60.1094 66.3537 60.1094L67.8257 59.079Z" fill="#6088F0"/>
<path d="M17.665 103.891C17.1402 108.467 23.201 109.574 23.201 109.574L24.2954 106.579C20.6602 106.253 20.129 101.965 20.129 101.965L17.665 103.891Z" fill="#6088F0"/>
<path d="M161.777 81.8014C164.721 81.9678 165.668 78.3902 165.668 78.3902L163.767 77.8398C163.422 79.9774 160.625 80.4126 160.625 80.4126L161.777 81.8014Z" fill="#6088F0"/>
</svg>
