<svg width="18" height="20" viewBox="0 0 18 20" fill="none" xmlns="http://www.w3.org/2000/svg">
<path d="M12.5982 8.79884C12.5982 9.75362 12.2189 10.6693 11.5438 11.3444C10.8686 12.0196 9.95296 12.3988 8.99818 12.3988C8.0434 12.3988 7.12772 12.0196 6.45259 11.3444C5.77746 10.6693 5.39818 9.75362 5.39818 8.79884C5.39818 7.84406 5.77746 6.92839 6.45259 6.25325C7.12772 5.57812 8.0434 5.19884 8.99818 5.19884C9.95296 5.19884 10.8686 5.57812 11.5438 6.25325C12.2189 6.92839 12.5982 7.84406 12.5982 8.79884ZM11.3982 8.79884C11.3982 8.16232 11.1453 7.55187 10.6952 7.10178C10.2451 6.6517 9.6347 6.39884 8.99818 6.39884C8.36166 6.39884 7.75121 6.6517 7.30112 7.10178C6.85103 7.55187 6.59818 8.16232 6.59818 8.79884C6.59818 9.43536 6.85103 10.0458 7.30112 10.4959C7.75121 10.946 8.36166 11.1988 8.99818 11.1988C9.6347 11.1988 10.2451 10.946 10.6952 10.4959C11.1453 10.0458 11.3982 9.43536 11.3982 8.79884ZM14.9382 14.7448C16.5137 13.1685 17.3987 11.0311 17.3987 8.80244C17.3987 6.57378 16.5137 4.43634 14.9382 2.86004C14.1583 2.07965 13.2323 1.46058 12.2131 1.03821C11.1939 0.615835 10.1014 0.398438 8.99818 0.398438C7.89491 0.398438 6.80246 0.615835 5.78325 1.03821C4.76404 1.46058 3.83804 2.07965 3.05818 2.86004C1.48269 4.43634 0.597656 6.57378 0.597656 8.80244C0.597656 11.0311 1.48269 13.1685 3.05818 14.7448L4.88338 16.5436L7.33498 18.9256L7.49458 19.0672C8.42458 19.8208 9.78658 19.7728 10.6626 18.9256L13.5846 16.0816L14.9382 14.7448ZM3.90418 3.70604C4.57302 3.03689 5.36715 2.50608 6.2412 2.14393C7.11524 1.78177 8.05208 1.59537 8.99818 1.59537C9.94428 1.59537 10.8811 1.78177 11.7552 2.14393C12.6292 2.50608 13.4233 3.03689 14.0922 3.70604C15.4058 5.02058 16.1611 6.79162 16.2005 8.64962C16.2398 10.5076 15.5602 12.3091 14.3034 13.678L14.0922 13.8988L12.507 15.4636L9.83098 18.0652L9.71818 18.1612C9.5107 18.3176 9.25797 18.4021 8.99818 18.4021C8.73839 18.4021 8.48566 18.3176 8.27818 18.1612L8.16658 18.0652L4.59058 14.5792L3.90418 13.8988L3.69298 13.6792C2.43615 12.3103 1.75651 10.5088 1.79586 8.65082C1.83521 6.79282 2.59052 5.02178 3.90418 3.70724V3.70604Z" fill="black" stroke="black" stroke-width="0.3"/>
</svg>
