<svg width="295" height="418" viewBox="0 0 295 418" fill="none" xmlns="http://www.w3.org/2000/svg">
<path d="M60.7594 17.4929V23.9609H62.9154V17.4929L68.2614 8.05494H65.9074L62.3874 14.4129C62.1014 14.9409 62.0574 15.0729 61.8594 15.4689C61.6834 15.0949 61.5514 14.7869 61.3314 14.4129L57.7894 8.05494H55.3694L60.7594 17.4929ZM67.1133 18.5709C67.1133 21.8929 69.4893 24.2249 72.7233 24.2249C75.9353 24.2249 78.3113 21.8929 78.3113 18.5709C78.3113 15.2489 75.9353 12.9169 72.7233 12.9169C69.4893 12.9169 67.1133 15.2489 67.1133 18.5709ZM69.2033 18.5709C69.2033 16.3269 70.6333 14.7649 72.7233 14.7649C74.7913 14.7649 76.2433 16.3269 76.2433 18.5709C76.2433 20.8149 74.7913 22.3769 72.7233 22.3769C70.6333 22.3769 69.2033 20.8149 69.2033 18.5709ZM87.7787 13.2029V18.8789C87.7787 21.1889 86.7447 22.3989 84.8527 22.3989C83.2687 22.3989 82.2787 21.5189 82.2787 19.2089V13.2029H80.2107V19.8909C80.2107 22.5309 81.6187 24.2249 84.1267 24.2249C85.7107 24.2249 87.1407 23.4549 87.7567 22.3329L87.9767 23.9609H89.8247V13.2029H87.7787ZM98.9851 13.1149C98.5671 13.0269 98.2591 12.9829 97.8851 12.9829C96.4111 12.9829 95.3331 13.7309 94.8931 14.8529L94.7611 13.2249H92.8251V23.9609H94.8931V18.2629C94.8931 16.1949 96.1031 15.0069 98.0611 15.0069H98.9851V13.1149ZM106.236 18.5929C106.236 21.9809 108.326 24.2249 111.494 24.2249C114.09 24.2249 116.092 22.6629 116.51 20.3309H114.442C114.068 21.6069 112.968 22.3769 111.494 22.3769C109.536 22.3769 108.282 20.8809 108.282 18.5709C108.282 16.2389 109.624 14.7429 111.582 14.7429C112.968 14.7429 114.068 15.4689 114.42 16.8329H116.488C116.114 14.4349 114.222 12.8949 111.516 12.8949C108.37 12.8949 106.236 15.2269 106.236 18.5929ZM121.838 24.2249C123.576 24.2249 125.05 23.4549 125.6 22.2229L125.82 23.9609H127.58V17.2069C127.58 14.3029 125.776 12.8949 123.114 12.8949C120.342 12.8949 118.494 14.3689 118.494 16.6129H120.298C120.298 15.3149 121.288 14.5449 123.026 14.5449C124.478 14.5449 125.556 15.1829 125.556 16.9869V17.2949L122.168 17.5589C119.638 17.7569 118.164 18.9889 118.164 20.9689C118.164 22.9269 119.528 24.2249 121.838 24.2249ZM122.432 22.6189C121.09 22.6189 120.254 22.0469 120.254 20.9029C120.254 19.8469 121.002 19.1429 122.828 18.9669L125.578 18.7469V19.3189C125.578 21.3429 124.39 22.6189 122.432 22.6189ZM136.604 13.1149C136.186 13.0269 135.878 12.9829 135.504 12.9829C134.03 12.9829 132.952 13.7309 132.512 14.8529L132.38 13.2249H130.444V23.9609H132.512V18.2629C132.512 16.1949 133.722 15.0069 135.68 15.0069H136.604V13.1149ZM142.01 23.9609V14.9409H144.122V13.2029H142.01V9.83694H139.942V13.2029H137.83V14.9409H139.942V23.9609H142.01ZM153.005 10.6509C153.753 10.6509 154.369 10.0349 154.369 9.28694C154.369 8.51694 153.753 7.92294 153.005 7.92294C152.257 7.92294 151.641 8.51694 151.641 9.28694C151.641 10.0349 152.257 10.6509 153.005 10.6509ZM151.993 23.9609H154.061V13.2029H151.993V23.9609ZM156.183 20.8369C156.183 22.8829 157.789 24.2249 160.319 24.2249C162.871 24.2249 164.631 22.9269 164.631 20.8809C164.631 19.2749 163.729 18.4389 161.903 17.9989L160.011 17.5369C158.955 17.2729 158.427 16.7889 158.427 16.0629C158.427 15.0729 159.153 14.5009 160.451 14.5009C161.705 14.5009 162.431 15.1829 162.475 16.2609H164.455C164.411 14.2149 162.871 12.8949 160.517 12.8949C158.141 12.8949 156.469 14.1489 156.469 16.1289C156.469 17.7129 157.371 18.6589 159.285 19.1209L161.177 19.5609C162.299 19.8469 162.651 20.2869 162.651 21.0129C162.651 22.0029 161.815 22.5969 160.363 22.5969C158.999 22.5969 158.163 21.9369 158.163 20.8369H156.183ZM177.582 24.2249C180.244 24.2249 182.048 22.9269 182.576 20.6169H180.64C180.288 21.8489 179.232 22.5089 177.626 22.5089C175.58 22.5089 174.392 21.2549 174.238 18.9889L182.554 18.9669V18.1969C182.554 15.0069 180.552 12.8949 177.494 12.8949C174.37 12.8949 172.236 15.2269 172.236 18.5929C172.236 21.9369 174.414 24.2249 177.582 24.2249ZM177.494 14.6329C179.32 14.6329 180.486 15.8209 180.486 17.6029H174.282C174.546 15.7109 175.69 14.6329 177.494 14.6329ZM186.932 23.9609V17.5809C186.932 15.8649 187.966 14.7869 189.528 14.7869C190.98 14.7869 191.904 15.7109 191.904 17.4049V23.9609H193.95V17.5809C193.95 15.8649 194.984 14.7649 196.546 14.7649C197.998 14.7649 198.944 15.7329 198.944 17.4269V23.9609H200.968V16.9209C200.968 14.4349 199.472 12.8949 197.008 12.8949C195.336 12.8949 194.038 13.7309 193.532 15.0729C192.982 13.7309 191.794 12.8949 190.122 12.8949C188.604 12.8949 187.46 13.5989 186.91 14.6109L186.712 13.2029H184.864V23.9609H186.932ZM203.835 28.7789H205.903V22.2009C206.607 23.5209 208.037 24.2469 209.753 24.2469C212.943 24.2469 214.747 21.7829 214.747 18.5049C214.747 15.2049 212.833 12.8949 209.753 12.8949C208.037 12.8949 206.585 13.6649 205.859 15.1389L205.705 13.2029H203.835V28.7789ZM205.925 18.5929C205.925 16.3489 207.201 14.7869 209.313 14.7869C211.425 14.7869 212.679 16.3709 212.679 18.5929C212.679 20.7929 211.425 22.3769 209.313 22.3769C207.201 22.3769 205.925 20.7929 205.925 18.5929ZM219.955 23.9609V14.9409H222.067V13.2029H219.955V9.83694H217.887V13.2029H215.775V14.9409H217.887V23.9609H219.955ZM222.889 28.7789C223.439 28.9109 224.011 28.9989 224.693 28.9989C226.343 28.9989 227.421 28.2289 228.147 26.3809L233.229 13.2029H231.095L227.905 21.8709L224.781 13.2029H222.603L226.937 24.5329L226.563 25.5669C226.057 26.9309 225.265 27.0849 224.275 27.0849H222.889V28.7789ZM237.41 19.1869C237.63 17.5589 237.806 14.6549 237.806 11.7509V8.05494H235.43V11.7509C235.43 14.6109 235.584 17.5369 235.804 19.1869H237.41ZM236.618 24.2689C237.454 24.2689 238.18 23.5649 238.18 22.7069C238.18 21.8489 237.454 21.1449 236.618 21.1449C235.738 21.1449 235.034 21.8489 235.034 22.7069C235.034 23.5649 235.738 24.2689 236.618 24.2689Z" fill="black"/>
<path d="M159.561 286.844H100.196V332.632H159.561V286.844Z" fill="#EBEBEB"/>
<path d="M144.69 332.311C144.61 332.311 144.542 322.102 144.542 309.511C144.542 296.92 144.61 286.711 144.69 286.711C144.77 286.711 144.838 296.92 144.838 309.511C144.838 322.102 144.77 332.311 144.69 332.311Z" fill="#E0E0E0"/>
<path d="M154.528 322.211H149.979V327.358H154.528V322.211Z" fill="#FAFAFA"/>
<path d="M125.053 286.969H118.31V296.739H125.053V286.969Z" fill="#E0E0E0"/>
<path d="M125.053 322.727H118.31V332.496H125.053V322.727Z" fill="#E0E0E0"/>
<path d="M267.286 275.367H192.427V333.102H267.286V275.367Z" fill="#EBEBEB"/>
<path d="M248.527 332.69C248.447 332.69 248.379 319.825 248.379 303.95C248.379 288.076 248.447 275.211 248.527 275.211C248.607 275.211 248.675 288.076 248.675 303.95C248.675 319.825 248.612 332.69 248.527 332.69Z" fill="#E0E0E0"/>
<path d="M260.936 319.953H255.196V326.44H260.936V319.953Z" fill="#FAFAFA"/>
<path d="M223.766 275.516H215.261V287.833H223.766V275.516Z" fill="#E0E0E0"/>
<path d="M223.766 320.609H215.261V332.927H223.766V320.609Z" fill="#E0E0E0"/>
<path d="M51.4322 277.061C54.4646 275.499 58.0328 275.294 61.3958 275.853C63.2027 276.149 65.0837 276.69 66.3149 278.047C67.5461 279.404 67.7741 281.792 66.3662 282.96C65.5226 283.656 64.3541 283.758 63.2597 283.747C60.6263 283.713 57.7079 283.251 55.6046 284.836C54.4019 285.742 53.6039 287.241 52.1846 287.686C50.7653 288.13 49.1978 287.292 48.4568 286.027C47.7713 284.707 47.6202 283.174 48.035 281.746C48.2029 280.757 48.5967 279.819 49.1859 279.007C49.7751 278.194 50.5438 277.528 51.4322 277.061Z" fill="#EBEBEB"/>
<path d="M44.4896 263.66C46.3421 266.305 49.9445 265.433 51.6146 263.814C53.2847 262.196 53.9915 259.859 54.6299 257.63C56.1005 252.528 57.5768 247.176 56.4881 241.983C56.2259 240.409 55.5335 238.937 54.4874 237.731C53.9577 237.139 53.2825 236.695 52.5287 236.444C51.7748 236.193 50.9685 236.144 50.1896 236.3C48.3713 236.779 47.2427 238.58 46.4276 240.251C44.0244 245.243 42.7664 250.709 42.7454 256.25C42.7454 258.832 43.0361 261.534 44.4896 263.66Z" fill="#EBEBEB"/>
<path d="M39.4052 267.462C41.4173 265.073 41.7992 261.596 40.9043 258.604C40.0094 255.611 37.9859 253.069 35.6546 250.989C32.9126 248.55 29.7221 246.668 26.261 245.448C24.9196 244.906 23.4767 244.661 22.0316 244.73C21.3107 244.771 20.6108 244.988 19.9928 245.362C19.3749 245.735 18.8577 246.254 18.4862 246.873C17.4944 248.76 18.4463 251.046 19.4723 252.915C21.2791 256.205 23.3412 259.348 25.6397 262.315C27.4922 264.697 29.6297 267.051 32.4284 268.129C35.2271 269.206 38.1797 269.08 39.6731 267.125" fill="#EBEBEB"/>
<path d="M44.3643 303.573C44.4633 303.181 44.5206 302.779 44.5353 302.376C44.6208 301.498 44.7234 300.398 44.8545 299.092C45.0179 297.477 45.2633 295.872 45.5898 294.282C46.0181 292.337 46.6033 290.431 47.3397 288.582C48.0619 286.744 49.0385 285.017 50.241 283.452C51.224 282.178 52.4753 281.137 53.9061 280.402C54.8791 279.922 55.9217 279.599 56.9955 279.444C57.3997 279.429 57.801 279.369 58.1925 279.268C57.789 279.223 57.3819 279.223 56.9784 279.268C55.8633 279.352 54.7725 279.636 53.7579 280.106C52.247 280.818 50.9222 281.872 49.8876 283.184C48.6291 284.77 47.6147 286.536 46.878 288.422C46.1425 290.294 45.5703 292.226 45.168 294.196C44.8579 295.806 44.6428 297.434 44.5239 299.07C44.4213 300.466 44.3814 301.595 44.3643 302.376C44.3223 302.773 44.3223 303.175 44.3643 303.573Z" fill="#E0E0E0"/>
<path d="M44.5923 301.059C44.6261 300.871 44.6376 300.679 44.6265 300.489C44.6265 300.067 44.6265 299.537 44.6265 298.893C44.6265 297.508 44.6265 295.501 44.6949 293.027C44.8203 288.08 45.2649 282.767 46.0686 275.249C46.8495 268.187 47.8926 259.973 48.9984 254.632C49.2321 253.418 49.4715 252.324 49.6995 251.366C49.9275 250.409 50.0928 249.576 50.2695 248.909C50.4462 248.243 50.5431 247.769 50.6457 247.359C50.7014 247.174 50.734 246.982 50.7426 246.789C50.6567 246.955 50.5916 247.131 50.5488 247.313C50.4234 247.718 50.2695 248.22 50.0814 248.841C49.8933 249.462 49.6653 250.329 49.4259 251.281C49.1865 252.233 48.9129 253.327 48.6564 254.541C47.2871 260.858 46.2577 267.243 45.5727 273.67C44.7519 281.194 44.3814 288.046 44.3472 293.005C44.3472 295.484 44.3472 297.496 44.4327 298.881C44.4726 299.525 44.5068 300.056 44.5296 300.472C44.5268 300.669 44.5478 300.866 44.5923 301.059Z" fill="#E0E0E0"/>
<path d="M44.6265 287.847C44.6699 287.291 44.6699 286.732 44.6265 286.177C44.5638 285.105 44.4156 283.56 44.1135 281.662C43.7407 279.443 43.2421 277.247 42.6201 275.084C41.9012 272.423 40.9809 269.82 39.867 267.298C37.9599 262.651 35.223 258.391 31.7901 254.724C31.1945 254.094 30.5585 253.504 29.8863 252.957C29.5956 252.706 29.3163 252.461 29.0769 252.267L28.3701 251.76C27.9265 251.421 27.4556 251.12 26.9622 250.859C26.8824 250.968 28.9515 252.187 31.5621 254.963C34.8828 258.664 37.5469 262.905 39.4395 267.503C40.5342 270.009 41.4578 272.585 42.204 275.215C42.8308 277.358 43.3501 279.531 43.7601 281.725C44.1021 283.6 44.3301 285.145 44.4213 286.194C44.4457 286.749 44.5143 287.302 44.6265 287.847Z" fill="#E0E0E0"/>
<path d="M30.9692 309.141L32.2916 327.284H55.5989L56.9213 309.141H30.9692Z" fill="#EBEBEB"/>
<path d="M59.6973 301.992H28.7178V309.14H59.6973V301.992Z" fill="#EBEBEB"/>
<path d="M28.7178 326.586V328.564H30.177H59.19V326.586H28.7178Z" fill="#E0E0E0"/>
<path d="M31.602 331.832L30.177 328.344H58.0785L56.4141 331.832H31.602Z" fill="#E0E0E0"/>
<path d="M56.4881 315.068C56.459 315.129 56.4227 315.186 56.3798 315.239C56.2886 315.358 56.1689 315.512 56.0321 315.7L54.6755 317.41L54.6128 317.49L54.5558 317.41L51.2213 312.799H51.4094L48.1263 317.445L48.0237 317.593L47.9096 317.456L44.0165 312.822H44.2388L44.0279 313.096L40.5452 317.456L40.4255 317.604L40.3229 317.45L37.034 312.805H37.2278L33.1808 317.41L33.1124 317.496L33.0554 317.399L31.79 315.301C31.6532 315.073 31.5506 314.885 31.4651 314.731C31.4222 314.668 31.3877 314.599 31.3625 314.526C31.4159 314.581 31.4619 314.642 31.4993 314.709L31.8584 315.25L33.1865 317.342H33.0611L37.0511 312.679L37.148 312.56L37.2392 312.685L40.5566 317.314H40.34L43.8113 312.942C43.8854 312.85 43.9595 312.759 44.0222 312.674L44.1363 312.531L44.2502 312.668L48.1319 317.314H47.9153L51.2327 312.691L51.3296 312.554L51.4209 312.691C52.7376 314.566 53.8547 316.156 54.6869 317.353H54.5672L55.9809 315.643C56.1348 315.467 56.2601 315.324 56.357 315.205C56.3973 315.156 56.4412 315.11 56.4881 315.068Z" fill="#F5F5F5"/>
<path d="M57.2463 309.017C57.2463 309.097 51.4038 309.166 44.2047 309.166C37.0056 309.166 31.1631 309.097 31.1631 309.017C31.1631 308.938 36.9999 308.875 44.2047 308.875C51.4095 308.875 57.2463 308.938 57.2463 309.017Z" fill="#F5F5F5"/>
<path d="M220.701 103.334L215.924 103.359L216.053 127.128L220.829 127.102L220.701 103.334Z" fill="#E0E0E0"/>
<path d="M186.912 103.402L174.543 103.469L174.614 116.59L186.983 116.523L186.912 103.402Z" fill="#EBEBEB"/>
<path d="M199.223 103.332L186.854 103.398L186.925 116.52L199.294 116.453L199.223 103.332Z" fill="#F5F5F5"/>
<path d="M174.558 107.096C182.781 107.165 191.008 107.127 199.239 106.982C199.274 106.982 199.307 106.968 199.332 106.944C199.356 106.919 199.37 106.886 199.37 106.851C199.37 106.816 199.356 106.783 199.332 106.758C199.307 106.734 199.274 106.72 199.239 106.72C191.019 106.674 182.777 106.72 174.558 106.874C174.533 106.88 174.51 106.894 174.494 106.914C174.478 106.934 174.469 106.959 174.469 106.985C174.469 107.011 174.478 107.036 174.494 107.056C174.51 107.076 174.533 107.09 174.558 107.096Z" fill="#E0E0E0"/>
<path d="M189.307 116.3L166.833 116.422L166.89 127.115L189.365 126.993L189.307 116.3Z" fill="#EBEBEB"/>
<path d="M211.673 116.183L189.198 116.305L189.256 126.998L211.731 126.876L211.673 116.183Z" fill="#F5F5F5"/>
<path d="M166.846 119.41C181.774 119.575 196.754 119.41 211.688 119.188C211.722 119.188 211.756 119.174 211.78 119.149C211.805 119.125 211.819 119.091 211.819 119.056C211.819 119.022 211.805 118.988 211.78 118.964C211.756 118.939 211.722 118.925 211.688 118.925C196.759 118.846 181.774 118.851 166.846 119.182C166.815 119.182 166.786 119.194 166.765 119.215C166.744 119.237 166.732 119.266 166.732 119.296C166.732 119.326 166.744 119.355 166.765 119.376C166.786 119.398 166.815 119.41 166.846 119.41Z" fill="#E0E0E0"/>
<path d="M245.511 127.125H158.438V130.955H245.511V127.125Z" fill="#E0E0E0"/>
<path d="M176.228 128.969H172.694V142.039H176.228V128.969Z" fill="#E0E0E0"/>
<path d="M228.993 128.969H225.459V142.039H228.993V128.969Z" fill="#E0E0E0"/>
<path d="M225.361 94.4663L220.584 94.4922L220.761 127.181L225.538 127.155L225.361 94.4663Z" fill="#EBEBEB"/>
<path d="M232.821 100.554L225.399 100.594L225.543 127.087L232.964 127.047L232.821 100.554Z" fill="#F5F5F5"/>
<path d="M232.772 105.672C230.305 105.846 227.829 105.846 225.362 105.672C227.829 105.505 230.305 105.505 232.772 105.672Z" fill="#E0E0E0"/>
<path d="M232.772 104.592C231.539 104.716 230.3 104.758 229.061 104.717C227.823 104.758 226.583 104.716 225.351 104.592C227.818 104.417 230.294 104.417 232.761 104.592H232.772Z" fill="#E0E0E0"/>
<path d="M232.772 123.07C230.305 123.245 227.829 123.245 225.362 123.07C227.829 122.904 230.305 122.904 232.772 123.07Z" fill="#E0E0E0"/>
<path d="M232.772 121.959C230.305 122.125 227.829 122.125 225.362 121.959C227.829 121.785 230.305 121.785 232.772 121.959Z" fill="#E0E0E0"/>
<path d="M229.181 119.535C229.113 119.535 229.056 116.862 229.056 113.567C229.056 110.273 229.113 107.594 229.181 107.594C229.249 107.594 229.312 110.267 229.312 113.567C229.312 116.868 229.255 119.535 229.181 119.535Z" fill="#E0E0E0"/>
<path d="M240.934 107.07H232.857V127.066H240.934V107.07Z" fill="#EBEBEB"/>
<path d="M222.9 101.435C223.658 101.435 224.273 100.82 224.273 100.061C224.273 99.3025 223.658 98.6875 222.9 98.6875C222.141 98.6875 221.526 99.3025 221.526 100.061C221.526 100.82 222.141 101.435 222.9 101.435Z" fill="#E0E0E0"/>
<path d="M223.327 103.844H222.478V123.292H223.327V103.844Z" fill="#E0E0E0"/>
<path d="M269.856 332.789C269.856 332.874 215.068 332.937 147.506 332.937C79.9436 332.937 25.1438 332.874 25.1438 332.789C25.1438 332.703 79.9208 332.641 147.506 332.641C215.091 332.641 269.856 332.709 269.856 332.789Z" fill="#263238"/>
<path d="M90.0496 123.594C92.7376 126.883 94.1931 131.008 94.165 135.256C94.1365 137.661 93.6919 140.312 95.0941 142.267C96.1543 143.749 98.0923 144.496 98.953 146.103C99.9904 148.035 99.1069 150.481 99.7453 152.578C100.646 155.554 104.134 156.802 106.203 159.122C107.085 160.148 107.702 161.374 108.001 162.694C108.299 164.013 108.269 165.386 107.913 166.691C107.536 167.991 106.855 169.183 105.925 170.166C104.995 171.15 103.844 171.897 102.567 172.346C101.203 172.883 99.6826 172.859 98.3374 172.277C96.9409 171.582 96.0574 170.151 95.3734 168.755C93.9997 166.007 81.9328 151.159 81.2488 148.161" fill="#263238"/>
<path d="M81.2717 120.097C76.3355 119.299 71.5817 122.576 69.5126 127.125C67.4435 131.673 67.3751 136.815 67.2326 141.831C67.0901 146.847 66.7253 152.045 64.1774 156.343C62.5586 159.073 60.0506 161.473 59.6573 164.614C59.3039 167.429 60.7631 170.268 60.2786 173.067C59.8568 175.506 57.9986 177.627 58.0727 180.095C58.1639 183.07 61.2248 185.31 64.1945 185.39C67.1642 185.47 69.9458 183.914 72.2771 182.067C76.0754 179.051 79.1148 175.188 81.152 170.787" fill="#263238"/>
<path d="M73.1492 131.86C72.9941 130.619 73.0901 129.359 73.4314 128.155C73.7727 126.951 74.3523 125.828 75.136 124.852C75.9196 123.877 76.8913 123.068 77.9932 122.476C79.0952 121.883 80.305 121.517 81.551 121.401C86.5271 120.922 90.956 124.633 91.7027 129.58C92.3582 133.918 92.9168 138.296 92.8997 139.886C92.837 144.68 90.0497 146.544 88.9097 147.108C88.4996 147.255 88.0756 147.36 87.6443 147.421V147.456L88.7045 152.962C89.189 156.57 87.1769 159.802 83.5745 160.309C79.9721 160.816 77.1392 158.063 76.5863 154.455L73.1492 131.86Z" fill="#FFBE9D"/>
<path d="M90.7223 131.682C90.6425 131.796 90.0098 131.46 89.2004 131.58C88.391 131.699 87.8495 132.189 87.7469 132.104C87.6443 132.018 87.7469 131.876 87.9977 131.648C88.3094 131.344 88.7078 131.145 89.1377 131.078C89.5595 131.013 89.9911 131.085 90.3689 131.283C90.6539 131.466 90.7622 131.637 90.7223 131.682Z" fill="#263238"/>
<path d="M83.506 133.437C83.4262 133.551 82.7935 133.209 81.9784 133.329C81.1633 133.448 80.6332 133.944 80.5306 133.859C80.428 133.773 80.5306 133.625 80.7814 133.403C81.0931 133.099 81.4915 132.9 81.9214 132.833C82.3438 132.773 82.7744 132.846 83.1526 133.044C83.4319 133.22 83.5459 133.386 83.506 133.437Z" fill="#263238"/>
<path d="M86.4645 137.788C86.8722 137.592 87.3031 137.448 87.747 137.361C87.9522 137.309 88.1403 137.241 88.1574 137.093C88.1389 136.885 88.0596 136.686 87.9294 136.523L87.0801 135.007C85.9002 132.886 85.0167 131.131 85.1022 131.079C85.1877 131.028 86.2422 132.721 87.3822 134.841C87.6729 135.366 87.9522 135.867 88.203 136.34C88.3686 136.572 88.4491 136.854 88.431 137.138C88.4122 137.216 88.3756 137.289 88.3242 137.35C88.2728 137.411 88.2079 137.46 88.1346 137.492C88.0234 137.54 87.9066 137.575 87.7869 137.594C87.3564 137.716 86.9118 137.782 86.4645 137.788Z" fill="#263238"/>
<path d="M87.5987 147.431C87.5987 147.431 84.5036 148.143 80.24 146.359C80.24 146.359 82.0811 150.321 87.8894 148.913L87.5987 147.431Z" fill="#EB996E"/>
<path d="M83.0898 131.313C83.0442 131.546 82.2178 131.558 81.283 131.814C80.3482 132.071 79.6129 132.436 79.459 132.259C79.3906 132.173 79.4931 131.945 79.7724 131.689C80.1485 131.367 80.5929 131.135 81.0719 131.011C81.5508 130.887 82.0519 130.873 82.5369 130.971C82.9131 131.056 83.0898 131.204 83.0898 131.313Z" fill="#263238"/>
<path d="M90.0553 129.885C89.9413 130.09 89.3542 129.982 88.6816 130.067C88.009 130.153 87.4561 130.375 87.2965 130.198C87.2281 130.113 87.2965 129.919 87.5131 129.708C87.812 129.443 88.1871 129.279 88.5847 129.241C88.9773 129.193 89.375 129.267 89.7247 129.451C89.9983 129.605 90.1066 129.782 90.0553 129.885Z" fill="#263238"/>
<path d="M81.7447 134.487C81.7572 134.575 81.7872 134.66 81.8328 134.736C81.8783 134.813 81.9387 134.88 82.0103 134.933C82.0819 134.986 82.1633 135.024 82.2498 135.045C82.3363 135.067 82.4262 135.071 82.5142 135.057C82.5998 135.047 82.6826 135.02 82.7577 134.978C82.8329 134.936 82.8989 134.879 82.9519 134.811C83.005 134.743 83.044 134.666 83.0667 134.583C83.0894 134.499 83.0954 134.413 83.0842 134.327C83.0575 134.15 82.9615 133.99 82.8172 133.883C82.673 133.776 82.4923 133.731 82.3147 133.757C82.2288 133.766 82.1456 133.793 82.0701 133.835C81.9946 133.876 81.9282 133.933 81.8751 134.001C81.8219 134.069 81.7829 134.147 81.7605 134.231C81.7382 134.314 81.7328 134.401 81.7447 134.487Z" fill="#263238"/>
<path d="M88.9325 132.932C88.9592 133.11 89.0552 133.269 89.1994 133.376C89.3437 133.483 89.5244 133.528 89.702 133.502C89.7876 133.492 89.8703 133.466 89.9455 133.423C90.0206 133.381 90.0866 133.325 90.1397 133.257C90.1927 133.189 90.2317 133.111 90.2544 133.028C90.2771 132.945 90.2831 132.858 90.272 132.773C90.2452 132.595 90.1492 132.435 90.005 132.329C89.8607 132.222 89.68 132.176 89.5025 132.203C89.4166 132.212 89.3334 132.238 89.2578 132.28C89.1823 132.322 89.116 132.378 89.0628 132.447C89.0096 132.515 88.9707 132.593 88.9483 132.676C88.9259 132.76 88.9205 132.847 88.9325 132.932Z" fill="#263238"/>
<path d="M87.7413 139.358C87.5175 139.288 87.2764 139.299 87.0599 139.389C86.8433 139.478 86.6649 139.641 86.5557 139.848C86.4513 140.038 86.4089 140.257 86.4345 140.472C86.46 140.688 86.5522 140.89 86.6982 141.051C86.8535 141.203 87.0581 141.296 87.2753 141.311C87.4924 141.327 87.7081 141.265 87.8838 141.136C88.1036 140.936 88.2366 140.658 88.2543 140.361C88.293 140.089 88.2279 139.812 88.0719 139.586C87.9918 139.475 87.8775 139.394 87.7466 139.355C87.6158 139.316 87.4757 139.321 87.348 139.369" fill="#EB996E"/>
<path d="M91.07 125.678C90.6226 123.872 89.5061 122.303 87.9464 121.289C86.6697 120.367 85.1532 119.834 83.5802 119.756C81.9975 119.687 80.4522 120.249 79.2824 121.317C78.4524 122.14 77.9776 123.255 77.96 124.424L78.0512 123.626C77.8117 124.275 77.8117 124.989 78.0512 125.638C78.1823 125.986 78.3419 126.339 78.4787 126.687C78.8868 127.692 79.6437 128.515 80.6105 129.007C81.0483 129.242 81.5387 129.361 82.0355 129.354C82.2842 129.349 82.5289 129.29 82.7523 129.181C82.9758 129.072 83.1727 128.915 83.3294 128.722C83.6833 128.104 83.7931 127.376 83.6372 126.681C84.0112 127.368 84.545 127.954 85.1933 128.391C85.5243 128.603 85.9181 128.694 86.3084 128.649C86.6988 128.604 87.0618 128.427 87.3365 128.146C87.8039 127.576 87.6215 126.675 87.3365 125.969C87.7775 126.635 88.3952 127.166 89.1206 127.502C89.3115 127.611 89.523 127.68 89.7418 127.704C89.9606 127.727 90.1819 127.705 90.3917 127.639C90.5594 127.555 90.7061 127.435 90.8207 127.287C90.9352 127.139 91.0146 126.967 91.0529 126.784C91.1375 126.421 91.1434 126.043 91.07 125.678Z" fill="#263238"/>
<path d="M86.9488 127.197C86.8975 127.197 86.9089 126.519 86.6866 125.487C86.4302 124.116 85.7409 122.864 84.7201 121.913C84.159 121.403 83.4821 121.037 82.7479 120.847C82.1466 120.7 81.5204 120.684 80.9125 120.802C80.3522 120.933 79.817 121.154 79.3279 121.457C79.3279 121.457 79.4248 121.315 79.6756 121.132C80.0355 120.881 80.4397 120.699 80.8669 120.597C81.5061 120.447 82.1713 120.447 82.8106 120.597C83.5982 120.793 84.3236 121.185 84.9196 121.737C85.9885 122.726 86.6864 124.052 86.8975 125.493C86.9653 125.919 86.9996 126.35 87.0001 126.781C87.0071 126.922 86.9898 127.063 86.9488 127.197Z" fill="#455A64"/>
<path d="M139.446 193.654L117.529 184.961C117.529 184.961 106.306 170.238 106.54 169.953L98.6567 178.583L110.114 194.081L136.67 200.306L141.23 199.04C140.227 194.201 139.446 193.654 139.446 193.654Z" fill="#FFBE9D"/>
<path d="M91.6799 151.648L88.6931 150.508L75.7997 152.144V154.424L75.4292 154.469C72.6499 155.06 69.9842 156.096 67.5347 157.536C65.2403 158.937 63.4173 160.991 62.3 163.436C61.1827 165.881 60.8221 168.604 61.2647 171.256C61.7891 174.516 62.8037 178.478 64.7645 180.769C68.5094 185.152 71.9294 179.737 71.9294 179.737C71.9294 179.737 74.2778 185.095 74.141 187.632C74.027 189.758 73.0922 194.181 72.7901 195.561C72.7777 195.616 72.7767 195.673 72.7871 195.728C72.7974 195.784 72.819 195.837 72.8505 195.884C72.8819 195.931 72.9226 195.971 72.9701 196.001C73.0175 196.032 73.0707 196.053 73.1264 196.062L100.327 201.095L100.458 194.443L99.5915 167.083L98.366 156.459C98.366 156.459 98.4059 151.386 91.6799 151.648Z" fill="#6088F0"/>
<path d="M97.95 154.688L108.324 169.673L99.9734 179.842L97.95 154.688Z" fill="#6088F0"/>
<path d="M100.19 186.225C100.153 185.903 100.139 185.579 100.15 185.256C100.15 184.583 100.15 183.699 100.116 182.622C100.065 179.731 99.858 176.844 99.4946 173.975C99.0671 170.612 98.4116 167.608 97.9157 165.425L97.3115 162.86C97.2239 162.55 97.1591 162.234 97.1177 161.914C97.2473 162.21 97.3503 162.517 97.4255 162.832C97.6022 163.402 97.8416 164.297 98.1152 165.38C98.8511 168.192 99.4108 171.048 99.791 173.93C100.157 176.811 100.336 179.712 100.327 182.616C100.327 183.756 100.298 184.634 100.264 185.256C100.267 185.58 100.242 185.904 100.19 186.225Z" fill="#263238"/>
<path d="M74.6539 163.439C74.6539 163.484 73.8673 163.478 72.6076 163.541C70.964 163.63 69.3292 163.842 67.717 164.174C66.1052 164.512 64.5202 164.967 62.9746 165.536C61.789 165.975 61.0765 166.3 61.0537 166.254C61.1998 166.14 61.3609 166.046 61.5325 165.975C61.846 165.804 62.3134 165.587 62.9005 165.342C65.9762 164.072 69.2633 163.392 72.5905 163.336C73.2289 163.336 73.7305 163.336 74.101 163.37C74.2877 163.364 74.4743 163.387 74.6539 163.439Z" fill="#FAFAFA"/>
<path d="M98.6793 170.297C98.2624 170.449 97.8274 170.544 97.3854 170.582C95.2777 170.89 93.1423 170.962 91.0185 170.799C90.575 170.791 90.1343 170.726 89.7075 170.605C90.1475 170.566 90.59 170.566 91.0299 170.605C91.8393 170.605 92.9622 170.605 94.1991 170.605C95.436 170.605 96.5532 170.48 97.3626 170.405C97.7973 170.33 98.238 170.293 98.6793 170.297Z" fill="#FAFAFA"/>
<path d="M103.439 163.52C102.811 164.246 102.058 164.854 101.216 165.315C100.421 165.853 99.5342 166.239 98.5996 166.455C98.5654 166.376 99.7396 165.885 101.062 165.042C102.384 164.198 103.382 163.452 103.439 163.52Z" fill="#FAFAFA"/>
<path d="M99.2496 156.574C97.4512 158.192 95.1598 159.156 92.7458 159.31C92.7458 159.219 94.3134 158.98 96.1146 158.21C97.9158 157.441 99.1926 156.5 99.2496 156.574Z" fill="#FAFAFA"/>
<path d="M99.8138 181.903C99.6461 182.015 99.4664 182.109 99.278 182.182C98.9189 182.353 98.4002 182.564 97.739 182.809C96.0212 183.426 94.2479 183.877 92.4437 184.154C90.6396 184.433 88.8126 184.534 86.9888 184.456C86.2877 184.428 85.7234 184.377 85.3358 184.325C85.1329 184.312 84.9321 184.275 84.7373 184.217C84.7373 184.166 85.6037 184.217 87.0173 184.251C90.6414 184.285 94.2469 183.731 97.6934 182.61C98.993 182.182 99.7967 181.857 99.8138 181.903Z" fill="#FAFAFA"/>
<path d="M100.025 189.625C100.025 189.625 99.945 189.682 99.7797 189.767L99.0501 190.087C98.4231 190.383 97.494 190.771 96.3312 191.227C95.1684 191.683 93.7605 192.122 92.1759 192.555C88.7309 193.482 85.1949 194.031 81.6309 194.191C79.9893 194.253 78.513 194.248 77.2704 194.191C76.0278 194.134 75.0303 194.043 74.3406 193.946L73.5483 193.837C73.4549 193.831 73.3629 193.811 73.2747 193.78C73.3672 193.766 73.4614 193.766 73.554 193.78L74.352 193.832C75.0417 193.889 76.062 193.946 77.2761 193.98C78.4902 194.014 79.9893 193.98 81.6195 193.923C83.2497 193.866 85.0395 193.661 86.9034 193.353C88.7673 193.045 90.5229 192.674 92.1075 192.275C93.6921 191.876 95.0943 191.426 96.2571 191.01C97.4199 190.594 98.3661 190.246 99.0045 189.984L99.7455 189.693C99.8359 189.661 99.9295 189.638 100.025 189.625Z" fill="#FAFAFA"/>
<path d="M50.0299 310.805L46.9462 324.73L41.3203 335.041C41.2247 335.217 41.1661 335.411 41.1484 335.611C41.1306 335.81 41.1539 336.011 41.217 336.201C41.28 336.392 41.3814 336.567 41.5149 336.716C41.6483 336.866 41.8111 336.986 41.9929 337.07C42.2041 337.167 42.4354 337.212 42.6675 337.201C42.8995 337.19 43.1256 337.124 43.3267 337.008C45.9373 335.503 55.519 329.9 55.6843 328.868C55.8838 327.677 59.9137 314.396 59.9137 314.396L50.0299 310.805Z" fill="#6088F0"/>
<g opacity="0.6">
<path d="M41.9929 337.065L55.918 327.945L55.7698 328.515C55.648 329.024 55.3489 329.473 54.9262 329.781C53.7862 330.596 50.6113 332.785 43.3723 337.014C43.1645 337.136 42.9298 337.204 42.6891 337.213C42.4484 337.222 42.2092 337.171 41.9929 337.065Z" fill="white"/>
</g>
<g opacity="0.6">
<path d="M54.168 322.768C53.9669 322.852 53.8039 323.007 53.7103 323.204C53.6166 323.401 53.599 323.625 53.6607 323.834C53.7368 324.037 53.888 324.204 54.083 324.299C54.2781 324.395 54.5023 324.412 54.7095 324.347C54.9249 324.258 55.0992 324.092 55.1983 323.881C55.2974 323.67 55.3142 323.43 55.2453 323.207C55.1444 323.005 54.9701 322.85 54.7581 322.772C54.5461 322.695 54.3126 322.702 54.1053 322.791" fill="white"/>
</g>
<path d="M46.6442 331.787C46.4142 331.274 46.0915 330.808 45.6923 330.413C45.2325 330.092 44.7161 329.862 44.1704 329.734C44.1704 329.695 44.3699 329.632 44.7062 329.666C45.1438 329.722 45.5557 329.905 45.8918 330.19C46.2305 330.465 46.4804 330.834 46.61 331.251C46.7069 331.576 46.6784 331.787 46.6442 331.787Z" fill="#263238"/>
<path d="M45.2021 333.405C45.1223 333.451 44.786 332.892 44.1191 332.51C43.6937 332.313 43.2557 332.143 42.8081 332.003C43.0542 331.922 43.3159 331.901 43.5716 331.942C43.8274 331.983 44.0698 332.084 44.2787 332.237C45.0368 332.676 45.2819 333.388 45.2021 333.405Z" fill="#263238"/>
<path d="M49.061 329.863C48.5763 329.325 48.0503 328.826 47.4878 328.37C46.8681 327.992 46.2202 327.662 45.5498 327.383C46.3207 327.368 47.0721 327.626 47.6702 328.113C48.3296 328.51 48.8235 329.131 49.061 329.863Z" fill="#263238"/>
<path d="M50.3548 325.706C50.2978 325.78 49.6081 325.273 48.6448 324.994C47.6815 324.714 46.8094 324.76 46.8037 324.663C47.4381 324.499 48.1052 324.509 48.7343 324.693C49.3634 324.876 49.9312 325.226 50.3776 325.706H50.3548Z" fill="#263238"/>
<path d="M51.3636 321.644C50.8076 321.3 50.2074 321.034 49.5795 320.852C48.9327 320.764 48.2769 320.764 47.6301 320.852C47.6301 320.817 47.8068 320.681 48.1716 320.572C48.6511 320.442 49.1545 320.426 49.6414 320.525C50.1284 320.624 50.5854 320.835 50.976 321.142C51.2667 321.416 51.3864 321.621 51.3636 321.644Z" fill="#263238"/>
<path d="M49.7904 320.081C49.7909 319.9 49.8297 319.722 49.9044 319.557C50.0659 319.086 50.322 318.654 50.6568 318.286C50.8759 317.994 51.1841 317.782 51.5346 317.682C51.654 317.662 51.7765 317.679 51.8862 317.73C51.996 317.78 52.0879 317.863 52.1502 317.967C52.255 318.179 52.2773 318.423 52.2129 318.651C52.0668 319.108 51.7662 319.5 51.3628 319.76C50.9593 320.02 50.478 320.131 50.0013 320.076C49.5312 320.009 49.0915 319.804 48.7375 319.488C48.3835 319.171 48.1311 318.757 48.012 318.297C47.9847 318.18 47.9822 318.059 48.0048 317.941C48.0274 317.823 48.0745 317.712 48.1431 317.613C48.2219 317.521 48.3279 317.457 48.4457 317.429C48.5636 317.401 48.6872 317.412 48.7986 317.459C49.1208 317.62 49.3958 317.862 49.5966 318.16C49.8987 318.556 50.1284 319.002 50.2749 319.477C50.3444 319.647 50.3774 319.83 50.3718 320.013C50.1421 319.398 49.8212 318.822 49.4199 318.303C49.2331 318.059 48.9908 317.864 48.7131 317.733C48.6521 317.706 48.5841 317.7 48.5193 317.716C48.4546 317.731 48.3966 317.767 48.354 317.818C48.3142 317.886 48.2886 317.96 48.2788 318.038C48.269 318.115 48.2752 318.194 48.297 318.269C48.4159 318.656 48.6417 319.001 48.9482 319.265C49.2548 319.529 49.6297 319.702 50.0298 319.762C50.433 319.809 50.8401 319.718 51.1848 319.504C51.5296 319.289 51.7915 318.964 51.9279 318.582C51.9832 318.427 51.9832 318.258 51.9279 318.103C51.8956 318.045 51.8458 317.998 51.7855 317.97C51.7251 317.941 51.6573 317.932 51.5916 317.944C51.2946 318.025 51.0299 318.197 50.8335 318.434C50.3963 318.921 50.0437 319.478 49.7904 320.081Z" fill="#263238"/>
<g opacity="0.3">
<path d="M49.6537 312.315L48.9868 315.507L59.0701 317.183L59.9137 314.396L50.0128 310.805L49.6537 312.315Z" fill="black"/>
</g>
<path d="M95.0598 315.958L94.2276 327.085C94.2276 327.085 105.263 331.645 105.308 333.742L83.6484 332.904L84.2184 315.508L95.0598 315.958Z" fill="#6088F0"/>
<g opacity="0.6">
<path d="M87.5872 325.887C87.3769 325.943 87.1947 326.075 87.0749 326.256C86.9552 326.438 86.9062 326.657 86.9374 326.873C86.9853 327.085 87.1122 327.271 87.2922 327.392C87.4722 327.514 87.6918 327.563 87.9064 327.528C88.1299 327.469 88.3236 327.329 88.4499 327.135C88.5762 326.942 88.6263 326.708 88.5904 326.48C88.5184 326.263 88.3654 326.083 88.1635 325.977C87.9617 325.87 87.7266 325.846 87.5074 325.91" fill="white"/>
</g>
<g opacity="0.6">
<path d="M83.6599 332.904L83.7853 331.148L104.505 332.591C104.505 332.591 105.457 333.047 105.32 333.731L83.6599 332.904Z" fill="white"/>
</g>
<path d="M94.5925 326.984C94.5925 327.092 94.0567 327.121 93.5266 327.44C92.9965 327.759 92.7001 328.192 92.6032 328.147C92.5063 328.101 92.6887 327.497 93.3385 327.121C93.9883 326.745 94.621 326.887 94.5925 326.984Z" fill="#263238"/>
<path d="M96.8269 328.029C96.8269 328.137 96.3823 328.297 96.0061 328.73C95.6299 329.163 95.5102 329.63 95.4019 329.625C95.2936 329.619 95.2537 329.015 95.7325 328.485C96.2113 327.955 96.8269 327.915 96.8269 328.029Z" fill="#263238"/>
<path d="M98.0125 330.777C97.9156 330.777 97.7903 330.259 98.081 329.694C98.3717 329.13 98.879 328.913 98.9189 329.005C98.9588 329.096 98.6453 329.392 98.4116 329.86C98.1779 330.327 98.1151 330.772 98.0125 330.777Z" fill="#263238"/>
<path d="M94.4899 324.43C94.4443 324.521 93.9655 324.356 93.3499 324.373C92.7343 324.39 92.2783 324.561 92.2099 324.47C92.1415 324.379 92.6203 324.019 93.3499 324.008C94.0795 323.997 94.5583 324.35 94.4899 324.43Z" fill="#263238"/>
<g opacity="0.3">
<path d="M94.9061 318.165L94.7579 320.148L84.1274 319.635L84.2015 317.344L94.9061 318.165Z" fill="black"/>
</g>
<path d="M94.6323 322.181C94.2742 322.268 93.8989 322.252 93.5493 322.135C93.1542 322.053 92.7711 321.921 92.4093 321.742C92.1983 321.638 91.9946 321.52 91.7994 321.389C91.6804 321.316 91.5729 321.225 91.4802 321.121C91.4174 321.039 91.3833 320.939 91.3833 320.836C91.3833 320.733 91.4174 320.633 91.4802 320.551C91.5357 320.479 91.6075 320.421 91.6898 320.382C91.7721 320.344 91.8625 320.325 91.9533 320.329C92.0906 320.334 92.2266 320.357 92.358 320.397C92.5861 320.463 92.8075 320.551 93.0192 320.659C93.3792 320.835 93.7083 321.068 93.9939 321.349C94.4784 321.833 94.6323 322.238 94.5981 322.255C94.5639 322.272 94.3188 321.947 93.8229 321.543C93.5318 321.315 93.2141 321.124 92.8767 320.973C92.6756 320.889 92.4701 320.817 92.2611 320.756C92.0331 320.688 91.8393 320.682 91.7766 320.756C91.7139 320.83 91.7766 320.813 91.7766 320.881C91.845 320.957 91.9237 321.022 92.0103 321.075C92.1932 321.202 92.3835 321.319 92.5803 321.423C92.909 321.604 93.2546 321.753 93.612 321.868C93.9592 321.948 94.3001 322.052 94.6323 322.181Z" fill="#263238"/>
<path d="M94.49 322.33C94.3006 322.011 94.2149 321.641 94.2449 321.27C94.2471 320.869 94.3125 320.471 94.4387 320.09C94.5205 319.867 94.6215 319.652 94.7408 319.446C94.8048 319.305 94.9039 319.183 95.0287 319.091C95.1534 318.999 95.2996 318.941 95.4533 318.922C95.5506 318.928 95.6441 318.962 95.7228 319.02C95.8016 319.077 95.8623 319.156 95.8979 319.247C95.9474 319.375 95.9781 319.509 95.9891 319.646C96.0265 319.888 96.0265 320.134 95.9891 320.375C95.9128 320.778 95.7386 321.156 95.4818 321.475C95.0372 322.045 94.5926 322.131 94.5812 322.097C94.5698 322.063 94.9231 321.852 95.2708 321.322C95.4704 321.019 95.6008 320.677 95.6527 320.318C95.6816 320.11 95.6816 319.899 95.6527 319.691C95.6242 319.463 95.5444 319.27 95.4589 319.292C95.3734 319.315 95.1625 319.452 95.0656 319.634C94.9544 319.817 94.8572 320.007 94.775 320.204C94.643 320.549 94.5586 320.909 94.5241 321.276C94.45 321.914 94.547 322.33 94.49 322.33Z" fill="#263238"/>
<path d="M72.6703 195.959C72.6703 195.959 69.2503 196.113 66.9703 207.81C64.6903 219.506 47.311 314.28 47.311 314.28L59.9137 314.394L83.6599 224.288L82.081 317.198L94.8832 318.179C94.8832 318.179 104.488 215.413 104.573 209.434C104.687 201.979 100.407 194.438 100.407 194.438L72.6703 195.959Z" fill="#263238"/>
<path d="M89.9926 194.961C90.0724 194.961 88.7614 201.658 87.0685 209.884C85.3756 218.109 83.9392 224.766 83.8594 224.749C83.7796 224.732 85.0849 218.052 86.7778 209.827C88.4707 201.601 89.9299 194.944 89.9926 194.961Z" fill="#455A64"/>
<path d="M91.9535 196.635C91.9535 196.6 92.2954 196.498 92.6887 196.846C92.8005 196.947 92.8889 197.071 92.9479 197.21C93.007 197.349 93.0352 197.498 93.0308 197.649C93.0165 197.84 92.9484 198.022 92.8343 198.176C92.7203 198.329 92.5651 198.447 92.3866 198.516C92.2126 198.595 92.0199 198.623 91.8304 198.598C91.641 198.573 91.4624 198.495 91.315 198.373C91.2048 198.27 91.1178 198.144 91.0599 198.005C91.0019 197.865 90.9742 197.715 90.9787 197.564C90.9787 197.039 91.3322 196.857 91.3379 196.891C91.2417 197.1 91.1912 197.328 91.1897 197.558C91.1973 197.674 91.2279 197.787 91.2798 197.891C91.3317 197.994 91.4037 198.087 91.4918 198.162C91.6042 198.24 91.7344 198.288 91.8702 198.302C92.0061 198.316 92.1433 198.296 92.2693 198.243C92.3953 198.19 92.506 198.107 92.5912 198C92.6765 197.893 92.7335 197.767 92.7572 197.632C92.7655 197.517 92.7507 197.401 92.7135 197.291C92.6763 197.181 92.6175 197.08 92.5406 196.994C92.2613 196.669 91.9478 196.68 91.9535 196.635Z" fill="#455A64"/>
<path d="M91.4121 201.258C91.4121 201.224 91.7655 201.258 91.9821 201.731C92.0371 201.866 92.0621 202.012 92.0552 202.157C92.0483 202.303 92.0097 202.445 91.9421 202.575C91.8441 202.728 91.7061 202.852 91.5429 202.933C91.3797 203.015 91.1974 203.05 91.0158 203.035C90.8341 203.02 90.6599 202.957 90.5118 202.85C90.3637 202.744 90.2473 202.6 90.1751 202.432C90.1296 202.295 90.1147 202.149 90.1314 202.005C90.1482 201.862 90.1962 201.723 90.2721 201.6C90.54 201.172 90.9047 201.184 90.8933 201.218C90.8819 201.252 90.6197 201.332 90.4544 201.697C90.3708 201.901 90.3708 202.131 90.4544 202.335C90.514 202.448 90.6011 202.545 90.7078 202.615C90.8145 202.685 90.9372 202.728 91.0646 202.738C91.192 202.748 91.3199 202.726 91.4365 202.674C91.553 202.621 91.6544 202.54 91.7313 202.438C91.8386 202.243 91.8652 202.014 91.8053 201.799C91.64 201.412 91.3836 201.298 91.4121 201.258Z" fill="#455A64"/>
<path d="M79.3337 196.742C79.3102 196.938 79.2604 197.13 79.1855 197.312C79.0074 197.834 78.7843 198.34 78.5186 198.823C77.6489 200.435 76.3928 201.807 74.8628 202.815C73.3328 203.822 71.5768 204.435 69.752 204.597C69.2039 204.645 68.6527 204.645 68.1047 204.597C67.9116 204.591 67.72 204.56 67.5347 204.506C67.5347 204.449 68.3954 204.546 69.7577 204.375C71.5332 204.159 73.2345 203.535 74.7279 202.551C76.2214 201.567 77.4662 200.25 78.3647 198.703C79.0316 197.552 79.2824 196.725 79.3337 196.742Z" fill="#455A64"/>
<path d="M103.855 205.064C103.855 205.064 103.707 204.996 103.473 204.836C103.147 204.601 102.841 204.338 102.561 204.05C101.624 203.101 100.892 201.969 100.413 200.724C99.9331 199.479 99.7156 198.149 99.7739 196.816C99.787 196.415 99.8385 196.016 99.9278 195.625C99.9905 195.346 100.03 195.198 100.053 195.203C100.076 195.209 99.9848 195.825 99.9848 196.822C99.9857 199.44 100.959 201.965 102.715 203.907C103.382 204.642 103.884 205.019 103.855 205.064Z" fill="#455A64"/>
<path d="M148.07 205.392C148.258 204.936 148.207 205.118 145.186 203.112C145.186 203.112 149.518 205.962 149.067 204.605C148.678 204.091 148.201 203.65 147.66 203.3C148.8 203.972 149.461 204.047 149.66 203.773C150.002 203.3 147.523 201.493 146.343 200.678C147.422 201.45 148.553 202.145 149.729 202.758C150.43 202.975 150.093 202.154 149.62 201.556C149.147 200.957 145.476 197.423 144.49 196.369C144.397 196.288 144.321 196.189 144.269 196.077C144.218 195.964 144.191 195.842 144.191 195.719C144.191 195.595 144.218 195.473 144.269 195.361C144.321 195.249 144.397 195.149 144.49 195.069C146.257 193.929 147.033 192.111 147.01 191.512C146.99 191.377 146.928 191.252 146.833 191.155C146.738 191.058 146.614 190.993 146.48 190.97C146.346 190.947 146.208 190.968 146.086 191.028C145.964 191.089 145.864 191.186 145.801 191.307C145.355 191.861 144.836 192.352 144.257 192.766C143.808 193.116 143.303 193.388 142.763 193.57C142.136 193.775 139.053 193.604 138.391 193.268L136.288 200.399C136.288 200.399 143.92 203.967 145.368 204.662C147.147 205.506 147.939 205.739 148.07 205.392Z" fill="#FFBE9D"/>
<path d="M143.812 202.059C143.749 202.145 144.741 202.869 146.024 203.684C147.306 204.499 148.384 205.086 148.435 205C148.486 204.915 147.494 204.185 146.218 203.376C144.941 202.567 143.869 201.951 143.812 202.059Z" fill="#EB996E"/>
<path d="M144.53 200.662C144.473 200.748 145.488 201.58 146.81 202.526C148.133 203.473 149.227 204.174 149.284 204.094C149.341 204.014 148.332 203.176 147.004 202.23C145.676 201.284 144.593 200.583 144.53 200.662Z" fill="#EB996E"/>
<path d="M145.288 199.249C145.231 199.328 146.178 200.138 147.403 201.05C148.629 201.962 149.683 202.634 149.729 202.555C149.774 202.475 148.845 201.665 147.62 200.753C146.394 199.841 145.351 199.169 145.288 199.249Z" fill="#EB996E"/>
<path d="M67.6601 173.423L73.2575 173.731C73.654 175.294 74.1841 176.819 74.8421 178.291C79.3508 170.471 82.8221 159.988 83.7113 155.776C83.5859 155.362 83.432 154.895 83.2496 154.374C83.113 153.587 83.1363 152.781 83.318 152.003C83.4719 151.068 83.7341 149.803 83.8082 149.221C84.0533 147.443 84.3383 147.158 84.9482 147.363C85.7918 147.637 84.6005 152.362 85.2902 152.464C85.6664 152.516 86.1167 150.897 86.2535 149.569C86.3903 148.241 86.9831 144.16 87.422 143.869C88.0661 143.47 88.6247 144.103 88.4651 145.425C88.3055 146.747 88.0946 150.754 88.7957 150.806C89.4968 150.857 90.0668 144.085 90.0668 144.085C90.0668 144.085 89.9585 142.615 90.7679 142.649C92.2328 142.712 91.0928 149.854 90.9674 150.532C90.8762 151 91.64 151.102 91.7084 150.578C91.7768 150.053 92.1302 143.8 93.6179 143.852C94.7579 143.892 92.7344 149.734 93.3785 151.091C94.0226 152.447 94.4672 146.491 95.5616 146.571C95.9663 146.605 96.2684 146.685 95.5217 150.053C94.793 152.732 93.9196 155.369 92.9054 157.954C91.1954 167.302 83.5631 197.204 71.6387 191.732C64.9697 188.671 61.8518 173.492 61.8518 173.492L67.6601 173.423Z" fill="#FFBE9D"/>
<path d="M92.9167 157.999C92.9265 157.928 92.9457 157.859 92.9737 157.793C93.025 157.645 93.0877 157.451 93.1732 157.223C93.3613 156.682 93.6178 155.93 93.9541 154.943C94.2904 153.957 94.6951 152.76 95.0941 151.347C95.2993 150.646 95.4703 149.882 95.6242 149.067C95.704 148.656 95.7781 148.235 95.8294 147.801C95.8436 147.587 95.8436 147.372 95.8294 147.157C95.8294 146.935 95.7781 146.753 95.6014 146.747C95.4247 146.741 95.2993 146.849 95.1739 147.038C95.0604 147.239 94.9668 147.451 94.8946 147.67C94.735 148.121 94.6096 148.599 94.4842 149.084C94.3588 149.568 94.2448 150.076 94.0966 150.589C94.032 150.87 93.916 151.136 93.7546 151.375C93.714 151.422 93.6605 151.456 93.6007 151.472C93.5631 151.48 93.5241 151.48 93.4866 151.471C93.4491 151.462 93.414 151.445 93.3841 151.421C93.3186 151.361 93.2645 151.289 93.2245 151.21C93.1643 151.07 93.124 150.922 93.1048 150.771C93.0788 149.621 93.1937 148.473 93.4468 147.351C93.5437 146.781 93.6463 146.211 93.7204 145.641C93.7546 145.35 93.7888 145.071 93.7945 144.763C93.8002 144.455 93.7546 144.131 93.6349 144.079C93.5152 144.028 93.2245 144.188 93.0649 144.427C92.9073 144.68 92.7828 144.952 92.6944 145.236C92.5 145.832 92.3533 146.442 92.2555 147.06C92.1472 147.687 92.0617 148.326 91.9876 148.976C91.9591 149.3 91.9249 149.625 91.8964 149.956L91.8508 150.452C91.8569 150.558 91.8396 150.664 91.8002 150.762C91.7608 150.861 91.7003 150.949 91.6228 151.022C91.5252 151.093 91.4074 151.132 91.2865 151.132C91.1656 151.132 91.0478 151.093 90.9502 151.022C90.8949 150.985 90.848 150.937 90.8127 150.881C90.7773 150.825 90.7542 150.763 90.745 150.697C90.7364 150.636 90.7364 150.575 90.745 150.515V150.395L90.8989 149.397C90.9958 148.725 91.0756 148.052 91.1383 147.368C91.201 146.684 91.2523 145.994 91.2637 145.305C91.2971 144.622 91.2279 143.938 91.0585 143.276C91.0192 143.107 90.9173 142.961 90.7735 142.865C90.7048 142.843 90.6308 142.843 90.5622 142.866C90.4936 142.888 90.4339 142.932 90.3916 142.991C90.207 143.328 90.1314 143.714 90.175 144.096C90.0496 145.436 89.9071 146.753 89.7133 148.046C89.6164 148.691 89.5081 149.335 89.3485 149.967C89.3029 150.121 89.2573 150.281 89.2003 150.44C89.1461 150.634 89.0324 150.805 88.8754 150.931C88.806 150.965 88.727 150.974 88.6514 150.958C88.5759 150.941 88.5081 150.899 88.4593 150.839C88.3897 150.766 88.3372 150.679 88.3054 150.583C88.2439 150.425 88.2 150.26 88.1743 150.093C88.0407 148.852 88.0293 147.602 88.1401 146.359C88.2243 145.78 88.2568 145.194 88.237 144.609C88.2186 144.36 88.1042 144.127 87.9178 143.96C87.874 143.932 87.8252 143.914 87.7743 143.906C87.7233 143.899 87.6713 143.901 87.6214 143.914C87.5681 143.932 87.5166 143.955 87.4675 143.982C87.4162 144.028 87.4219 143.982 87.3877 144.079C87.1816 144.592 87.0306 145.125 86.9374 145.67C86.8234 146.24 86.7265 146.758 86.641 147.294C86.5555 147.83 86.4757 148.354 86.4073 148.879C86.3389 149.403 86.3047 149.916 86.2021 150.429C86.1135 150.93 85.98 151.422 85.8031 151.9C85.7561 152.021 85.7009 152.139 85.6378 152.253C85.558 152.361 85.5124 152.498 85.2958 152.567C85.2404 152.577 85.1832 152.57 85.1314 152.548C85.0797 152.526 85.0357 152.488 85.0051 152.441C84.9652 152.375 84.9345 152.304 84.9139 152.23C84.8883 152.106 84.873 151.981 84.8683 151.854C84.8683 150.879 84.9994 149.99 85.0507 149.129C85.0879 148.718 85.0879 148.304 85.0507 147.893C85.0507 147.71 84.9652 147.494 84.8626 147.454C84.7908 147.418 84.7118 147.4 84.6318 147.4C84.5517 147.4 84.4728 147.418 84.4009 147.454C84.1617 147.711 84.0135 148.039 83.9791 148.388C83.8936 148.736 83.8594 149.09 83.7967 149.426C83.5573 150.771 83.3065 151.934 83.1868 152.88C83.1306 153.296 83.1306 153.718 83.1868 154.134C83.2666 154.476 83.3863 154.784 83.449 155.023C83.5117 155.263 83.5744 155.434 83.6143 155.593C83.6355 155.654 83.6508 155.717 83.6599 155.781C83.6257 155.726 83.5989 155.667 83.5801 155.605L83.3863 155.035C83.3065 154.79 83.1868 154.516 83.0899 154.14C83.0289 153.713 83.0289 153.279 83.0899 152.852C83.1982 151.888 83.4262 150.737 83.6599 149.386C83.7226 149.05 83.7568 148.696 83.8309 148.331C83.8717 148.139 83.9231 147.949 83.9848 147.761C84.0418 147.554 84.1661 147.372 84.3382 147.243C84.4418 147.188 84.5573 147.159 84.6745 147.159C84.7918 147.159 84.9072 147.188 85.0108 147.243C85.1223 147.313 85.2138 147.411 85.2767 147.526C85.3396 147.642 85.3717 147.772 85.3699 147.904C85.4098 148.332 85.4098 148.764 85.3699 149.192C85.33 150.059 85.1932 150.965 85.216 151.888C85.2202 151.998 85.2335 152.106 85.2559 152.213C85.2559 152.321 85.3357 152.367 85.3243 152.344C85.3129 152.321 85.4326 152.253 85.4782 152.162C85.5344 152.061 85.5839 151.956 85.6264 151.848C85.7952 151.386 85.9193 150.909 85.9969 150.423C86.0938 149.927 86.128 149.414 86.1964 148.884C86.2648 148.354 86.3332 147.83 86.4187 147.288C86.5042 146.747 86.6011 146.205 86.7094 145.652C86.8021 145.075 86.9628 144.511 87.1882 143.971C87.2338 143.88 87.3026 143.804 87.3877 143.749C87.4634 143.707 87.5438 143.675 87.6271 143.652C87.7227 143.624 87.8231 143.618 87.9214 143.633C88.0197 143.647 88.1137 143.683 88.1971 143.737C88.3294 143.842 88.4386 143.973 88.5181 144.122C88.5975 144.272 88.6454 144.435 88.6588 144.604C88.7016 144.914 88.7016 145.228 88.6588 145.538C88.6303 145.829 88.6018 146.108 88.5847 146.428C88.4736 147.642 88.4851 148.864 88.6189 150.076C88.6433 150.22 88.6815 150.361 88.7329 150.497C88.75 150.553 88.7792 150.603 88.8184 150.646C88.8184 150.646 88.8184 150.646 88.8469 150.646C88.8469 150.777 88.8469 150.646 88.8469 150.697C88.8469 150.748 88.8469 150.697 88.8469 150.651C88.918 150.556 88.9738 150.45 89.0122 150.338C89.0654 150.197 89.111 150.049 89.149 149.893C89.3029 149.289 89.4055 148.651 89.5024 148.012C89.6962 146.73 89.8387 145.413 89.9584 144.079V144.108C89.9077 143.638 90.0096 143.164 90.2491 142.757C90.3405 142.64 90.4659 142.555 90.6079 142.513C90.7499 142.472 90.9014 142.475 91.0414 142.523C91.161 142.59 91.266 142.679 91.3502 142.787C91.4344 142.895 91.4961 143.018 91.5316 143.15C91.7142 143.851 91.7891 144.576 91.7539 145.299C91.7539 146.006 91.6912 146.701 91.6285 147.391C91.5658 148.081 91.4803 148.759 91.3834 149.432C91.3321 149.774 91.2808 150.104 91.2295 150.44C91.1839 150.651 91.1953 150.657 91.2295 150.72C91.2691 150.746 91.3157 150.761 91.3635 150.761C91.4112 150.761 91.4578 150.746 91.4974 150.72C91.5658 150.668 91.5772 150.572 91.5943 150.383L91.6342 149.888L91.7368 148.901C91.8052 148.252 91.8964 147.602 92.0047 146.969C92.1102 146.334 92.2626 145.707 92.4607 145.094C92.5642 144.784 92.7039 144.487 92.8768 144.21C92.971 144.061 93.0952 143.933 93.2416 143.834C93.3229 143.775 93.417 143.737 93.5162 143.722C93.6154 143.707 93.7167 143.716 93.8116 143.749C93.8989 143.803 93.9726 143.876 94.027 143.963C94.0814 144.05 94.115 144.148 94.1251 144.25C94.1486 144.411 94.1582 144.573 94.1536 144.735C94.1536 145.048 94.1137 145.35 94.0795 145.652C93.9997 146.222 93.8914 146.827 93.7888 147.402C93.544 148.485 93.4254 149.593 93.4354 150.703C93.4515 150.822 93.4821 150.939 93.5266 151.05C93.5473 151.091 93.5721 151.129 93.6007 151.164C93.6007 151.164 93.6007 151.164 93.6007 151.124C93.7287 150.918 93.823 150.693 93.88 150.458C94.0282 149.962 94.1479 149.46 94.279 148.97C94.3966 148.482 94.5393 148.001 94.7065 147.528C94.7855 147.293 94.8886 147.068 95.0143 146.855C95.0823 146.739 95.1712 146.637 95.2765 146.553C95.3338 146.503 95.4022 146.468 95.476 146.45C95.5497 146.439 95.6247 146.439 95.6983 146.45C95.7761 146.458 95.8504 146.487 95.9135 146.533C95.9766 146.579 96.0263 146.641 96.0574 146.713C96.105 146.832 96.1301 146.96 96.1315 147.089C96.1359 147.319 96.1226 147.55 96.0916 147.779C96.0403 148.223 95.9548 148.645 95.875 149.061C95.7097 149.876 95.5273 150.651 95.305 151.341C94.8775 152.755 94.45 153.952 94.1023 154.926C93.7546 155.901 93.4582 156.636 93.2587 157.161C93.1618 157.4 93.082 157.588 93.025 157.731C92.9995 157.824 92.9632 157.914 92.9167 157.999Z" fill="#EB996E"/>
<path d="M61.8005 174.064C62.8835 177.889 65.0039 183.789 67.2782 190.024C67.3499 190.225 67.4796 190.4 67.6509 190.528C67.8222 190.655 68.0274 190.728 68.2405 190.738C68.4535 190.749 68.6649 190.696 68.8477 190.586C69.0306 190.476 69.1767 190.314 69.2675 190.121L74.8421 178.328C74.8421 178.328 73.4969 168.638 73.6109 168.986C73.7249 169.333 62.1083 170.24 62.1083 170.24L61.8005 174.064Z" fill="#6088F0"/>
<path d="M74.3633 172.164C74.3633 172.21 73.6679 172.415 72.5678 172.837C71.1301 173.383 69.745 174.058 68.4296 174.855C67.116 175.655 65.8761 176.571 64.7246 177.591C63.8411 178.372 63.3338 178.907 63.2996 178.873C63.2654 178.839 63.3965 178.714 63.6131 178.457C63.9184 178.101 64.2419 177.76 64.5821 177.437C65.7056 176.355 66.9442 175.399 68.2757 174.587C69.6076 173.784 71.0216 173.127 72.4937 172.626C72.9387 172.473 73.3915 172.343 73.8503 172.238C74.0162 172.186 74.1894 172.161 74.3633 172.164Z" fill="#FAFAFA"/>
<path d="M76.5748 175.112C76.2126 174.747 75.8984 174.337 75.64 173.892C74.9743 172.854 74.4021 171.76 73.93 170.621C73.4576 169.478 73.0894 168.295 72.8299 167.087C72.697 166.592 72.63 166.082 72.6304 165.57C72.8004 166.048 72.9356 166.538 73.0351 167.035C73.3404 168.216 73.7212 169.375 74.1751 170.507C74.6492 171.632 75.1937 172.727 75.8053 173.784C76.0899 174.21 76.3469 174.653 76.5748 175.112Z" fill="#263238"/>
<path d="M80.2914 122.884C79.3243 124.477 78.7248 126.267 78.5365 128.122C78.3482 129.976 78.5758 131.85 79.2027 133.605C79.7727 135.173 80.6847 136.718 80.5194 138.382C80.3541 140.046 79.0545 141.694 79.5105 143.335C79.7841 144.31 80.6163 145.045 80.9412 145.991C81.3117 147.131 80.9412 148.334 80.7417 149.503C80.2857 152.489 81.2433 155.493 81.477 158.503C81.7107 161.513 80.907 165.041 78.2166 166.352C77.4015 166.751 76.3356 166.865 75.6573 166.255C74.7909 165.485 75.0303 164.095 75.2697 162.955C77.6295 151.555 70.3392 140.428 72.0036 128.891C72.2715 127.045 73.3032 123.91 74.6313 122.621C75.9594 121.333 79.6473 121.481 80.9013 122.849" fill="#263238"/>
<path d="M69.0623 155.959C69.0623 155.959 69.41 155.549 69.923 154.739C70.6429 153.596 71.1471 152.331 71.4107 151.006C71.5826 150.093 71.642 149.163 71.5874 148.236C71.4877 147.158 71.4477 146.075 71.4677 144.992C71.5017 144.4 71.6108 143.813 71.7926 143.248C72.0009 142.666 72.2643 142.105 72.5792 141.572C73.2176 140.495 74.0213 139.492 74.7623 138.42C75.5232 137.407 76.0524 136.24 76.3127 135C76.439 133.832 76.3716 132.652 76.1132 131.506C75.8975 130.441 75.8133 129.354 75.8624 128.269C75.9302 127.32 76.1218 126.385 76.4324 125.487C76.8678 124.183 77.5532 122.977 78.4502 121.936C78.6884 121.653 78.9475 121.388 79.2254 121.144C79.3134 121.05 79.413 120.967 79.5218 120.898C79.5218 120.898 79.1399 121.269 78.5357 122.038C77.0966 123.825 76.2552 126.018 76.1303 128.308C76.0921 129.376 76.1859 130.444 76.4096 131.489C76.6815 132.666 76.7547 133.879 76.6262 135.08C76.356 136.354 75.8113 137.554 75.0302 138.597C74.2835 139.686 73.4798 140.683 72.8528 141.732C72.5444 142.244 72.2885 142.787 72.089 143.351C71.9086 143.893 71.7994 144.456 71.7641 145.027C71.7388 146.097 71.7693 147.168 71.8553 148.236C71.9005 149.181 71.8278 150.129 71.6387 151.057C71.353 152.4 70.8111 153.676 70.0427 154.813C69.8346 155.121 69.6061 155.414 69.3587 155.691C69.27 155.791 69.1706 155.881 69.0623 155.959Z" fill="#455A64"/>
<path d="M63.6587 156.806C63.7046 156.673 63.7638 156.545 63.8354 156.424C63.9779 156.156 64.1603 155.802 64.4054 155.358C64.8842 154.429 65.5967 153.078 66.2978 151.368C67.1554 149.371 67.631 147.23 67.7 145.058C67.7003 144.432 67.6527 143.807 67.5575 143.188C67.4606 142.55 67.3124 141.906 67.2155 141.233C67.097 140.538 67.1124 139.826 67.2611 139.136C67.4538 138.427 67.8502 137.791 68.4011 137.306C69.4727 136.331 70.7666 135.693 71.4392 134.547C72.0219 133.411 72.3653 132.168 72.4481 130.893C72.5687 129.725 72.8329 128.577 73.2347 127.473C74.1382 125.105 75.748 123.071 77.846 121.648C78.1805 121.423 78.5289 121.219 78.8891 121.038C79.0107 120.965 79.1409 120.908 79.2767 120.867C79.2767 120.867 78.7637 121.141 77.9144 121.745C76.7173 122.599 75.681 123.659 74.8535 124.874C74.2796 125.708 73.8123 126.61 73.4627 127.559C73.0786 128.665 72.8298 129.813 72.7217 130.979C72.5507 132.193 72.4139 133.55 71.6843 134.752C70.9547 135.955 69.6209 136.639 68.6006 137.602C68.0806 138.054 67.7058 138.649 67.5233 139.312C67.3847 139.965 67.3712 140.638 67.4834 141.296C67.5746 141.951 67.7171 142.601 67.814 143.245C67.9126 143.879 67.9584 144.519 67.9508 145.161C67.8733 147.373 67.3722 149.55 66.4745 151.573C65.8914 152.941 65.2291 154.273 64.4909 155.563L63.8867 156.458C63.8232 156.582 63.7468 156.698 63.6587 156.806Z" fill="#455A64"/>
<path d="M252.249 317.872C252.275 317.789 252.31 317.709 252.352 317.632C252.431 317.461 252.54 317.233 252.671 316.943C253.067 316.052 253.386 315.129 253.623 314.184C254.25 311.733 254.472 307.988 253.543 303.542C253.038 301.117 252.378 298.728 251.565 296.388C250.733 293.852 249.758 291.162 248.966 288.249C248.071 285.211 247.639 282.056 247.683 278.89C247.803 275.578 248.783 272.278 249.861 268.983C250.938 265.688 252.049 262.479 252.38 259.23C252.748 256.115 252.121 252.963 250.59 250.224C249.165 247.597 247.37 245.345 246.03 243.019C244.776 240.858 243.852 238.522 243.289 236.088C242.48 232.564 242.42 228.91 243.112 225.361C243.364 224.062 243.746 222.792 244.252 221.57C244.237 221.656 244.214 221.74 244.183 221.821L243.955 222.545C243.762 223.183 243.505 224.141 243.26 225.395C242.623 228.928 242.718 232.554 243.539 236.048C244.111 238.453 245.039 240.758 246.292 242.888C247.632 245.168 249.433 247.448 250.892 250.087C252.461 252.881 253.105 256.099 252.733 259.282C252.397 262.576 251.28 265.819 250.203 269.108C249.125 272.397 248.156 275.663 248.037 278.918C247.986 282.053 248.408 285.178 249.291 288.186C250.072 291.082 251.029 293.772 251.856 296.32C252.661 298.672 253.308 301.075 253.794 303.513C254.7 307.994 254.443 311.778 253.794 314.235C253.539 315.182 253.198 316.104 252.773 316.988L252.42 317.667C252.371 317.741 252.314 317.81 252.249 317.872Z" fill="#263238"/>
<path d="M247.854 245.314C247.854 245.314 245.13 236.587 250.02 231.48C250.058 231.439 250.107 231.409 250.161 231.394C250.214 231.379 250.271 231.379 250.325 231.394C250.379 231.41 250.427 231.44 250.465 231.481C250.503 231.522 250.528 231.573 250.539 231.628C250.801 233.07 251.126 237.459 247.854 245.314Z" fill="#6088F0"/>
<path d="M249.49 234.391C249.482 234.931 249.421 235.469 249.308 235.998C249.125 237.11 248.915 238.409 248.687 239.846C248.459 241.282 248.248 242.587 248.071 243.693C248.021 244.232 247.926 244.766 247.786 245.289C247.732 244.75 247.744 244.207 247.82 243.67C247.911 242.673 248.088 241.305 248.333 239.8C248.578 238.295 248.846 236.95 249.057 235.964C249.14 235.424 249.286 234.897 249.49 234.391Z" fill="#263238"/>
<path d="M251.058 265.901C251.058 265.901 252.728 256.912 259.442 254.689C259.495 254.67 259.552 254.667 259.607 254.679C259.662 254.691 259.712 254.718 259.752 254.757C259.792 254.796 259.821 254.846 259.835 254.9C259.848 254.954 259.847 255.011 259.83 255.065C259.385 256.45 257.624 260.48 251.058 265.901Z" fill="#6088F0"/>
<path d="M257.613 256.992C257.352 257.467 257.047 257.915 256.701 258.332L254.346 261.438L252.009 264.556C251.715 265.008 251.381 265.434 251.012 265.827C251.22 265.326 251.488 264.851 251.81 264.414C252.38 263.576 253.155 262.447 254.09 261.233C255.025 260.019 255.874 258.953 256.518 258.178C256.838 257.744 257.205 257.346 257.613 256.992Z" fill="#263238"/>
<path d="M249.245 288.435C249.245 288.435 248.23 279.349 254.01 275.274C254.055 275.239 254.108 275.218 254.165 275.212C254.221 275.207 254.278 275.218 254.328 275.243C254.378 275.269 254.42 275.309 254.449 275.358C254.477 275.407 254.491 275.462 254.489 275.519C254.472 276.984 253.953 281.35 249.245 288.435Z" fill="#6088F0"/>
<path d="M252.95 278.016C252.844 278.546 252.682 279.064 252.466 279.56L251.12 283.22C250.619 284.588 250.168 285.825 249.787 286.879C249.64 287.398 249.45 287.903 249.217 288.39C249.269 287.849 249.388 287.317 249.57 286.805C249.849 285.847 250.282 284.525 250.813 283.1C251.343 281.675 251.861 280.393 252.255 279.475C252.436 278.966 252.669 278.477 252.95 278.016Z" fill="#263238"/>
<path d="M254.301 311.108C254.301 311.108 253.617 301.988 259.534 298.124C259.58 298.092 259.634 298.073 259.69 298.071C259.746 298.068 259.802 298.081 259.851 298.108C259.9 298.135 259.941 298.176 259.969 298.225C259.996 298.274 260.009 298.33 260.007 298.386C259.938 299.851 259.266 304.2 254.301 311.108Z" fill="#6088F0"/>
<path d="M258.359 300.836C258.232 301.362 258.05 301.874 257.818 302.364C257.396 303.401 256.894 304.644 256.342 305.972C255.789 307.3 255.304 308.537 254.882 309.58C254.714 310.094 254.498 310.592 254.238 311.067C254.314 310.528 254.454 310 254.654 309.494C254.968 308.548 255.447 307.248 256.028 305.841C256.609 304.433 257.168 303.167 257.596 302.267C257.799 301.764 258.055 301.284 258.359 300.836Z" fill="#263238"/>
<path d="M243.933 237.653C243.933 237.653 235.85 233.412 235.673 226.349C235.673 226.294 235.687 226.24 235.715 226.192C235.743 226.144 235.784 226.104 235.832 226.078C235.88 226.051 235.935 226.038 235.991 226.039C236.046 226.041 236.1 226.057 236.146 226.087C237.349 226.919 240.689 229.792 243.933 237.653Z" fill="#6088F0"/>
<path d="M237.355 228.773C237.734 229.161 238.072 229.587 238.364 230.045C239.025 230.951 239.795 232.022 240.644 233.202L242.924 236.349C243.271 236.763 243.58 237.207 243.847 237.677C243.43 237.33 243.057 236.934 242.736 236.497C242.092 235.733 241.248 234.639 240.359 233.402C239.47 232.165 238.689 231.019 238.153 230.181C237.839 229.741 237.571 229.269 237.355 228.773Z" fill="#263238"/>
<path d="M252.637 256.386C252.637 256.386 244.292 252.652 243.705 245.601C243.7 245.546 243.711 245.49 243.735 245.44C243.76 245.391 243.798 245.349 243.846 245.319C243.893 245.29 243.947 245.274 244.003 245.273C244.058 245.273 244.113 245.288 244.161 245.316C245.409 246.074 248.915 248.731 252.637 256.386Z" fill="#6088F0"/>
<path d="M245.54 247.93C245.942 248.292 246.305 248.695 246.623 249.132L249.097 252.148L251.576 255.152C251.948 255.545 252.283 255.97 252.58 256.423C252.142 256.1 251.744 255.727 251.394 255.311C250.71 254.582 249.798 253.544 248.835 252.364C247.871 251.184 247.028 250.084 246.435 249.281C246.088 248.865 245.787 248.412 245.54 247.93Z" fill="#263238"/>
<path d="M247.82 277.297C247.82 277.297 242.12 270.172 244.782 263.617C244.803 263.566 244.838 263.521 244.883 263.488C244.927 263.455 244.98 263.435 245.036 263.431C245.091 263.426 245.147 263.437 245.197 263.462C245.246 263.486 245.288 263.525 245.318 263.572C246.11 264.809 248.008 268.776 247.82 277.297Z" fill="#6088F0"/>
<path d="M245.358 266.516C245.553 267.022 245.694 267.547 245.779 268.083C246.019 269.178 246.298 270.466 246.606 271.891C246.914 273.316 247.204 274.598 247.444 275.693C247.596 276.212 247.701 276.744 247.757 277.283C247.507 276.798 247.316 276.285 247.187 275.755C246.908 274.792 246.566 273.475 246.247 271.959C245.928 270.443 245.677 269.109 245.517 268.129C245.405 267.598 245.352 267.058 245.358 266.516Z" fill="#263238"/>
<path d="M253.52 301.876C253.52 301.876 245.238 298.005 244.77 290.949C244.765 290.892 244.775 290.836 244.8 290.785C244.826 290.734 244.864 290.692 244.912 290.662C244.961 290.633 245.016 290.617 245.073 290.617C245.129 290.617 245.184 290.634 245.232 290.664C246.458 291.445 249.918 294.163 253.52 301.876Z" fill="#6088F0"/>
<path d="M246.549 293.297C246.941 293.671 247.296 294.081 247.609 294.522L250.032 297.572L252.46 300.621C252.825 301.02 253.153 301.451 253.44 301.91C253.016 301.577 252.633 301.194 252.3 300.77C251.622 300.029 250.733 298.974 249.787 297.777C248.84 296.58 248.02 295.469 247.438 294.653C247.09 294.237 246.792 293.782 246.549 293.297Z" fill="#263238"/>
<path d="M269.999 265.938C269.999 265.938 269.999 266.006 269.999 266.137C269.999 266.268 269.999 266.485 269.999 266.707C269.999 267.277 269.942 268.001 269.902 268.924C269.799 270.874 269.645 273.593 269.469 276.842C268.899 280.148 267.189 283.813 264.909 287.375C263.25 289.997 261.489 292.38 260.007 294.597C258.654 296.543 257.439 298.581 256.37 300.696C255.662 302.125 255.09 303.618 254.66 305.153C254.518 305.695 254.404 306.122 254.341 306.413C254.314 306.565 254.274 306.713 254.221 306.858C254.223 306.704 254.242 306.551 254.278 306.402C254.318 306.105 254.404 305.672 254.535 305.119C254.918 303.557 255.463 302.038 256.159 300.588C257.219 298.456 258.432 296.404 259.79 294.449C261.283 292.214 263.011 289.826 264.664 287.221C266.915 283.676 268.591 280.068 269.224 276.813C269.452 273.57 269.64 270.857 269.794 268.907C269.868 267.984 269.93 267.248 269.976 266.696C269.976 266.468 270.016 266.274 270.033 266.126C270.014 266.065 270.002 266.001 269.999 265.938Z" fill="#263238"/>
<path d="M265.068 286.721C265.068 286.721 268.574 278.285 264.168 272.75C264.133 272.706 264.088 272.672 264.035 272.652C263.983 272.633 263.926 272.628 263.871 272.638C263.816 272.649 263.765 272.675 263.724 272.713C263.683 272.751 263.653 272.799 263.638 272.853C263.244 274.267 262.52 278.604 265.068 286.721Z" fill="#6088F0"/>
<path d="M264.43 275.695C264.581 276.216 264.675 276.751 264.709 277.291C264.835 278.283 264.971 279.657 265.08 281.179C265.188 282.701 265.239 284.08 265.239 285.083C265.274 285.625 265.241 286.168 265.142 286.702C265.044 286.17 264.996 285.63 265 285.089C264.926 283.949 264.835 282.655 264.738 281.202C264.641 279.748 264.55 278.431 264.47 277.314C264.403 276.777 264.39 276.235 264.43 275.695Z" fill="#263238"/>
<g opacity="0.3">
<path d="M265.068 286.721C265.068 286.721 268.574 278.285 264.168 272.75C264.133 272.706 264.088 272.672 264.035 272.652C263.983 272.633 263.926 272.628 263.871 272.638C263.816 272.649 263.765 272.675 263.724 272.713C263.683 272.751 263.653 272.799 263.638 272.853C263.244 274.267 262.52 278.604 265.068 286.721Z" fill="black"/>
</g>
<path d="M254.21 307.066C254.21 307.066 257.02 298.368 252.175 293.215C252.137 293.174 252.089 293.144 252.036 293.129C251.982 293.114 251.926 293.113 251.872 293.128C251.818 293.143 251.77 293.172 251.732 293.213C251.694 293.253 251.667 293.303 251.656 293.358C251.383 294.794 251.012 299.183 254.21 307.066Z" fill="#6088F0"/>
<path d="M252.677 296.109C252.874 296.616 253.012 297.144 253.087 297.683C253.292 298.657 253.537 300.02 253.771 301.524C254.005 303.029 254.164 304.403 254.25 305.4C254.324 305.939 254.333 306.484 254.278 307.025C254.143 306.501 254.051 305.968 254.005 305.429C253.839 304.317 253.646 303.018 253.435 301.576C253.224 300.134 253.019 298.834 252.865 297.722C252.749 297.192 252.686 296.652 252.677 296.109Z" fill="#263238"/>
<g opacity="0.3">
<path d="M254.21 307.066C254.21 307.066 257.02 298.368 252.175 293.215C252.137 293.174 252.089 293.144 252.036 293.129C251.982 293.114 251.926 293.113 251.872 293.128C251.818 293.143 251.77 293.172 251.732 293.213C251.694 293.253 251.667 293.303 251.656 293.358C251.383 294.794 251.012 299.183 254.21 307.066Z" fill="black"/>
</g>
<path d="M269.537 276.408C269.537 276.408 277.021 271.164 276.269 264.13C276.263 264.075 276.242 264.022 276.208 263.978C276.174 263.934 276.129 263.9 276.077 263.88C276.025 263.86 275.969 263.854 275.914 263.864C275.86 263.874 275.809 263.899 275.767 263.936C274.679 264.916 271.76 268.177 269.537 276.408Z" fill="#6088F0"/>
<g opacity="0.3">
<path d="M269.537 276.408C269.537 276.408 277.021 271.164 276.269 264.13C276.263 264.075 276.242 264.022 276.208 263.978C276.174 263.934 276.129 263.9 276.077 263.88C276.025 263.86 275.969 263.854 275.914 263.864C275.86 263.874 275.809 263.899 275.767 263.936C274.679 264.916 271.76 268.177 269.537 276.408Z" fill="black"/>
</g>
<path d="M274.912 266.758C274.764 267.28 274.555 267.783 274.291 268.257C273.863 269.158 273.242 270.389 272.518 271.734C271.794 273.079 271.099 274.27 270.563 275.114C270.299 275.588 269.98 276.028 269.611 276.425C269.811 275.923 270.059 275.442 270.352 274.989C270.888 274.003 271.521 272.851 272.216 271.569L274.074 268.149C274.308 267.659 274.588 267.193 274.912 266.758Z" fill="#263238"/>
<path d="M257.231 298.44C257.231 298.44 266.26 297.032 268.676 290.385C268.696 290.334 268.701 290.277 268.691 290.223C268.68 290.168 268.655 290.118 268.618 290.077C268.581 290.035 268.533 290.005 268.48 289.989C268.427 289.973 268.371 289.972 268.317 289.986C266.909 290.408 262.828 292.033 257.231 298.44Z" fill="#6088F0"/>
<g opacity="0.3">
<path d="M257.231 298.44C257.231 298.44 266.26 297.032 268.676 290.385C268.696 290.334 268.701 290.277 268.691 290.223C268.68 290.168 268.655 290.118 268.618 290.077C268.581 290.035 268.533 290.005 268.48 289.989C268.427 289.973 268.371 289.972 268.317 289.986C266.909 290.408 262.828 292.033 257.231 298.44Z" fill="black"/>
</g>
<path d="M266.305 292.148C265.939 292.548 265.53 292.905 265.085 293.214C264.304 293.841 263.204 294.674 261.967 295.563C260.73 296.452 259.573 297.21 258.718 297.734C258.273 298.045 257.79 298.3 257.282 298.493C257.686 298.132 258.123 297.809 258.587 297.529L261.768 295.283L264.943 293.003C265.365 292.671 265.822 292.384 266.305 292.148Z" fill="#263238"/>
<path d="M248.612 315.062L245.979 332.79H262.395L260.269 315.062H248.612Z" fill="#455A64"/>
<path d="M260.93 320.551C260.93 320.648 257.966 320.722 254.312 320.722C250.659 320.722 247.689 320.648 247.689 320.551C249.892 320.382 252.103 320.325 254.312 320.38C256.52 320.325 258.728 320.382 260.93 320.551Z" fill="#263238"/>
<path d="M261.249 321.968C261.249 322.065 258.188 322.139 254.409 322.139C250.63 322.139 247.569 322.065 247.569 321.968C247.569 321.871 250.63 321.797 254.409 321.797C258.188 321.797 261.249 321.871 261.249 321.968Z" fill="#263238"/>
<path d="M197.415 143.091C197.415 143.091 197.261 143.091 196.964 143.091C196.532 143.065 196.098 143.065 195.665 143.091C193.991 143.189 192.346 143.574 190.803 144.231C188.357 145.256 186.228 146.915 184.635 149.036C183.654 150.36 182.923 151.854 182.481 153.442C181.483 157.225 182.022 161.249 183.98 164.637C184.513 165.574 185.165 166.44 185.918 167.213C186.678 168.032 187.563 168.724 188.54 169.265C189.543 169.829 190.678 170.115 191.829 170.092C193.015 170.077 194.152 169.617 195.015 168.803C195.432 168.366 195.759 167.851 195.977 167.288C196.195 166.725 196.3 166.124 196.286 165.52C196.277 164.265 195.879 163.044 195.146 162.026C193.67 159.946 191.276 158.549 188.728 157.797C186.086 157.055 183.296 157.015 180.634 157.683C179.275 158.036 177.966 158.557 176.735 159.233C175.493 159.934 174.365 160.82 173.389 161.861C173.156 162.129 172.888 162.374 172.677 162.67L172.033 163.537C171.641 164.147 171.291 164.783 170.984 165.44C170.374 166.775 169.958 168.189 169.747 169.641C169.333 172.542 169.728 175.5 170.887 178.191C171.995 180.821 173.925 183.02 176.387 184.461C177.581 185.143 178.914 185.547 180.286 185.641C181.631 185.716 182.969 185.395 184.134 184.718C185.29 184.079 186.203 183.077 186.733 181.868C187.233 180.676 187.267 179.339 186.83 178.123C186.379 176.949 185.643 175.907 184.687 175.09C183.759 174.289 182.69 173.669 181.535 173.261C179.281 172.55 176.869 172.508 174.592 173.141C172.461 173.718 170.504 174.808 168.892 176.316C167.423 177.723 166.305 179.455 165.626 181.372C164.438 184.699 164.493 188.342 165.78 191.632C166.783 194.088 168.398 196.246 170.471 197.902C171.777 198.949 173.231 199.796 174.786 200.416C175.322 200.615 175.738 200.763 176.023 200.843L176.444 200.98C176.444 200.98 176.296 200.951 176.011 200.872C175.59 200.759 175.175 200.624 174.769 200.467C173.193 199.875 171.72 199.04 170.402 197.993C168.295 196.338 166.648 194.169 165.62 191.695C164.311 188.374 164.244 184.692 165.432 181.326C166.112 179.38 167.243 177.622 168.732 176.196C170.368 174.658 172.354 173.543 174.518 172.947C176.843 172.299 179.306 172.338 181.609 173.061C182.798 173.476 183.899 174.112 184.852 174.937C185.845 175.78 186.61 176.86 187.075 178.077C187.544 179.348 187.523 180.748 187.018 182.005C186.456 183.262 185.502 184.304 184.299 184.974C183.091 185.678 181.705 186.015 180.309 185.943C178.904 185.845 177.539 185.428 176.319 184.723C173.8 183.262 171.822 181.025 170.682 178.345C169.498 175.605 169.091 172.591 169.508 169.636C169.725 168.154 170.151 166.711 170.773 165.349C171.086 164.678 171.444 164.029 171.845 163.405L172.506 162.522C172.717 162.22 172.99 161.952 173.23 161.69C174.228 160.629 175.381 159.726 176.65 159.011C177.909 158.322 179.249 157.793 180.64 157.438C183.352 156.758 186.196 156.799 188.888 157.557C191.487 158.332 193.921 159.752 195.454 161.906C196.225 162.967 196.643 164.243 196.651 165.554C196.679 166.845 196.193 168.093 195.3 169.026C194.388 169.882 193.188 170.364 191.937 170.377C190.74 170.404 189.558 170.106 188.517 169.516C187.516 168.964 186.612 168.254 185.838 167.413C185.075 166.622 184.414 165.74 183.872 164.785C181.879 161.334 181.338 157.234 182.367 153.385C182.823 151.778 183.571 150.269 184.573 148.933C186.194 146.796 188.36 145.133 190.843 144.117C192.399 143.473 194.056 143.11 195.739 143.045C196.175 143.016 196.613 143.016 197.05 143.045L197.415 143.091Z" fill="#263238"/>
<path d="M216.447 200.125H136.527V261.765H216.447V200.125Z" fill="#6088F0"/>
<path d="M136.527 200.125L151.29 213.896H229.853L216.447 200.125H136.527Z" fill="#6088F0"/>
<path d="M136.527 200.127L216.47 199.984H216.533L216.578 200.024L229.848 213.653L229.985 213.795L230.23 214.046H229.876L151.313 213.984H151.279L136.527 200.127L151.347 213.807H151.285L229.848 213.75L229.745 214.001L229.603 213.858L216.339 200.229L216.441 200.275L136.527 200.127Z" fill="#263238"/>
<path d="M160.536 228.547C160.103 228.563 159.693 228.748 159.395 229.062C159.098 229.377 158.935 229.796 158.943 230.229C158.951 230.662 159.128 231.075 159.437 231.378C159.747 231.682 160.162 231.852 160.596 231.852C161.029 231.852 161.445 231.682 161.754 231.378C162.063 231.075 162.241 230.662 162.248 230.229C162.256 229.796 162.094 229.377 161.796 229.062C161.498 228.748 161.088 228.563 160.655 228.547" fill="#263238"/>
<path d="M179.42 228.547C178.989 228.563 178.581 228.748 178.285 229.062C177.989 229.376 177.827 229.793 177.836 230.224C177.844 230.656 178.021 231.067 178.329 231.369C178.637 231.671 179.051 231.84 179.482 231.84C179.914 231.84 180.328 231.671 180.636 231.369C180.944 231.067 181.121 230.656 181.13 230.224C181.138 229.793 180.976 229.376 180.68 229.062C180.384 228.748 179.976 228.563 179.545 228.547" fill="#263238"/>
<path d="M179.528 243.303C179.199 242.044 178.663 240.848 177.944 239.763C177.143 238.603 176.115 237.618 174.923 236.868C173.484 235.913 171.805 235.381 170.079 235.334C168.353 235.286 166.648 235.725 165.159 236.6C163.929 237.286 162.849 238.213 161.984 239.324C161.204 240.369 160.605 241.536 160.211 242.778C160.215 242.686 160.231 242.594 160.257 242.505C160.311 242.248 160.382 241.995 160.467 241.747C160.78 240.831 161.236 239.971 161.818 239.199C162.678 238.035 163.771 237.065 165.027 236.349C166.555 235.437 168.311 234.978 170.089 235.027C171.867 235.075 173.595 235.629 175.071 236.622C176.284 237.402 177.321 238.428 178.115 239.632C178.656 240.436 179.066 241.321 179.329 242.254C179.399 242.507 179.454 242.764 179.494 243.024C179.514 243.115 179.525 243.209 179.528 243.303Z" fill="#263238"/>
<path opacity="0.5" d="M136.71 200.805L150.846 218.725H216.447V213.898H151.29L136.71 200.805Z" fill="black"/>
<path d="M200.687 261.63C200.607 261.63 200.538 250.908 200.538 237.69C200.538 224.472 200.607 213.75 200.687 213.75C200.766 213.75 200.84 224.466 200.84 237.69C200.84 250.914 200.772 261.63 200.687 261.63Z" fill="#263238"/>
<path d="M213.238 247.648H206.193V255.611H213.238V247.648Z" fill="#F5F5F5"/>
<path d="M136.527 200.125L120.123 213.896H136.527V200.125Z" fill="#6088F0"/>
<g opacity="0.4">
<path d="M136.527 200.125L120.123 213.896H136.527V200.125Z" fill="black"/>
</g>
<path d="M218.807 261.766H126.917V332.639H218.807V261.766Z" fill="#6088F0"/>
<path opacity="0.3" d="M218.807 261.766H126.917V332.639H218.807V261.766Z" fill="black"/>
<path d="M195.785 332.138C195.705 332.138 195.636 316.344 195.636 296.861C195.636 277.379 195.705 261.578 195.785 261.578C195.864 261.578 195.933 277.373 195.933 296.861C195.933 316.349 195.864 332.138 195.785 332.138Z" fill="#263238"/>
<path d="M211.015 316.508H203.97V324.471H211.015V316.508Z" fill="#F5F5F5"/>
<path d="M165.386 261.953H154.95V277.075H165.386V261.953Z" fill="#263238"/>
<path d="M165.386 317.305H154.95V332.427H165.386V317.305Z" fill="#263238"/>
<path d="M218.009 261.765H217.77H217.08L214.429 261.794L204.665 261.839L172.466 261.913L140.255 261.873L130.497 261.828L127.846 261.799H127.151H126.917H127.151H127.846L130.497 261.771L140.255 261.725L172.466 261.68L204.665 261.725L214.429 261.771L217.08 261.799H217.77L218.009 261.765Z" fill="#263238"/>
<path d="M60.5295 139.06L50.5203 136.598H50.5944C48.01 138.242 45.0214 139.139 41.9589 139.191C40.1458 139.2 38.3417 138.936 36.6066 138.41C33.556 137.431 30.8497 135.599 28.8073 133.13C26.7649 130.661 25.472 127.66 25.0812 124.48C24.7743 122.075 25.0002 119.631 25.743 117.323C26.4857 115.015 27.727 112.899 29.379 111.124C30.2474 110.171 31.2207 109.318 32.2803 108.582C32.8161 108.246 33.3519 107.898 33.9105 107.608L34.7598 107.197L35.1816 106.992L35.6262 106.832C37.915 105.945 40.3703 105.57 42.8196 105.732C46.1022 105.945 49.2483 107.125 51.8612 109.124C54.4742 111.122 56.4372 113.849 57.5028 116.961C58.0948 118.702 58.4065 120.526 58.4262 122.365C58.4405 125.421 57.61 128.421 56.0265 131.035V130.943C58.8081 135.965 60.2103 138.502 60.5238 139.06C60.1989 138.49 58.7454 135.999 55.8669 131.029V130.983V130.938C57.3936 128.349 58.1821 125.392 58.1469 122.388C58.1204 120.578 57.8049 118.785 57.2121 117.075C56.1581 114.027 54.2282 111.357 51.664 109.4C49.0999 107.443 46.0154 106.286 42.7968 106.074C40.3957 105.918 37.9894 106.287 35.7459 107.157L35.3127 107.311L34.8966 107.516L34.0644 107.915C33.4944 108.206 32.9928 108.542 32.4627 108.873C31.4235 109.589 30.4676 110.419 29.6127 111.347C27.9909 113.089 26.772 115.166 26.0421 117.432C25.3122 119.697 25.0892 122.096 25.389 124.457C25.9175 128.783 28.1368 132.723 31.5621 135.418C33.0935 136.631 34.8313 137.558 36.6921 138.154C38.3961 138.681 40.1697 138.948 41.9532 138.946C44.979 138.914 47.9374 138.048 50.5032 136.444H50.5374H50.6001L60.5295 139.06Z" fill="#263238"/>
<path d="M40.34 115.025L40.8473 123.404C40.8676 123.735 41.008 124.046 41.2421 124.28C41.4763 124.515 41.7879 124.655 42.1184 124.675C42.4662 124.695 42.8083 124.581 43.0743 124.356C43.3404 124.131 43.5103 123.813 43.5491 123.467L44.4782 115.071C44.4944 114.92 44.4785 114.769 44.4315 114.625C44.3845 114.481 44.3075 114.349 44.2056 114.238C44.1037 114.126 43.9793 114.038 43.8406 113.978C43.7019 113.918 43.552 113.888 43.4009 113.891H41.366C41.2232 113.895 41.0828 113.928 40.9531 113.988C40.8234 114.048 40.7072 114.133 40.6113 114.239C40.5155 114.345 40.4421 114.469 40.3955 114.604C40.3488 114.74 40.33 114.883 40.34 115.025Z" fill="#6088F0"/>
<path d="M44.3301 129.35C44.2025 129.733 43.9643 130.069 43.6457 130.316C43.327 130.564 42.9422 130.711 42.5398 130.74C42.1373 130.769 41.7354 130.678 41.3848 130.478C41.0341 130.279 40.7505 129.98 40.5698 129.619C40.389 129.258 40.3192 128.852 40.3693 128.452C40.4193 128.051 40.5869 127.675 40.8508 127.37C41.1148 127.065 41.4633 126.844 41.8522 126.737C42.2412 126.63 42.6532 126.641 43.0362 126.768C43.2908 126.852 43.5263 126.986 43.7291 127.161C43.932 127.337 44.0983 127.551 44.2185 127.79C44.3387 128.03 44.4104 128.291 44.4295 128.559C44.4487 128.827 44.4149 129.095 44.3301 129.35Z" fill="#6088F0"/>
<path d="M28.5974 412.961L29.6214 410.081H34.4854L35.5254 412.961H37.1734L32.9334 401.393H31.1894L26.9654 412.961H28.5974ZM31.8614 403.889C31.9414 403.649 32.0214 403.377 32.0534 403.217C32.0854 403.393 32.1654 403.665 32.2454 403.889L34.0214 408.721H30.1014L31.8614 403.889ZM41.2943 413.153C42.5423 413.153 43.5983 412.609 44.1103 411.537L44.2383 412.961H45.5823V401.185H44.0943V406.401C43.5663 405.441 42.5583 404.913 41.3583 404.913C39.0383 404.913 37.6463 406.673 37.6463 409.073C37.6463 411.457 39.0223 413.153 41.2943 413.153ZM41.5983 411.793C40.0623 411.793 39.1663 410.641 39.1663 409.025C39.1663 407.425 40.0623 406.273 41.5983 406.273C43.1343 406.273 44.0783 407.425 44.0783 409.025C44.0783 410.657 43.1343 411.793 41.5983 411.793ZM50.8881 413.153C52.1361 413.153 53.1921 412.609 53.7041 411.537L53.8321 412.961H55.1761V401.185H53.6881V406.401C53.1601 405.441 52.1521 404.913 50.9521 404.913C48.6321 404.913 47.2401 406.673 47.2401 409.073C47.2401 411.457 48.6161 413.153 50.8881 413.153ZM51.1921 411.793C49.6561 411.793 48.7601 410.641 48.7601 409.025C48.7601 407.425 49.6561 406.273 51.1921 406.273C52.7281 406.273 53.6721 407.425 53.6721 409.025C53.6721 410.657 52.7281 411.793 51.1921 411.793ZM61.7208 416.465H63.2248V411.681C63.7368 412.641 64.7768 413.169 66.0248 413.169C68.3448 413.169 69.6568 411.377 69.6568 408.993C69.6568 406.593 68.2648 404.913 66.0248 404.913C64.7768 404.913 63.7208 405.473 63.1928 406.545L63.0808 405.137H61.7208V416.465ZM63.2408 409.057C63.2408 407.425 64.1688 406.289 65.7048 406.289C67.2408 406.289 68.1528 407.441 68.1528 409.057C68.1528 410.657 67.2408 411.809 65.7048 411.809C64.1688 411.809 63.2408 410.657 63.2408 409.057ZM75.7946 405.073C75.4906 405.009 75.2666 404.977 74.9946 404.977C73.9226 404.977 73.1386 405.521 72.8186 406.337L72.7226 405.153H71.3146V412.961H72.8186V408.817C72.8186 407.313 73.6986 406.449 75.1226 406.449H75.7946V405.073ZM76.4119 409.041C76.4119 411.457 78.1399 413.153 80.4919 413.153C82.8279 413.153 84.5559 411.457 84.5559 409.041C84.5559 406.625 82.8279 404.929 80.4919 404.929C78.1399 404.929 76.4119 406.625 76.4119 409.041ZM77.9319 409.041C77.9319 407.409 78.9719 406.273 80.4919 406.273C81.9959 406.273 83.0519 407.409 83.0519 409.041C83.0519 410.673 81.9959 411.809 80.4919 411.809C78.9719 411.809 77.9319 410.673 77.9319 409.041ZM89.3568 413.153C90.6048 413.153 91.6608 412.609 92.1728 411.537L92.3008 412.961H93.6448V401.185H92.1568V406.401C91.6288 405.441 90.6208 404.913 89.4208 404.913C87.1008 404.913 85.7088 406.673 85.7088 409.073C85.7088 411.457 87.0848 413.153 89.3568 413.153ZM89.6608 411.793C88.1248 411.793 87.2288 410.641 87.2288 409.025C87.2288 407.425 88.1248 406.273 89.6608 406.273C91.1968 406.273 92.1408 407.425 92.1408 409.025C92.1408 410.657 91.1968 411.793 89.6608 411.793ZM101.223 405.137V409.265C101.223 410.945 100.471 411.825 99.0946 411.825C97.9426 411.825 97.2226 411.185 97.2226 409.505V405.137H95.7186V410.001C95.7186 411.921 96.7426 413.153 98.5666 413.153C99.7186 413.153 100.759 412.593 101.207 411.777L101.367 412.961H102.711V405.137H101.223ZM104.224 409.057C104.224 411.521 105.744 413.153 108.048 413.153C109.936 413.153 111.392 412.017 111.696 410.321H110.192C109.92 411.249 109.12 411.809 108.048 411.809C106.624 411.809 105.712 410.721 105.712 409.041C105.712 407.345 106.688 406.257 108.112 406.257C109.12 406.257 109.92 406.785 110.176 407.777H111.68C111.408 406.033 110.032 404.913 108.064 404.913C105.776 404.913 104.224 406.609 104.224 409.057ZM115.491 412.961V406.401H117.027V405.137H115.491V402.689H113.987V405.137H112.451V406.401H113.987V412.961H115.491ZM117.737 410.689C117.737 412.177 118.905 413.153 120.745 413.153C122.601 413.153 123.881 412.209 123.881 410.721C123.881 409.553 123.225 408.945 121.897 408.625L120.521 408.289C119.753 408.097 119.369 407.745 119.369 407.217C119.369 406.497 119.897 406.081 120.841 406.081C121.753 406.081 122.281 406.577 122.313 407.361H123.753C123.721 405.873 122.601 404.913 120.889 404.913C119.161 404.913 117.945 405.825 117.945 407.265C117.945 408.417 118.601 409.105 119.993 409.441L121.369 409.761C122.185 409.969 122.441 410.289 122.441 410.817C122.441 411.537 121.833 411.969 120.777 411.969C119.785 411.969 119.177 411.489 119.177 410.689H117.737ZM137.696 412.961H139.456L137.664 410.913C138.224 410.017 138.544 408.865 138.544 407.553H137.088C137.088 408.417 136.944 409.185 136.688 409.809L133.92 406.657C135.408 405.649 136 404.753 136 403.601C136 402.177 134.912 401.201 133.328 401.201C131.696 401.201 130.56 402.241 130.56 403.697C130.56 404.561 130.928 405.265 131.92 406.401C130 407.393 129.088 408.529 129.088 409.953C129.088 411.889 130.72 413.169 133.2 413.169C134.656 413.169 135.888 412.721 136.784 411.921L137.696 412.961ZM131.984 403.681C131.984 402.913 132.496 402.417 133.312 402.417C134.112 402.417 134.592 402.881 134.592 403.633C134.592 404.497 134.128 405.201 133.152 405.793C132.256 404.769 131.984 404.289 131.984 403.681ZM130.656 409.841C130.656 408.801 131.232 408.049 132.672 407.249L135.92 410.929C135.28 411.553 134.416 411.873 133.344 411.873C131.664 411.873 130.656 411.105 130.656 409.841ZM143.846 410.689C143.846 412.177 145.014 413.153 146.854 413.153C148.71 413.153 149.99 412.209 149.99 410.721C149.99 409.553 149.334 408.945 148.006 408.625L146.63 408.289C145.862 408.097 145.478 407.745 145.478 407.217C145.478 406.497 146.006 406.081 146.95 406.081C147.862 406.081 148.39 406.577 148.422 407.361H149.862C149.83 405.873 148.71 404.913 146.998 404.913C145.27 404.913 144.054 405.825 144.054 407.265C144.054 408.417 144.71 409.105 146.102 409.441L147.478 409.761C148.294 409.969 148.55 410.289 148.55 410.817C148.55 411.537 147.942 411.969 146.886 411.969C145.894 411.969 145.286 411.489 145.286 410.689H143.846ZM155.034 413.153C156.97 413.153 158.282 412.209 158.666 410.529H157.258C157.002 411.425 156.234 411.905 155.066 411.905C153.578 411.905 152.714 410.993 152.602 409.345L158.65 409.329V408.769C158.65 406.449 157.194 404.913 154.97 404.913C152.698 404.913 151.146 406.609 151.146 409.057C151.146 411.489 152.73 413.153 155.034 413.153ZM154.97 406.177C156.298 406.177 157.146 407.041 157.146 408.337H152.634C152.826 406.961 153.658 406.177 154.97 406.177ZM164.81 405.073C164.506 405.009 164.282 404.977 164.01 404.977C162.938 404.977 162.154 405.521 161.834 406.337L161.738 405.153H160.33V412.961H161.834V408.817C161.834 407.313 162.714 406.449 164.138 406.449H164.81V405.073ZM168.647 412.961H170.135L173.399 405.137H171.831L170.087 409.505C169.815 410.193 169.559 410.865 169.431 411.377C169.303 410.897 169.079 410.241 168.807 409.505L167.095 405.137H165.495L168.647 412.961ZM175.332 403.281C175.876 403.281 176.324 402.833 176.324 402.289C176.324 401.729 175.876 401.297 175.332 401.297C174.788 401.297 174.34 401.729 174.34 402.289C174.34 402.833 174.788 403.281 175.332 403.281ZM174.596 412.961H176.1V405.137H174.596V412.961ZM177.771 409.057C177.771 411.521 179.291 413.153 181.595 413.153C183.483 413.153 184.939 412.017 185.243 410.321H183.739C183.467 411.249 182.667 411.809 181.595 411.809C180.171 411.809 179.259 410.721 179.259 409.041C179.259 407.345 180.235 406.257 181.659 406.257C182.667 406.257 183.467 406.785 183.723 407.777H185.227C184.955 406.033 183.579 404.913 181.611 404.913C179.323 404.913 177.771 406.609 177.771 409.057ZM190.206 413.153C192.142 413.153 193.454 412.209 193.838 410.529H192.43C192.174 411.425 191.406 411.905 190.238 411.905C188.75 411.905 187.886 410.993 187.774 409.345L193.822 409.329V408.769C193.822 406.449 192.366 404.913 190.142 404.913C187.87 404.913 186.318 406.609 186.318 409.057C186.318 411.489 187.902 413.153 190.206 413.153ZM190.142 406.177C191.47 406.177 192.318 407.041 192.318 408.337H187.806C187.998 406.961 188.83 406.177 190.142 406.177ZM194.862 410.689C194.862 412.177 196.03 413.153 197.87 413.153C199.726 413.153 201.006 412.209 201.006 410.721C201.006 409.553 200.35 408.945 199.022 408.625L197.646 408.289C196.878 408.097 196.494 407.745 196.494 407.217C196.494 406.497 197.022 406.081 197.966 406.081C198.878 406.081 199.406 406.577 199.438 407.361H200.878C200.846 405.873 199.726 404.913 198.014 404.913C196.286 404.913 195.07 405.825 195.07 407.265C195.07 408.417 195.726 409.105 197.118 409.441L198.494 409.761C199.31 409.969 199.566 410.289 199.566 410.817C199.566 411.537 198.958 411.969 197.902 411.969C196.91 411.969 196.302 411.489 196.302 410.689H194.862ZM209.257 412.961V406.401H210.793V405.137H209.257V402.689H207.753V405.137H206.217V406.401H207.753V412.961H209.257ZM211.553 409.041C211.553 411.457 213.281 413.153 215.633 413.153C217.969 413.153 219.697 411.457 219.697 409.041C219.697 406.625 217.969 404.929 215.633 404.929C213.281 404.929 211.553 406.625 211.553 409.041ZM213.073 409.041C213.073 407.409 214.113 406.273 215.633 406.273C217.137 406.273 218.193 407.409 218.193 409.041C218.193 410.673 217.137 411.809 215.633 411.809C214.113 411.809 213.073 410.673 213.073 409.041ZM226.472 403.281C227.016 403.281 227.464 402.833 227.464 402.289C227.464 401.729 227.016 401.297 226.472 401.297C225.928 401.297 225.48 401.729 225.48 402.289C225.48 402.833 225.928 403.281 226.472 403.281ZM225.736 412.961H227.24V405.137H225.736V412.961ZM231.632 412.961V406.401H233.168V405.137H231.632V402.689H230.128V405.137H228.592V406.401H230.128V412.961H231.632ZM240.397 412.961V408.817C240.397 407.297 241.213 406.289 242.621 406.289C243.773 406.289 244.509 406.929 244.509 408.513V412.961H246.013V408.177C246.013 406.177 245.069 404.913 243.005 404.913C241.901 404.913 240.909 405.441 240.413 406.337L240.253 405.137H238.893V412.961H240.397ZM247.584 409.041C247.584 411.457 249.312 413.153 251.664 413.153C254 413.153 255.728 411.457 255.728 409.041C255.728 406.625 254 404.929 251.664 404.929C249.312 404.929 247.584 406.625 247.584 409.041ZM249.104 409.041C249.104 407.409 250.144 406.273 251.664 406.273C253.168 406.273 254.224 407.409 254.224 409.041C254.224 410.673 253.168 411.809 251.664 411.809C250.144 411.809 249.104 410.673 249.104 409.041ZM258.713 412.961H260.201L261.561 408.785C261.849 407.841 261.993 407.329 262.073 406.945C262.153 407.377 262.313 407.985 262.569 408.769L263.929 412.961H265.353L268.025 405.137H266.457L265.145 409.201C264.921 409.889 264.777 410.433 264.649 411.057C264.521 410.497 264.265 409.585 264.137 409.201L262.841 405.137H261.305L259.993 409.201C259.817 409.713 259.609 410.369 259.481 411.057C259.337 410.369 259.177 409.777 259.001 409.201L257.705 405.137H256.153L258.713 412.961Z" fill="black"/>
</svg>
